<?xml version="1.0" encoding="UTF-8" standalone="no"?>
<!DOCTYPE svg PUBLIC "-//W3C//DTD SVG 1.0//EN" "http://www.w3.org/TR/2001/REC-SVG-20010904/DTD/svg10.dtd">
<!-- Created with Inkscape (http://www.inkscape.org/) -->
<svg
   xmlns:svg="http://www.w3.org/2000/svg"
   xmlns="http://www.w3.org/2000/svg"
   version="1.0"
   width="800"
   height="310"
   id="svg2">
  <defs
     id="defs4" />
  <g
     id="layer1">
    <g
       transform="matrix(8.3477313,0,0,8.3477313,-2531.0043,2845.1357)"
       id="g3830"
       style="fill:#000000">
      <rect
         width="11.048543"
         height="10.120466"
         x="305.595"
         y="-338.15012"
         id="rect3820"
         style="opacity:1;fill:#000000;fill-opacity:1;fill-rule:nonzero;stroke:#000000;stroke-width:1;stroke-linecap:round;stroke-linejoin:miter;stroke-miterlimit:4;stroke-dasharray:none;stroke-opacity:1" />
      <rect
         width="11.048543"
         height="23.157747"
         x="305.595"
         y="-328.0076"
         id="rect3822"
         style="opacity:1;fill:#000000;fill-opacity:1;fill-rule:nonzero;stroke:#000000;stroke-width:1;stroke-linecap:round;stroke-linejoin:miter;stroke-miterlimit:4;stroke-dasharray:none;stroke-opacity:1" />
      <path
         d="M 316.63616,-328.00938 L 316.63616,-316.94688 L 316.63616,-304.85313 L 327.69866,-304.85313 L 327.69866,-316.94688 L 339.79241,-316.94688 L 339.79241,-328.00938 L 327.69866,-328.00938 L 316.63616,-328.00938 z"
         id="path3824"
         style="opacity:1;fill:#000000;fill-opacity:1;fill-rule:nonzero;stroke:#000000;stroke-width:1;stroke-linecap:round;stroke-linejoin:miter;stroke-miterlimit:4;stroke-dasharray:none;stroke-opacity:1" />
      <path
         d="M 339.78889,-328.00938 L 339.78889,-304.85313 L 362.78889,-304.85313 L 362.78889,-311.88438 L 347.78889,-311.88438 L 347.78889,-311.9563 L 362.78889,-311.9563 L 362.78889,-328.00938 L 339.78889,-328.00938 z M 347.78889,-320.85313 L 354.60139,-320.85313 L 354.60139,-320.8254 L 347.78889,-320.8254 L 347.78889,-320.85313 z"
         id="path3826"
         style="opacity:1;fill:#000000;fill-opacity:1;fill-rule:nonzero;stroke:#000000;stroke-width:1;stroke-linecap:round;stroke-linejoin:miter;stroke-miterlimit:4;stroke-dasharray:none;stroke-opacity:1" />
      <path
         d="M 362.81126,-328.00938 L 362.81126,-304.85313 L 374.87728,-304.85313 L 374.87728,-316.79063 L 374.90501,-316.79063 L 374.90501,-304.85313 L 386.81478,-304.85313 L 386.81478,-316.79063 L 386.84251,-316.79063 L 386.84251,-304.85313 L 397.90501,-304.85313 L 397.90501,-328.00938 L 362.81126,-328.00938 z"
         id="path3828"
         style="opacity:1;fill:#000000;fill-opacity:1;fill-rule:nonzero;stroke:#000000;stroke-width:1;stroke-linecap:round;stroke-linejoin:miter;stroke-miterlimit:4;stroke-dasharray:none;stroke-opacity:1" />
    </g>
    <g
       transform="matrix(8.3477313,0,0,8.3477313,-1970.9091,3120.7934)"
       id="g3837">
      <rect
         width="11.048543"
         height="10.120466"
         x="237.4995"
         y="-372.172"
         id="rect3738"
         style="opacity:1;fill:#0099cc;fill-opacity:1;fill-rule:nonzero;stroke:#000000;stroke-width:1;stroke-linecap:round;stroke-linejoin:miter;stroke-miterlimit:4;stroke-dasharray:none;stroke-opacity:1" />
      <rect
         width="11.048543"
         height="23.157747"
         x="237.4995"
         y="-362.02948"
         id="rect3740"
         style="opacity:1;fill:#00ff00;fill-opacity:1;fill-rule:nonzero;stroke:#000000;stroke-width:1;stroke-linecap:round;stroke-linejoin:miter;stroke-miterlimit:4;stroke-dasharray:none;stroke-opacity:1" />
      <path
         d="M 248.54067,-362.03125 L 248.54067,-350.96875 L 248.54067,-338.875 L 259.60317,-338.875 L 259.60317,-350.96875 L 271.69692,-350.96875 L 271.69692,-362.03125 L 259.60317,-362.03125 L 248.54067,-362.03125 z"
         id="rect3742"
         style="opacity:1;fill:#ffffff;fill-opacity:1;fill-rule:nonzero;stroke:#000000;stroke-width:1;stroke-linecap:round;stroke-linejoin:miter;stroke-miterlimit:4;stroke-dasharray:none;stroke-opacity:1" />
      <path
         d="M 271.6934,-362.03125 L 271.6934,-338.875 L 294.6934,-338.875 L 294.6934,-345.90625 L 279.6934,-345.90625 L 279.6934,-345.97817 L 294.6934,-345.97817 L 294.6934,-362.03125 L 271.6934,-362.03125 z M 279.6934,-354.875 L 286.5059,-354.875 L 286.5059,-354.84727 L 279.6934,-354.84727 L 279.6934,-354.875 z"
         id="rect3746"
         style="opacity:1;fill:#ffffff;fill-opacity:1;fill-rule:nonzero;stroke:#000000;stroke-width:1;stroke-linecap:round;stroke-linejoin:miter;stroke-miterlimit:4;stroke-dasharray:none;stroke-opacity:1" />
      <path
         d="M 294.71577,-362.03125 L 294.71577,-338.875 L 306.78179,-338.875 L 306.78179,-350.8125 L 306.80952,-350.8125 L 306.80952,-338.875 L 318.71929,-338.875 L 318.71929,-350.8125 L 318.74702,-350.8125 L 318.74702,-338.875 L 329.80952,-338.875 L 329.80952,-362.03125 L 294.71577,-362.03125 z"
         id="rect3748"
         style="opacity:1;fill:#ffffff;fill-opacity:1;fill-rule:nonzero;stroke:#000000;stroke-width:1;stroke-linecap:round;stroke-linejoin:miter;stroke-miterlimit:4;stroke-dasharray:none;stroke-opacity:1" />
    </g>
  </g>
</svg>
