<?xml version="1.0" encoding="UTF-8" standalone="no"?>
<svg
   xmlns:dc="http://purl.org/dc/elements/1.1/"
   xmlns:cc="http://creativecommons.org/ns#"
   xmlns:rdf="http://www.w3.org/1999/02/22-rdf-syntax-ns#"
   xmlns:svg="http://www.w3.org/2000/svg"
   xmlns="http://www.w3.org/2000/svg"
   xmlns:sodipodi="http://sodipodi.sourceforge.net/DTD/sodipodi-0.dtd"
   xmlns:inkscape="http://www.inkscape.org/namespaces/inkscape"
   width="400pt"
   height="50pt"
   viewBox="0 0 400 50"
   version="1.1"
   id="svg3336"
   inkscape:version="0.91 r13725"
   sodipodi:docname="logo.svg">
  <metadata
     id="metadata3367">
    <rdf:RDF>
      <cc:Work
         rdf:about="">
        <dc:format>image/svg+xml</dc:format>
        <dc:type
           rdf:resource="http://purl.org/dc/dcmitype/StillImage" />
        <dc:title></dc:title>
      </cc:Work>
    </rdf:RDF>
  </metadata>
  <defs
     id="defs3365" />
  <sodipodi:namedview
     pagecolor="#ffffff"
     bordercolor="#666666"
     borderopacity="1"
     objecttolerance="10"
     gridtolerance="10"
     guidetolerance="10"
     inkscape:pageopacity="0"
     inkscape:pageshadow="2"
     inkscape:window-width="1920"
     inkscape:window-height="1027"
     id="namedview3363"
     showgrid="false"
     inkscape:zoom="2.4960869"
     inkscape:cx="230.82015"
     inkscape:cy="76.26995"
     inkscape:window-x="-8"
     inkscape:window-y="-8"
     inkscape:window-maximized="1"
     inkscape:current-layer="svg3336" />
  <path
     style="opacity:1;fill:#ffffff;stroke:#ffffff;stroke-width:0.09375"
     inkscape:connector-curvature="0"
     id="path3339"
     d="M 0,0 70.06,0 C 73.64,0.62 77.01,2.28 79.4,5.06 81.11,2.65 83.47,0.73 86.39,0 l 65.46,0 0.28,0.43 0.38,-0.06 -0.2,-0.37 37.44,0 c 0,5.62 -0.01,11.25 0.01,16.87 C 200.34,11.23 210.91,5.55 221.54,0 l 44.21,0 c 0,4.67 0,9.33 0,14 11.42,0 22.83,0 34.25,0 0,-4.67 0,-9.33 0,-14 l 20.99,0 c -1.48,3.36 3.13,1.51 4.12,0 l 67.8,0 c 3.58,0.72 6.37,3.51 7.09,7.1 l 0,35.66 c -0.77,4.02 -4.34,6.98 -8.38,7.24 l -64.93,0 c -3,-0.23 -5.52,-1.93 -7.32,-4.26 -1.83,2.16 -4.2,3.81 -7.03,4.26 l -89.8,0 C 211.65,44.39 200.65,38.99 189.76,33.38 189.74,38.92 189.75,44.46 189.75,50 l -40.03,0 c 0.03,-0.65 0.08,-1.96 0.1,-2.61 -2.34,1.32 -4.83,2.43 -7.55,2.61 l -64.52,0 c 0.02,-4.94 -0.06,-9.89 0.06,-14.83 -2.37,1.42 -4.96,2.74 -7.81,2.58 -15.67,0 -31.33,0 -47,0 0,4.08 0,8.17 0,12.25 L 0,50 0,0 M 3.51,3.24 C 3.49,17.66 3.5,32.08 3.5,46.5 c 5.34,0 10.67,0 16,0 0,-4.08 0,-8.16 0,-12.24 16.82,-0.02 33.65,-0.01 50.48,0 3.65,0.37 7.28,-2.58 7.43,-6.28 C 77.62,22.34 77.48,16.7 77.49,11.06 77.82,5.98 72.28,3.35 67.93,3.3 46.46,3.17 24.99,3.3 3.51,3.24 m 78.3,5.82 c -0.66,4.95 -0.2,9.99 -0.28,14.97 -0.18,2.98 2.65,5.25 5.47,5.17 14.67,0.11 29.35,0.04 44.02,0.03 1.31,0.26 3.16,-0.5 4.13,0.64 0.11,1.46 0.17,2.91 0.19,4.37 -1.4,0.34 -2.83,0.56 -4.27,0.53 -16.61,-0.05 -33.21,-0.01 -49.82,-0.02 0,3.93 -0.02,7.85 0.03,11.77 18.57,-0.05 37.13,-0.02 55.69,-0.01 2.69,-0.04 5.44,0.23 8.05,-0.56 2.54,-0.76 4.28,-3.3 4.2,-5.93 0.04,-4.97 0.13,-9.94 -0.05,-14.9 0.09,-2.8 -2.43,-4.91 -5.11,-4.84 -15.56,-0.14 -31.12,0.13 -46.68,-0.14 -0.08,-1.48 -0.15,-2.97 -0.19,-4.45 3.23,-0.68 6.53,-0.41 9.81,-0.44 13.83,-0.01 27.66,0.02 41.49,-0.01 0.01,-3.99 0,-7.99 0.02,-11.98 C 128.66,3.27 108.81,3.19 88.97,3.3 85.54,3.14 82.26,5.57 81.81,9.06 m 73.24,-5.82 c -2.13,4.15 -4.23,8.32 -6.25,12.52 5.32,-0.02 10.65,-0.01 15.97,-0.01 1.96,-4.17 3.9,-8.34 5.92,-12.48 -5.22,-0.04 -10.43,0 -15.64,-0.03 m 17.2,0.01 c 0.01,14.42 -0.02,28.84 0.02,43.26 4.66,-0.02 9.32,-0.01 13.98,-0.01 0,-6.25 0.01,-12.5 -0.01,-18.75 12.31,6.21 24.6,12.46 36.93,18.62 7.26,0.36 14.55,-0.05 21.83,0.19 0.45,-0.51 0.9,-1.02 1.35,-1.53 -2.63,-0.5 -4.91,-1.97 -7.28,-3.12 -11.02,-5.8 -22.28,-11.14 -33.23,-17.06 13.49,-7.22 27.14,-14.18 40.53,-21.59 -7.96,0.13 -15.96,-0.3 -23.89,0.2 -12.14,6.25 -24.13,12.8 -36.21,19.17 -0.03,-6.44 -0.05,-12.88 0.01,-19.33 -4.67,-0.1 -9.35,-0.04 -14.03,-0.05 m 75,0 c 0.08,6.07 -0.16,12.14 0.11,18.2 0.08,2.67 1.53,5.99 4.63,6 17.18,0.12 34.36,0 51.55,0.06 -0.37,2.14 1.16,6.9 -2.48,6.47 -17.94,0.06 -35.88,-0.01 -53.82,0.02 -0.41,4.08 1.07,8.66 -1.09,12.32 20.62,0.41 41.25,0.05 61.87,0.2 2.42,-0.08 5.21,0.37 7.18,-1.41 1.9,-1.8 2.36,-4.56 2.31,-7.07 -0.02,-11.59 -0.02,-23.18 0,-34.78 -4.67,-0.02 -9.33,0.01 -13.99,-0.03 -0.04,4.67 -0.01,9.35 -0.02,14.02 -12.16,0.01 -24.32,-0.02 -36.48,0.02 -1.49,-0.26 -3.49,0.54 -4.6,-0.72 -0.42,-4.42 -0.05,-8.87 -0.17,-13.3 -5,0 -10,0 -15,0 m 79.95,0.07 c -3.07,-0.07 -5.64,2.61 -5.43,5.67 -0.03,10.73 -0.06,21.46 0.02,32.18 -0.09,2.83 2.32,5.34 5.16,5.3 21.33,0.06 42.67,0.03 64,0.01 2.99,0.26 5.87,-2.44 5.55,-5.47 -0.04,-11.02 0.07,-22.04 -0.05,-33.05 -0.06,-3.21 -3.5,-4.93 -6.36,-4.71 C 369.13,3.29 348.16,3.16 327.2,3.32 M 213.22,24.85 c 10.19,5.14 20.33,10.37 30.52,15.51 0.01,-3.22 0,-6.43 0.01,-9.64 2.18,0.01 4.37,0.02 6.55,0.23 -3.05,-1.23 -5.6,-3.84 -6.12,-7.16 -0.86,-4.97 -0.27,-10.05 -0.42,-15.06 -10.21,5.32 -20.35,10.77 -30.54,16.12 m -59.97,-4.84 c 0,8.82 0.01,17.65 -0.01,26.48 5.01,0.01 10.01,0.01 15.01,0.01 0,-8.84 0,-17.67 0,-26.5 -5,0 -10,0 -15,0.01 z" />
  <g
     id="g3402">
    <path
       d="m 19.44,15.08 c 14.77,-0.18 29.55,-0.04 44.32,-0.07 0.01,2.77 0,5.53 -0.1,8.3 C 48.95,23.17 34.23,23.28 19.52,23.26 19.5,20.53 19.5,17.8 19.44,15.08 m 3.58,3.41 c -0.01,0.32 -0.02,0.95 -0.03,1.26 12.41,0 24.82,0 37.23,0 l 0.11,-1.22 c -12.44,-0.07 -24.87,0 -37.31,-0.04 z"
       id="path3341"
       inkscape:connector-curvature="0"
       style="opacity:1;fill:#ffffff;stroke:#ffffff;stroke-width:0.09375" />
    <path
       d="m 337,15.25 c 14.77,0.05 29.53,-0.09 44.3,0.07 -0.1,6.31 -0.03,12.62 -0.05,18.93 -14.75,0 -29.5,0 -44.25,0 0,-6.33 -0.01,-12.67 0,-19 m 3.5,3.5 c 0,4.08 0,8.17 0,12.25 12.42,0 24.84,0.01 37.25,0 0,-4.09 -0.01,-8.17 0,-12.25 -12.41,0 -24.83,0 -37.25,0 z"
       id="path3343"
       inkscape:connector-curvature="0"
       style="opacity:1;fill:#ffffff;stroke:#ffffff;stroke-width:0.09375" />
    <path
       d="m 151.85,0 0.46,0 0.2,0.37 -0.38,0.06 L 151.85,0 Z"
       id="path3346"
       inkscape:connector-curvature="0"
       style="opacity:1;fill:#fd1318;stroke:#fd1318;stroke-width:0.09375" />
    <path
       d="M 3.51,3.24 C 24.99,3.3 46.46,3.17 67.93,3.3 c 4.35,0.05 9.89,2.68 9.56,7.76 -0.01,5.64 0.13,11.28 -0.08,16.92 -0.15,3.7 -3.78,6.65 -7.43,6.28 -16.83,-0.01 -33.66,-0.02 -50.48,0 0,4.08 0,8.16 0,12.24 -5.33,0 -10.66,0 -16,0 C 3.5,32.08 3.49,17.66 3.51,3.24 m 15.93,11.84 c 0.06,2.72 0.06,5.45 0.08,8.18 14.71,0.02 29.43,-0.09 44.14,0.05 0.1,-2.77 0.11,-5.53 0.1,-8.3 -14.77,0.03 -29.55,-0.11 -44.32,0.07 z"
       id="path3348"
       inkscape:connector-curvature="0"
       style="opacity:1;fill:#fd1318;stroke:#fd1318;stroke-width:0.09375" />
    <path
       d="m 155.05,3.24 c 5.21,0.03 10.42,-0.01 15.64,0.03 -2.02,4.14 -3.96,8.31 -5.92,12.48 -5.32,0 -10.65,-0.01 -15.97,0.01 2.02,-4.2 4.12,-8.37 6.25,-12.52 z"
       id="path3350"
       inkscape:connector-curvature="0"
       style="opacity:1;fill:#fd1318;stroke:#fd1318;stroke-width:0.09375" />
    <path
       d="m 81.81,9.06 c 0.45,-3.49 3.73,-5.92 7.16,-5.76 19.84,-0.11 39.69,-0.03 59.54,-0.04 -0.02,3.99 -0.01,7.99 -0.02,11.98 -13.83,0.03 -27.66,0 -41.49,0.01 -3.28,0.03 -6.58,-0.24 -9.81,0.44 0.04,1.48 0.11,2.97 0.19,4.45 15.56,0.27 31.12,0 46.68,0.14 2.68,-0.07 5.2,2.04 5.11,4.84 0.18,4.96 0.09,9.93 0.05,14.9 0.08,2.63 -1.66,5.17 -4.2,5.93 -2.61,0.79 -5.36,0.52 -8.05,0.56 -18.56,-0.01 -37.12,-0.04 -55.69,0.01 -0.05,-3.92 -0.03,-7.84 -0.03,-11.77 16.61,0.01 33.21,-0.03 49.82,0.02 1.44,0.03 2.87,-0.19 4.27,-0.53 -0.02,-1.46 -0.08,-2.91 -0.19,-4.37 -0.97,-1.14 -2.82,-0.38 -4.13,-0.64 C 116.35,29.24 101.67,29.31 87,29.2 84.18,29.28 81.35,27.01 81.53,24.03 81.61,19.05 81.15,14.01 81.81,9.06 Z"
       id="path3353"
       inkscape:connector-curvature="0"
       style="opacity:1;fill:#000000;stroke:#000000;stroke-width:0.09375" />
    <path
       d="m 172.25,3.25 c 4.68,0.01 9.36,-0.05 14.03,0.05 -0.06,6.45 -0.04,12.89 -0.01,19.33 12.08,-6.37 24.07,-12.92 36.21,-19.17 7.93,-0.5 15.93,-0.07 23.89,-0.2 -13.39,7.41 -27.04,14.37 -40.53,21.59 10.95,5.92 22.21,11.26 33.23,17.06 2.37,1.15 4.65,2.62 7.28,3.12 -0.45,0.51 -0.9,1.02 -1.35,1.53 -7.28,-0.24 -14.57,0.17 -21.83,-0.19 -12.33,-6.16 -24.62,-12.41 -36.93,-18.62 0.02,6.25 0.01,12.5 0.01,18.75 -4.66,0 -9.32,-0.01 -13.98,0.01 -0.04,-14.42 -0.01,-28.84 -0.02,-43.26 z"
       id="path3355"
       inkscape:connector-curvature="0"
       style="opacity:1;fill:#000000;stroke:#000000;stroke-width:0.09375" />
    <path
       d="m 247.25,3.25 c 5,0 10,0 15,0 0.12,4.43 -0.25,8.88 0.17,13.3 1.11,1.26 3.11,0.46 4.6,0.72 12.16,-0.04 24.32,-0.01 36.48,-0.02 0.01,-4.67 -0.02,-9.35 0.02,-14.02 4.66,0.04 9.32,0.01 13.99,0.03 -0.02,11.6 -0.02,23.19 0,34.78 0.05,2.51 -0.41,5.27 -2.31,7.07 -1.97,1.78 -4.76,1.33 -7.18,1.41 -20.62,-0.15 -41.25,0.21 -61.87,-0.2 2.16,-3.66 0.68,-8.24 1.09,-12.32 17.94,-0.03 35.88,0.04 53.82,-0.02 3.64,0.43 2.11,-4.33 2.48,-6.47 -17.19,-0.06 -34.37,0.06 -51.55,-0.06 -3.1,-0.01 -4.55,-3.33 -4.63,-6 -0.27,-6.06 -0.03,-12.13 -0.11,-18.2 z"
       id="path3357"
       inkscape:connector-curvature="0"
       style="opacity:1;fill:#000000;stroke:#000000;stroke-width:0.09375" />
    <path
       d="m 327.2,3.32 c 20.96,-0.16 41.93,-0.03 62.89,-0.07 2.86,-0.22 6.3,1.5 6.36,4.71 0.12,11.01 0.01,22.03 0.05,33.05 0.32,3.03 -2.56,5.73 -5.55,5.47 -21.33,0.02 -42.67,0.05 -64,-0.01 -2.84,0.04 -5.25,-2.47 -5.16,-5.3 -0.08,-10.72 -0.05,-21.45 -0.02,-32.18 -0.21,-3.06 2.36,-5.74 5.43,-5.67 m 9.8,11.93 c -0.01,6.33 0,12.67 0,19 14.75,0 29.5,0 44.25,0 0.02,-6.31 -0.05,-12.62 0.05,-18.93 C 366.53,15.16 351.77,15.3 337,15.25 Z"
       id="path3359"
       inkscape:connector-curvature="0"
       style="opacity:1;fill:#000000;stroke:#000000;stroke-width:0.09375" />
    <path
       d="m 153.25,20.01 c 5,-0.01 10,-0.01 15,-0.01 0,8.83 0,17.66 0,26.5 -5,0 -10,0 -15.01,-0.01 0.02,-8.83 0.01,-17.66 0.01,-26.48 z"
       id="path3361"
       inkscape:connector-curvature="0"
       style="opacity:1;fill:#000000;stroke:#000000;stroke-width:0.09375" />
  </g>
</svg>
