<?xml version="1.0" encoding="UTF-8" standalone="no"?>
<svg
   xmlns:dc="http://purl.org/dc/elements/1.1/"
   xmlns:cc="http://creativecommons.org/ns#"
   xmlns:rdf="http://www.w3.org/1999/02/22-rdf-syntax-ns#"
   xmlns:svg="http://www.w3.org/2000/svg"
   xmlns="http://www.w3.org/2000/svg"
   xmlns:sodipodi="http://sodipodi.sourceforge.net/DTD/sodipodi-0.dtd"
   xmlns:inkscape="http://www.inkscape.org/namespaces/inkscape"
   width="600pt"
   height="300pt"
   viewBox="0 0 600 300"
   version="1.1"
   id="svg3606"
   inkscape:version="0.91 r13725"
   sodipodi:docname="logo2.svg">
  <metadata
     id="metadata3828">
    <rdf:RDF>
      <cc:Work
         rdf:about="">
        <dc:format>image/svg+xml</dc:format>
        <dc:type
           rdf:resource="http://purl.org/dc/dcmitype/StillImage" />
      </cc:Work>
    </rdf:RDF>
  </metadata>
  <defs
     id="defs3826" />
  <sodipodi:namedview
     pagecolor="#ffffff"
     bordercolor="#666666"
     borderopacity="1"
     objecttolerance="10"
     gridtolerance="10"
     guidetolerance="10"
     inkscape:pageopacity="0"
     inkscape:pageshadow="2"
     inkscape:window-width="1920"
     inkscape:window-height="1027"
     id="namedview3824"
     showgrid="false"
     inkscape:zoom="1.2933333"
     inkscape:cx="487.66659"
     inkscape:cy="181.46062"
     inkscape:window-x="-8"
     inkscape:window-y="-8"
     inkscape:window-maximized="1"
     inkscape:current-layer="svg3606" />
  <g
     id="#2a2a2a4d">
    <path
       fill="#2a2a2a"
       stroke="#2a2a2a"
       stroke-width="0.09375"
       opacity="0.30"
       d=" M 543.41 15.57 C 546.86 14.60 550.74 16.29 552.43 19.42 C 553.39 23.12 552.72 27.05 551.50 30.62 C 544.07 52.01 538.56 73.98 532.74 95.84 C 529.09 111.07 524.70 126.11 521.17 141.37 C 519.98 146.96 517.97 152.39 517.30 158.08 C 516.97 160.31 519.17 161.80 521.12 162.13 C 527.14 163.15 533.34 161.57 539.32 162.84 C 543.51 164.64 544.93 169.95 544.13 174.12 C 543.39 177.59 542.64 182.66 538.27 183.15 C 522.25 185.83 506.40 178.51 490.38 181.41 C 486.54 182.34 482.34 181.37 480.15 177.87 C 477.09 174.46 479.16 169.88 480.31 166.15 C 486.73 148.01 491.05 129.24 495.89 110.64 C 496.53 107.89 497.81 104.92 496.27 102.23 C 494.51 103.84 492.83 105.55 491.48 107.52 C 476.42 129.92 463.33 153.54 449.92 176.94 C 448.07 179.79 445.88 184.14 441.77 183.24 C 438.36 183.26 434.99 181.51 434.14 178.01 C 432.87 172.44 432.70 166.67 432.37 160.99 C 431.28 149.30 430.79 137.56 429.63 125.87 C 429.26 121.23 429.90 116.20 427.02 112.19 C 424.04 116.73 423.05 122.15 421.03 127.12 C 414.87 143.80 406.17 159.82 393.54 172.49 C 383.83 181.47 371.35 187.87 357.99 188.61 C 351.60 188.92 344.46 188.06 339.75 183.26 C 335.47 179.60 333.35 173.42 335.11 167.98 C 336.91 161.32 343.67 157.13 350.27 156.52 C 356.32 156.17 361.91 159.50 367.94 159.32 C 373.67 158.31 378.62 154.63 382.26 150.23 C 390.16 140.69 395.54 129.37 400.04 117.92 C 406.95 97.90 411.61 77.13 414.54 56.16 C 414.92 53.49 415.55 50.80 415.32 48.09 C 414.80 45.70 412.08 45.18 410.05 45.73 C 397.01 48.02 383.51 53.50 375.72 64.75 C 372.47 68.89 371.54 74.69 373.21 79.65 C 375.86 85.50 381.68 90.13 381.65 97.01 C 381.43 101.12 380.22 106.29 375.99 107.98 C 379.11 103.72 381.19 97.83 377.81 93.07 C 374.87 87.81 370.12 83.46 368.75 77.41 C 370.10 70.61 372.80 63.78 378.06 59.05 C 389.09 49.16 403.98 43.48 418.81 43.85 C 417.57 63.23 413.92 82.41 408.90 101.15 C 405.42 114.09 401.20 126.96 394.66 138.70 C 391.56 144.45 387.22 149.40 383.99 155.07 C 379.20 157.97 375.07 162.96 369.01 162.85 C 362.00 163.35 355.43 159.31 348.41 160.48 C 343.11 161.36 339.37 166.00 337.72 170.85 C 336.35 176.51 339.57 182.58 344.74 185.05 C 348.23 186.70 352.13 187.44 355.99 187.45 C 372.78 186.98 388.43 177.72 398.48 164.51 C 411.93 148.27 419.07 128.07 424.96 108.12 C 426.42 102.97 427.24 97.58 429.70 92.77 C 432.28 102.67 430.61 113.15 433.48 123.00 L 433.59 123.81 C 433.13 128.93 433.22 134.08 433.65 139.21 C 434.72 152.39 435.64 165.60 436.63 178.78 C 436.67 181.93 440.55 182.00 442.86 181.88 C 445.33 182.04 446.40 179.40 447.62 177.71 C 462.40 151.20 477.46 124.78 494.81 99.85 C 498.01 95.41 500.70 90.55 504.67 86.72 C 504.40 92.76 502.49 98.52 501.03 104.34 C 495.63 124.51 491.02 144.91 484.56 164.78 C 483.39 168.46 481.48 171.98 481.18 175.88 C 482.21 179.33 485.88 181.46 489.38 180.33 C 506.38 176.77 523.30 185.10 540.34 181.46 C 541.32 177.42 542.92 173.28 542.04 169.07 C 540.32 167.55 538.60 165.34 536.04 165.65 C 528.68 165.57 521.03 166.80 513.99 163.97 C 515.59 153.89 518.48 144.08 520.85 134.17 C 529.42 101.01 537.46 67.69 547.82 35.03 C 549.04 31.04 551.09 27.25 551.54 23.06 C 551.76 20.98 549.47 20.06 548.18 18.86 C 547.27 18.64 546.37 18.45 545.46 18.32 C 538.19 22.05 531.98 27.50 526.15 33.15 C 512.60 46.08 501.09 60.94 490.02 75.99 C 482.28 86.70 474.88 97.65 467.91 108.87 C 464.81 113.68 462.30 118.92 458.36 123.13 C 456.98 115.82 456.86 108.35 456.05 100.97 C 454.99 86.98 453.89 72.99 452.74 59.01 C 452.29 51.68 451.25 44.37 451.60 37.00 C 451.47 33.42 452.49 29.27 449.87 26.31 C 447.38 24.77 444.41 25.46 441.67 25.54 C 427.38 26.17 412.86 26.11 398.96 29.91 C 386.56 33.26 374.51 39.17 365.65 48.66 C 361.71 52.81 358.72 57.72 356.00 62.73 C 351.26 70.50 349.89 80.03 351.11 88.96 C 352.07 95.69 354.50 102.65 359.88 107.13 C 362.51 109.53 366.18 109.98 369.46 111.00 L 370.26 111.44 C 363.73 112.19 357.25 108.70 353.74 103.26 C 348.80 96.62 348.11 88.15 346.92 80.24 C 346.12 80.04 344.51 79.65 343.71 79.45 C 343.40 70.81 345.00 62.27 346.58 53.81 C 347.63 47.85 350.31 42.02 349.44 35.85 C 347.96 34.14 346.40 32.13 343.93 32.04 C 328.43 30.45 313.73 23.88 297.99 24.20 C 278.52 24.39 260.42 33.71 245.12 45.10 C 233.59 53.85 224.07 65.08 216.91 77.62 C 215.71 72.74 217.60 67.89 217.57 63.00 C 217.66 57.36 216.25 51.65 213.00 46.99 C 208.41 38.65 200.63 32.43 191.78 29.10 C 179.59 24.27 166.20 23.81 153.27 24.42 C 133.36 25.38 113.47 31.45 97.28 43.26 C 80.96 55.56 67.59 72.71 63.03 92.93 C 62.07 94.36 61.61 96.06 61.88 97.78 C 60.50 109.32 60.12 121.77 65.75 132.33 C 68.43 137.60 72.36 142.27 77.12 145.76 C 82.58 149.57 91.38 149.20 95.13 143.20 C 98.05 138.79 96.79 132.84 92.96 129.41 C 88.28 124.17 81.81 120.52 78.28 114.27 C 78.13 108.47 77.34 102.58 78.64 96.85 C 81.62 83.03 89.59 70.29 100.74 61.58 C 100.02 63.44 98.97 65.14 97.51 66.50 C 89.60 74.10 83.94 84.02 81.41 94.69 C 80.04 101.05 79.89 108.11 82.93 114.03 C 86.43 119.42 92.10 122.88 96.01 127.93 C 99.42 132.38 99.50 138.90 96.54 143.60 C 94.32 147.61 89.51 149.53 85.10 149.59 C 77.85 149.13 71.25 144.83 67.14 138.94 C 60.27 130.17 58.09 118.85 57.43 107.99 C 57.81 96.90 60.36 85.88 64.85 75.73 C 77.32 50.59 101.05 31.44 128.24 24.48 C 147.77 19.77 168.61 18.43 188.09 24.10 C 199.23 27.33 209.47 34.50 215.25 44.67 C 218.48 50.13 218.89 56.56 220.96 62.43 C 227.21 57.60 231.83 51.00 237.92 45.94 C 253.98 32.32 273.71 21.93 295.02 20.46 C 310.81 19.70 325.70 25.82 341.12 28.07 C 345.33 28.61 350.89 30.25 351.53 35.19 C 352.60 46.45 345.63 57.07 347.97 68.40 C 351.30 65.51 352.38 61.09 354.52 57.39 C 360.19 46.86 369.49 38.61 380.05 33.17 C 394.08 25.55 410.25 23.31 425.97 22.41 C 432.02 22.73 438.02 22.09 444.02 21.38 C 449.20 20.59 454.16 25.11 454.48 30.20 C 454.83 35.68 454.19 41.21 455.12 46.65 C 456.64 66.11 458.04 85.57 459.65 105.02 C 459.56 106.95 460.70 108.50 461.96 109.84 C 466.49 104.85 469.36 98.67 473.34 93.28 C 485.80 74.14 499.51 55.79 514.87 38.88 C 520.53 33.21 525.98 27.27 532.41 22.44 C 535.85 19.84 539.14 16.70 543.41 15.57 Z"
       id="path3609" />
    <path
       fill="#2a2a2a"
       stroke="#2a2a2a"
       stroke-width="0.09375"
       opacity="0.30"
       d=" M 125.62 46.63 C 137.27 41.34 150.36 39.87 163.03 40.73 C 171.82 41.41 181.40 45.20 185.47 53.55 C 188.93 60.50 186.56 68.31 185.24 75.47 C 180.57 84.54 173.69 93.14 163.88 96.86 C 158.13 99.48 151.70 98.81 145.57 98.78 C 150.27 83.21 153.66 67.25 158.64 51.76 C 159.12 50.18 159.22 48.50 159.02 46.86 C 157.71 45.34 156.33 43.88 154.97 42.41 C 145.23 44.09 135.57 46.73 125.62 46.63 M 162.31 42.36 L 161.51 42.48 C 160.19 45.60 160.97 49.13 160.21 52.38 C 156.74 65.60 152.69 78.69 149.72 92.03 C 148.56 94.79 151.86 95.90 154.02 95.48 C 169.05 94.04 181.04 80.94 183.72 66.48 C 185.90 58.28 182.04 48.39 174.05 44.93 C 170.36 43.38 166.36 42.04 162.31 42.36 Z"
       id="path3611" />
    <path
       fill="#2a2a2a"
       stroke="#2a2a2a"
       stroke-width="0.09375"
       opacity="0.30"
       d=" M 272.85 50.78 C 281.81 44.90 292.09 40.33 303.01 40.42 C 311.43 40.06 320.62 43.48 325.13 50.94 C 330.07 58.82 329.16 68.50 329.18 77.38 L 329.16 78.29 C 329.34 83.24 334.71 83.50 338.44 84.09 L 339.32 84.26 C 335.56 85.02 330.90 85.07 328.36 81.66 C 324.00 76.42 325.79 69.19 325.44 62.96 C 325.49 55.66 321.85 48.10 315.09 44.82 C 306.01 39.60 295.01 42.07 285.80 45.60 C 268.05 52.98 254.19 68.02 246.10 85.23 C 239.61 97.69 236.82 111.82 236.98 125.79 C 237.68 134.89 238.89 144.69 245.15 151.83 C 251.20 158.20 260.06 162.56 269.00 161.31 C 274.72 160.53 280.64 159.65 285.74 156.79 C 289.89 154.41 290.15 149.11 291.28 144.97 C 291.75 141.57 293.54 137.65 291.52 134.48 C 287.36 132.57 282.08 134.54 278.06 131.84 C 271.56 127.45 273.92 115.08 282.23 114.56 C 296.82 114.15 311.44 114.60 326.04 114.36 C 330.72 114.19 336.87 115.35 338.16 120.67 C 338.89 124.37 339.71 129.70 335.71 131.83 C 336.34 128.61 336.78 125.28 336.24 122.01 C 335.58 121.31 334.90 120.62 334.21 119.96 C 333.97 119.76 333.50 119.38 333.26 119.18 C 331.00 118.15 328.47 118.12 326.04 118.12 C 312.00 118.45 297.96 117.18 283.93 117.88 C 282.13 118.21 279.66 117.87 278.71 119.82 C 277.15 123.37 275.93 128.57 279.87 131.06 C 284.80 132.88 290.51 130.45 295.41 132.71 C 296.84 134.43 296.18 136.78 295.96 138.79 C 295.07 143.65 293.82 148.44 293.31 153.36 C 292.42 155.58 292.21 158.57 289.70 159.62 C 280.50 164.58 269.66 165.72 259.41 164.42 C 250.95 162.72 244.08 156.61 239.31 149.69 C 235.67 142.36 234.60 134.09 234.54 126.00 C 233.96 96.67 248.81 67.58 272.85 50.78 Z"
       id="path3613" />
    <path
       fill="#2a2a2a"
       stroke="#2a2a2a"
       stroke-width="0.09375"
       opacity="0.30"
       d=" M 101.72 60.75 C 107.39 55.98 113.40 50.95 120.72 49.06 C 120.73 49.55 120.74 50.53 120.75 51.02 C 120.69 51.50 120.58 52.46 120.53 52.95 C 120.44 54.64 119.68 56.59 120.84 58.09 C 122.28 60.00 124.61 60.86 126.63 61.98 C 126.55 64.66 126.38 67.35 125.77 69.96 C 119.84 93.12 114.11 116.32 108.25 139.49 C 106.26 146.88 104.39 155.07 98.43 160.37 C 93.06 164.12 86.19 164.23 80.11 166.14 C 79.19 170.17 77.68 174.35 78.55 178.52 C 79.75 180.75 82.37 181.98 84.86 181.56 C 90.72 180.92 96.49 179.44 102.42 179.39 C 118.14 178.57 133.71 184.19 149.40 181.28 C 152.99 180.50 156.93 180.15 160.00 178.00 C 161.98 174.62 162.58 170.50 162.03 166.65 C 160.51 165.26 159.00 163.66 156.98 163.03 C 152.85 163.99 149.03 166.12 144.78 166.59 C 139.36 167.13 133.88 166.94 128.50 166.13 C 131.72 152.73 135.63 139.51 138.85 126.11 C 139.65 123.00 140.29 119.77 141.89 116.94 C 144.50 116.13 147.27 116.22 149.97 116.06 C 166.15 115.73 182.68 111.45 195.89 101.83 C 200.38 98.68 203.96 94.41 208.58 91.43 C 207.84 96.60 206.00 101.53 205.11 106.67 C 203.49 115.74 202.91 125.08 204.12 134.23 C 206.65 149.32 212.86 165.07 225.91 174.05 C 237.11 182.23 251.59 183.92 265.07 182.92 C 271.87 182.66 278.34 180.42 284.98 179.22 C 283.41 187.58 279.41 195.18 276.99 203.28 C 275.49 203.96 274.00 204.66 272.51 205.35 C 272.16 205.14 271.46 204.73 271.11 204.52 C 275.82 198.41 277.82 190.83 280.09 183.59 C 275.11 182.03 270.03 183.85 265.01 184.08 C 253.76 184.75 241.99 184.34 231.70 179.24 C 217.42 172.64 207.24 158.72 203.59 143.59 C 200.99 134.35 201.09 124.66 201.56 115.16 C 201.81 109.88 204.02 104.63 202.60 99.35 C 197.07 102.47 192.08 106.50 186.29 109.18 C 177.18 113.67 167.12 115.74 157.11 117.04 C 152.96 117.63 148.61 117.18 144.60 118.56 C 142.76 120.08 142.19 122.54 141.46 124.71 C 138.76 134.42 136.53 144.25 133.74 153.94 C 133.09 156.50 132.34 159.16 132.79 161.82 C 134.65 163.75 137.55 163.61 140.01 163.50 C 146.04 163.15 151.63 159.73 157.75 160.43 C 161.07 160.78 163.63 163.66 164.15 166.87 C 165.29 172.07 162.67 177.20 159.40 181.08 C 159.09 181.17 158.47 181.35 158.16 181.43 C 152.30 181.31 146.70 183.51 140.85 183.44 C 126.49 183.45 112.34 179.48 97.95 180.98 C 92.68 181.29 87.52 183.13 82.21 182.62 C 77.31 181.78 74.64 176.01 75.56 171.44 C 76.15 168.14 77.21 164.23 80.50 162.66 C 85.32 160.57 91.02 160.65 95.33 157.36 C 101.08 153.22 102.77 145.87 104.66 139.45 C 109.93 117.86 115.71 96.41 121.04 74.84 C 121.80 71.31 123.34 67.82 123.14 64.17 C 120.68 60.39 117.73 56.94 115.06 53.30 C 110.33 55.29 106.68 59.23 101.72 60.75 Z"
       id="path3615" />
    <path
       fill="#2a2a2a"
       stroke="#2a2a2a"
       stroke-width="0.09375"
       opacity="0.30"
       d=" M 326.52 134.39 C 328.54 133.62 330.76 133.67 332.88 133.41 C 330.49 135.14 327.07 136.04 326.00 139.09 C 323.54 145.20 322.87 151.83 320.88 158.09 C 317.34 169.49 314.90 181.27 310.11 192.26 C 308.21 197.25 305.63 201.98 303.96 207.06 C 303.13 209.23 304.07 211.45 304.78 213.50 C 303.87 215.00 303.04 216.54 302.19 218.07 C 303.06 214.15 303.61 210.09 302.77 206.11 C 304.04 200.77 306.67 195.90 308.57 190.79 C 314.25 175.95 318.13 160.52 321.92 145.12 C 323.03 141.41 323.79 137.31 326.52 134.39 Z"
       id="path3617" />
    <path
       fill="#2a2a2a"
       stroke="#2a2a2a"
       stroke-width="0.09375"
       opacity="0.30"
       d=" M 221.80 211.79 C 222.50 209.78 223.14 207.76 223.90 205.77 C 226.25 205.95 228.60 206.13 230.97 206.07 C 229.27 207.31 227.64 208.65 226.14 210.13 C 224.76 209.33 223.33 210.38 222.43 211.40 L 221.80 211.79 Z"
       id="path3619" />
  </g>
  <g
     id="#f8bb33ff">
    <path
       d="m 545.46,18.32 c 0.91,0.13 1.81,0.32 2.72,0.54 2.24,5.4 -0.16,10.89 -1.64,16.13 -0.34,-0.09 -0.67,-0.19 -1,-0.29 -1.43,8.12 -5.76,15.47 -6.2,23.8 -0.25,-0.37 -0.49,-0.74 -0.73,-1.1 -0.89,6.79 -3.39,13.19 -5.05,19.81 -0.18,-2.58 -0.14,-5.19 0.64,-7.68 -0.91,-1.03 -1.83,-2.06 -2.74,-3.08 2.67,-2.19 5.51,-4.75 4.91,-8.59 -5.61,0.42 -11.57,1.67 -16.79,-1.16 2.87,-5.01 9.09,-3.17 13.74,-2.79 2.11,0.55 3.88,-0.71 5.56,-1.81 -1.7,-1.49 -3.37,-3.44 -5.84,-3.38 -7.42,-0.45 -15.42,-0.76 -22.07,3.12 14.34484,-17.38313 14.68454,-14.599358 27.21,-25.6 1.11,-3.7 6.52,-4 7.28,-7.92 z"
       id="path3622"
       inkscape:connector-curvature="0"
       style="opacity:1;fill:#f8bb33;stroke:#f8bb33;stroke-width:0.09375"
       sodipodi:nodetypes="ccccccccccccccccc" />
    <path
       fill="#f8bb33"
       stroke="#f8bb33"
       stroke-width="0.09375"
       opacity="1.00"
       d=" M 129.95 29.75 C 135.79 28.31 141.77 27.49 147.75 26.85 C 152.39 27.33 157.03 28.08 161.72 27.79 C 167.09 27.50 173.14 27.97 177.28 31.78 C 179.80 34.76 176.80 37.86 174.85 40.08 C 159.30 34.34 142.09 37.03 126.71 42.00 C 129.18 37.99 133.98 35.83 135.49 31.21 C 133.65 30.69 131.81 30.15 129.95 29.75 Z"
       id="path3624" />
    <path
       fill="#f8bb33"
       stroke="#f8bb33"
       stroke-width="0.09375"
       opacity="1.00"
       d=" M 142.59 46.59 C 146.30 46.02 149.98 44.80 153.76 45.08 C 155.55 45.73 157.45 47.54 156.62 49.62 C 154.68 57.20 152.42 64.71 150.33 72.26 C 151.01 66.55 148.77 60.40 152.28 55.24 C 149.31 53.28 146.45 51.17 143.73 48.87 C 137.61 49.59 131.39 49.23 125.30 50.17 C 122.07 52.12 124.36 55.90 125.88 58.18 C 124.49 57.54 123.07 56.95 121.66 56.36 C 121.46 55.75 121.04 54.54 120.84 53.93 C 122.30 52.07 123.25 49.22 125.98 49.00 C 131.46 47.87 137.10 47.70 142.59 46.59 Z"
       id="path3626" />
    <path
       fill="#f8bb33"
       stroke="#f8bb33"
       stroke-width="0.09375"
       opacity="1.00"
       d=" M 192.40 49.65 C 197.54 49.28 203.02 49.27 207.86 51.22 C 211.51 54.14 212.40 59.19 214.37 63.24 C 215.52 72.02 211.58 80.39 206.72 87.44 C 206.54 84.55 207.26 81.18 205.33 78.74 C 200.62 76.83 195.45 75.40 190.35 75.49 C 187.76 77.16 185.78 79.57 183.75 81.84 C 185.00 79.24 185.98 76.53 186.99 73.82 C 187.47 72.64 187.93 71.44 188.33 70.22 C 190.44 65.06 190.14 59.43 190.25 53.97 C 190.36 52.37 190.21 49.81 192.40 49.65 Z"
       id="path3628" />
    <path
       fill="#f8bb33"
       stroke="#f8bb33"
       stroke-width="0.09375"
       opacity="1.00"
       d=" M 247.63 57.28 C 249.65 56.96 251.60 56.16 253.67 56.12 C 255.61 56.38 257.39 57.28 259.20 58.01 C 255.22 62.28 251.47 66.84 248.98 72.17 C 248.05 73.79 247.14 75.43 246.22 77.06 C 245.31 74.07 244.19 71.14 242.79 68.35 C 241.05 69.09 239.34 69.90 237.51 70.36 C 234.26 71.03 230.90 70.09 227.66 70.80 C 225.08 71.62 222.84 73.19 220.67 74.75 C 222.89 71.07 225.26 67.46 228.13 64.25 C 231.73 62.24 234.87 59.50 238.49 57.55 C 241.52 57.04 244.61 57.88 247.63 57.28 Z"
       id="path3630" />
    <path
       fill="#f8bb33"
       stroke="#f8bb33"
       stroke-width="0.09375"
       opacity="1.00"
       d=" M 332.81 79.51 C 335.07 78.98 337.40 79.06 339.70 79.16 C 339.28 79.49 338.44 80.14 338.02 80.47 C 336.33 80.65 334.60 80.41 333.02 79.83 L 332.81 79.51 Z"
       id="path3632" />
    <path
       fill="#f8bb33"
       stroke="#f8bb33"
       stroke-width="0.09375"
       opacity="1.00"
       d=" M 494.84 94.83 C 498.80 89.38 501.87 83.06 507.37 78.94 C 500.41 89.15 492.93 99.00 486.24 109.39 C 477.85 121.54 470.94 134.63 462.73 146.89 C 462.80 146.42 462.95 145.48 463.03 145.01 C 473.04 127.92 483.32 110.96 494.84 94.83 Z"
       id="path3634" />
    <path
       fill="#f8bb33"
       stroke="#f8bb33"
       stroke-width="0.09375"
       opacity="1.00"
       d=" M 512.68 125.70 C 515.37 125.50 518.05 125.86 520.54 126.93 C 519.24 128.13 517.91 129.29 516.57 130.44 C 514.71 138.64 516.80 147.62 512.94 155.35 C 512.50 145.49 512.33 135.58 512.68 125.70 Z"
       id="path3636" />
    <path
       fill="#f8bb33"
       stroke="#f8bb33"
       stroke-width="0.09375"
       opacity="1.00"
       d=" M 225.53 170.19 C 231.86 170.09 237.43 173.45 243.52 174.59 C 248.83 175.94 254.33 175.96 259.76 175.51 C 264.12 175.13 268.37 176.67 272.73 176.36 C 275.91 176.14 279.08 175.77 282.27 175.75 C 272.76 179.81 262.21 180.17 252.03 179.65 C 242.59 178.99 232.99 176.20 225.53 170.19 Z"
       id="path3638" />
    <path
       fill="#f8bb33"
       stroke="#f8bb33"
       stroke-width="0.09375"
       opacity="1.00"
       d=" M 278.64 202.55 C 282.45 194.58 284.68 186.00 287.63 177.71 C 287.92 181.22 287.37 184.91 288.57 188.28 C 292.70 189.68 297.25 190.14 301.55 189.36 C 305.05 188.18 306.99 184.67 309.25 181.99 C 309.20 182.73 309.10 184.21 309.05 184.95 C 306.41 189.76 304.36 194.85 302.97 200.16 C 302.52 201.33 302.09 202.50 301.66 203.68 C 299.46 203.39 297.26 202.98 295.04 203.02 C 292.31 203.06 289.94 204.80 287.24 204.92 C 284.42 203.95 281.65 202.75 278.64 202.55 Z"
       id="path3640" />
  </g>
  <g
     id="#95531df8">
    <path
       d="m 526.15,33.15 c 5.83,-5.65 12.04,-11.1 19.31,-14.83 -0.76,3.92 -6.17,4.22 -7.28,7.92 -5.73318,9.125067 -6.39115,5.554973 -14.14,11.88 -4.65,4.29 -9.09,8.79 -13.07,13.72 -4.29,4.78 -8.26,9.83 -12.1,14.98 -14.75,18.77 -27.48,39.01 -40.01,59.29 -0.66,-0.05 -1.96,-0.16 -2.61,-0.22 -0.65,-7.55 -1.19,-15.11 -1.72,-22.67 -0.08,-8.46 -1.28,-16.85 -1.82,-25.29 -0.88,-9.33 -1.37,-18.69 -2.18,-28.02 -0.71,-7.84 -1.25,-15.74 -0.66,-23.6 2.62,2.96 1.6,7.11 1.73,10.69 -0.35,7.37 0.69,14.68 1.14,22.01 1.15,13.98 2.25,27.97 3.31,41.96 0.81,7.38 0.93,14.85 2.31,22.16 3.94,-4.21 6.45,-9.45 9.55,-14.26 6.97,-11.22 14.37,-22.17 22.11,-32.88 11.07,-15.05 22.58,-29.91 36.13,-42.84 z"
       id="path3643"
       inkscape:connector-curvature="0"
       style="opacity:0.97000002;fill:#95531d;stroke:#95531d;stroke-width:0.09375"
       sodipodi:nodetypes="ccccccccccccccccccc" />
    <path
       fill="#95531d"
       stroke="#95531d"
       stroke-width="0.09375"
       opacity="0.97"
       d=" M 97.28 43.26 C 113.47 31.45 133.36 25.38 153.27 24.42 C 166.20 23.81 179.59 24.27 191.78 29.10 C 200.63 32.43 208.41 38.65 213.00 46.99 C 214.81 53.28 217.25 59.72 216.26 66.37 C 215.04 78.44 208.18 89.37 199.10 97.16 C 197.05 98.97 194.48 99.96 192.01 101.03 C 197.22 96.86 202.75 92.89 206.72 87.44 C 211.58 80.39 215.52 72.02 214.37 63.24 C 214.04 57.11 212.71 50.85 209.28 45.68 C 203.69 37.62 195.01 32.05 185.65 29.38 C 173.39 25.78 160.38 25.58 147.75 26.85 C 141.77 27.49 135.79 28.31 129.95 29.75 C 114.67 33.94 99.84 41.29 88.84 52.90 C 83.85 57.36 79.39 62.41 75.81 68.07 C 64.91 83.35 60.53 103.19 64.36 121.60 C 65.84 129.05 70.24 135.43 75.06 141.13 C 69.27 137.62 66.35 131.11 64.13 125.00 C 61.09 116.21 62.48 106.85 61.88 97.78 C 63.86 96.99 63.70 94.57 63.03 92.93 C 67.59 72.71 80.96 55.56 97.28 43.26 Z"
       id="path3645" />
    <path
       fill="#95531d"
       stroke="#95531d"
       stroke-width="0.09375"
       opacity="0.97"
       d=" M 245.12 45.10 C 260.42 33.71 278.52 24.39 297.99 24.20 C 313.73 23.88 328.43 30.45 343.93 32.04 C 346.40 32.13 347.96 34.14 349.44 35.85 C 346.66 48.12 343.12 60.35 342.73 73.01 C 342.56 75.06 342.77 77.23 342.00 79.18 C 341.08 80.42 339.36 80.24 338.02 80.47 C 338.44 80.14 339.28 79.49 339.70 79.16 C 340.00 78.89 340.60 78.36 340.90 78.09 C 342.08 73.61 341.56 68.92 342.22 64.37 C 343.06 55.94 345.39 47.78 347.41 39.59 C 348.40 36.39 344.94 34.15 342.17 33.88 C 335.41 32.81 328.67 31.59 322.11 29.64 C 313.85 27.78 305.47 25.94 296.96 26.18 C 286.70 26.23 276.69 29.27 267.45 33.55 C 252.28 40.67 238.51 51.02 228.13 64.25 C 225.26 67.46 222.89 71.07 220.67 74.75 C 213.56 85.80 209.34 98.42 206.96 111.28 C 207.01 99.29 212.44 88.44 216.91 77.62 C 224.07 65.08 233.59 53.85 245.12 45.10 Z"
       id="path3647" />
    <path
       fill="#95531d"
       stroke="#95531d"
       stroke-width="0.09375"
       opacity="0.97"
       d=" M 398.96 29.91 C 412.86 26.11 427.38 26.17 441.67 25.54 C 442.38 25.80 443.81 26.33 444.52 26.60 C 437.10 28.34 429.49 28.18 421.94 28.21 C 407.79 29.11 393.40 31.89 380.97 39.01 C 370.62 44.36 363.00 53.48 357.01 63.25 L 356.00 62.73 C 358.72 57.72 361.71 52.81 365.65 48.66 C 374.51 39.17 386.56 33.26 398.96 29.91 Z"
       id="path3649" />
    <path
       fill="#95531d"
       stroke="#95531d"
       stroke-width="0.09375"
       opacity="0.97"
       d=" M 259.20 58.01 C 270.38 46.39 285.55 37.44 301.98 36.82 C 309.11 36.33 316.14 38.82 321.85 43.01 C 325.71 46.78 328.79 51.47 330.06 56.76 C 331.61 62.82 330.93 69.13 331.17 75.31 C 330.96 76.93 332.01 78.22 332.81 79.51 L 333.02 79.83 C 331.72 79.34 330.44 78.81 329.16 78.29 L 329.18 77.38 C 331.03 69.67 330.75 61.45 328.11 53.96 C 324.64 44.64 315.04 37.93 305.03 38.30 C 293.11 37.48 281.90 42.74 272.10 49.00 C 262.62 54.72 255.85 63.70 248.98 72.17 C 251.47 66.84 255.22 62.28 259.20 58.01 Z"
       id="path3651" />
    <path
       fill="#95531d"
       stroke="#95531d"
       stroke-width="0.09375"
       opacity="0.97"
       d=" M 125.62 46.63 C 135.57 46.73 145.23 44.09 154.97 42.41 C 156.33 43.88 157.71 45.34 159.02 46.86 C 155.61 55.44 153.75 64.51 151.25 73.37 C 149.20 81.90 146.46 90.25 144.51 98.81 L 145.57 98.78 C 151.70 98.81 158.13 99.48 163.88 96.86 C 173.69 93.14 180.57 84.54 185.24 75.47 C 185.68 75.06 186.55 74.24 186.99 73.82 C 185.98 76.53 185.00 79.24 183.75 81.84 C 178.64 89.13 172.02 95.38 163.76 98.93 C 156.89 100.88 149.60 102.03 142.55 100.34 C 145.60 91.11 147.99 81.68 150.33 72.26 C 152.42 64.71 154.68 57.20 156.62 49.62 C 157.45 47.54 155.55 45.73 153.76 45.08 C 149.98 44.80 146.30 46.02 142.59 46.59 C 137.10 47.70 131.46 47.87 125.98 49.00 C 123.25 49.22 122.30 52.07 120.84 53.93 L 120.53 52.95 C 120.58 52.46 120.69 51.50 120.75 51.02 C 122.04 49.24 123.43 47.35 125.62 46.63 Z"
       id="path3653" />
    <path
       fill="#95531d"
       stroke="#95531d"
       stroke-width="0.09375"
       opacity="0.97"
       d=" M 368.08 70.13 C 371.09 61.64 377.20 54.19 385.08 49.77 C 381.75 53.87 377.59 57.17 374.17 61.17 C 370.59 65.70 367.67 71.49 368.75 77.41 C 370.12 83.46 374.87 87.81 377.81 93.07 C 378.52 96.43 379.04 100.13 377.13 103.22 C 376.76 99.70 377.23 95.83 375.23 92.72 C 373.01 89.00 370.17 85.71 367.92 82.01 C 366.80 78.14 366.61 73.95 368.08 70.13 Z"
       id="path3655" />
    <path
       fill="#95531d"
       stroke="#95531d"
       stroke-width="0.09375"
       opacity="0.97"
       d=" M 352.94 90.46 C 351.53 86.01 351.25 81.22 352.85 76.78 C 353.15 81.33 353.22 85.90 352.94 90.46 Z"
       id="path3657" />
    <path
       fill="#95531d"
       stroke="#95531d"
       stroke-width="0.09375"
       opacity="0.97"
       d=" M 278.71 119.82 C 279.66 117.87 282.13 118.21 283.93 117.88 C 297.96 117.18 312.00 118.45 326.04 118.12 C 328.47 118.12 331.00 118.15 333.26 119.18 C 331.85 119.43 330.45 119.72 329.03 119.88 C 312.82 120.80 296.55 118.90 280.34 120.28 C 279.76 122.62 279.13 124.95 278.48 127.28 C 278.34 124.79 278.47 122.30 278.71 119.82 Z"
       id="path3659" />
    <path
       fill="#95531d"
       stroke="#95531d"
       stroke-width="0.09375"
       opacity="0.97"
       d=" M 129.87 151.82 C 132.97 140.82 135.36 129.61 138.95 118.75 C 138.50 121.70 138.13 124.66 137.38 127.55 C 133.94 140.34 130.63 153.17 127.01 165.90 C 127.38 165.96 128.13 166.07 128.50 166.13 C 133.88 166.94 139.36 167.13 144.78 166.59 C 149.03 166.12 152.85 163.99 156.98 163.03 C 159.00 163.66 160.51 165.26 162.03 166.65 C 161.18 169.74 160.51 172.87 159.89 176.01 C 159.54 176.04 158.85 176.09 158.51 176.12 C 158.86 172.70 161.66 167.52 157.50 165.46 C 154.91 164.98 152.44 166.38 149.99 167.01 C 142.26 169.69 133.34 170.00 125.73 166.90 C 126.59 161.75 128.70 156.91 129.87 151.82 Z"
       id="path3661" />
    <path
       fill="#95531d"
       stroke="#95531d"
       stroke-width="0.09375"
       opacity="0.97"
       d=" M 334.21 119.96 C 334.90 120.62 335.58 121.31 336.24 122.01 C 335.66 125.11 335.05 128.21 334.40 131.29 C 331.58 131.40 328.76 131.53 325.95 131.68 C 320.97 140.42 319.72 150.55 316.96 160.08 C 314.57 168.45 312.40 176.91 309.05 184.95 C 309.10 184.21 309.20 182.73 309.25 181.99 C 312.88 170.04 316.99 158.16 319.09 145.81 C 321.04 140.90 322.01 135.41 325.34 131.19 C 327.94 129.76 331.02 129.89 333.88 129.53 C 334.24 126.35 334.42 123.15 334.21 119.96 Z"
       id="path3663" />
    <path
       fill="#95531d"
       stroke="#95531d"
       stroke-width="0.09375"
       opacity="0.97"
       d=" M 236.73 149.34 C 237.38 149.43 238.67 149.60 239.31 149.69 C 244.08 156.61 250.95 162.72 259.41 164.42 C 269.66 165.72 280.50 164.58 289.70 159.62 C 292.21 158.57 292.42 155.58 293.31 153.36 C 293.92 152.53 294.54 151.70 295.17 150.87 C 294.18 154.29 294.55 159.07 290.76 160.80 C 283.16 164.81 274.56 166.87 265.99 167.14 C 253.88 167.28 242.48 159.81 236.73 149.34 Z"
       id="path3665" />
    <path
       fill="#95531d"
       stroke="#95531d"
       stroke-width="0.09375"
       opacity="0.97"
       d=" M 209.83 150.10 C 210.10 150.63 210.64 151.69 210.91 152.23 C 210.64 151.69 210.10 150.63 209.83 150.10 Z"
       id="path3667" />
    <path
       fill="#95531d"
       stroke="#95531d"
       stroke-width="0.09375"
       opacity="0.97"
       d=" M 369.01 162.85 C 375.07 162.96 379.20 157.97 383.99 155.07 L 385.04 154.75 C 382.19 158.74 378.06 161.45 373.92 163.92 C 366.21 166.89 358.70 162.23 351.01 161.98 C 345.66 161.52 340.48 165.75 339.76 171.04 C 339.44 173.77 340.29 176.45 340.84 179.09 C 339.01 176.71 338.21 173.77 337.72 170.85 C 339.37 166.00 343.11 161.36 348.41 160.48 C 355.43 159.31 362.00 163.35 369.01 162.85 Z"
       id="path3669" />
    <path
       fill="#95531d"
       stroke="#95531d"
       stroke-width="0.09375"
       opacity="0.97"
       d=" M 512.13 163.34 C 512.59 163.50 513.52 163.82 513.99 163.97 C 521.03 166.80 528.68 165.57 536.04 165.65 C 538.60 165.34 540.32 167.55 542.04 169.07 C 541.17 172.51 540.44 176.00 539.74 179.48 C 539.31 179.44 538.43 179.34 538.00 179.30 C 538.88 176.17 540.26 172.88 539.42 169.60 C 537.28 166.41 533.19 167.71 530.05 167.87 C 523.85 168.64 517.73 167.16 511.66 166.15 C 511.78 165.45 512.01 164.04 512.13 163.34 Z"
       id="path3671" />
    <path
       fill="#95531d"
       stroke="#95531d"
       stroke-width="0.09375"
       opacity="0.97"
       d=" M 302.97 200.16 C 304.36 194.85 306.41 189.76 309.05 184.95 C 307.74 190.29 305.69 195.39 302.97 200.16 Z"
       id="path3673" />
    <path
       fill="#95531d"
       stroke="#95531d"
       stroke-width="0.09375"
       opacity="0.97"
       d=" M 222.43 211.40 C 223.33 210.38 224.76 209.33 226.14 210.13 C 225.38 211.22 224.34 211.78 223.03 211.80 L 222.43 211.40 Z"
       id="path3675" />
  </g>
  <g
     id="#3a231bd8">
    <path
       fill="#3a231b"
       stroke="#3a231b"
       stroke-width="0.09375"
       opacity="0.85"
       d=" M 548.18 18.86 C 549.47 20.06 551.76 20.98 551.54 23.06 C 551.09 27.25 549.04 31.04 547.82 35.03 C 537.46 67.69 529.42 101.01 520.85 134.17 C 518.48 144.08 515.59 153.89 513.99 163.97 C 513.52 163.82 512.59 163.50 512.13 163.34 C 512.01 164.04 511.78 165.45 511.66 166.15 L 510.76 165.97 C 509.92 161.69 510.34 157.32 510.30 152.99 C 510.30 143.15 510.49 133.31 510.18 123.47 C 513.35 123.66 516.53 123.74 519.71 123.73 C 520.05 121.16 520.35 118.58 520.79 116.03 C 521.38 116.19 522.55 116.53 523.13 116.69 C 523.97 113.41 524.79 110.12 525.53 106.82 C 525.83 106.89 526.14 106.96 526.45 107.03 C 527.54 100.58 529.51 94.29 530.17 87.76 C 530.24 87.44 530.39 86.82 530.47 86.50 C 530.80 86.67 531.14 86.84 531.49 87.01 C 532.15 83.74 532.95 80.49 533.56 77.21 C 535.22 70.59 537.72 64.19 538.61 57.40 C 538.85 57.76 539.09 58.13 539.34 58.50 C 539.78 50.17 544.11 42.82 545.54 34.70 C 545.87 34.80 546.20 34.90 546.54 34.99 C 548.02 29.75 550.42 24.26 548.18 18.86 M 512.68 125.70 C 512.33 135.58 512.50 145.49 512.94 155.35 C 516.80 147.62 514.71 138.64 516.57 130.44 C 517.91 129.29 519.24 128.13 520.54 126.93 C 518.05 125.86 515.37 125.50 512.68 125.70 Z"
       id="path3678" />
    <path
       fill="#3a231b"
       stroke="#3a231b"
       stroke-width="0.09375"
       opacity="0.85"
       d=" M 349.44 35.85 C 350.31 42.02 347.63 47.85 346.58 53.81 C 345.00 62.27 343.40 70.81 343.71 79.45 C 342.18 81.24 340.55 82.99 338.44 84.09 C 334.71 83.50 329.34 83.24 329.16 78.29 C 330.44 78.81 331.72 79.34 333.02 79.83 C 334.60 80.41 336.33 80.65 338.02 80.47 C 339.36 80.24 341.08 80.42 342.00 79.18 C 342.77 77.23 342.56 75.06 342.73 73.01 C 343.12 60.35 346.66 48.12 349.44 35.85 Z"
       id="path3680" />
    <path
       fill="#3a231b"
       stroke="#3a231b"
       stroke-width="0.09375"
       opacity="0.85"
       d=" M 126.71 42.00 C 142.09 37.03 159.30 34.34 174.85 40.08 C 180.77 42.62 184.92 47.92 187.54 53.64 C 189.46 58.93 188.74 64.73 188.33 70.22 C 187.93 71.44 187.47 72.64 186.99 73.82 C 186.55 74.24 185.68 75.06 185.24 75.47 C 186.56 68.31 188.93 60.50 185.47 53.55 C 181.40 45.20 171.82 41.41 163.03 40.73 C 150.36 39.87 137.27 41.34 125.62 46.63 C 123.43 47.35 122.04 49.24 120.75 51.02 C 120.74 50.53 120.73 49.55 120.72 49.06 C 113.40 50.95 107.39 55.98 101.72 60.75 C 101.48 60.96 100.98 61.38 100.74 61.58 C 89.59 70.29 81.62 83.03 78.64 96.85 C 77.34 102.58 78.13 108.47 78.28 114.27 C 77.69 113.25 77.19 112.20 76.76 111.11 C 74.43 99.45 77.90 87.27 84.29 77.46 C 86.71 73.85 88.86 70.06 91.48 66.59 C 94.64 63.16 97.80 59.71 101.28 56.60 C 109.00 50.49 117.77 46.00 126.71 42.00 Z"
       id="path3682" />
    <path
       fill="#3a231b"
       stroke="#3a231b"
       stroke-width="0.09375"
       opacity="0.85"
       d=" M 272.10 49.00 C 281.90 42.74 293.11 37.48 305.03 38.30 C 315.04 37.93 324.64 44.64 328.11 53.96 C 330.75 61.45 331.03 69.67 329.18 77.38 C 329.16 68.50 330.07 58.82 325.13 50.94 C 320.62 43.48 311.43 40.06 303.01 40.42 C 292.09 40.33 281.81 44.90 272.85 50.78 C 248.81 67.58 233.96 96.67 234.54 126.00 C 234.60 134.09 235.67 142.36 239.31 149.69 C 238.67 149.60 237.38 149.43 236.73 149.34 C 235.70 144.80 234.03 140.41 233.34 135.80 C 232.30 129.11 232.59 122.32 232.66 115.57 C 233.82 108.79 234.85 101.89 237.47 95.47 C 240.06 89.19 242.72 82.91 246.22 77.06 C 247.14 75.43 248.05 73.79 248.98 72.17 C 255.85 63.70 262.62 54.72 272.10 49.00 Z"
       id="path3684" />
    <path
       fill="#3a231b"
       stroke="#3a231b"
       stroke-width="0.09375"
       opacity="0.85"
       d=" M 405.73 41.61 C 410.69 40.61 415.87 39.61 420.88 40.88 C 420.91 55.82 417.45 70.45 414.74 85.07 C 409.94 105.24 404.37 125.54 393.84 143.59 C 391.06 147.42 388.38 151.37 385.04 154.75 L 383.99 155.07 C 387.22 149.40 391.56 144.45 394.66 138.70 C 401.20 126.96 405.42 114.09 408.90 101.15 C 413.92 82.41 417.57 63.23 418.81 43.85 C 403.98 43.48 389.09 49.16 378.06 59.05 C 372.80 63.78 370.10 70.61 368.75 77.41 C 367.67 71.49 370.59 65.70 374.17 61.17 C 377.59 57.17 381.75 53.87 385.08 49.77 C 391.34 45.71 398.44 43.11 405.73 41.61 Z"
       id="path3686" />
    <path
       fill="#3a231b"
       stroke="#3a231b"
       stroke-width="0.09375"
       opacity="0.85"
       d=" M 159.02 46.86 C 159.22 48.50 159.12 50.18 158.64 51.76 C 153.66 67.25 150.27 83.21 145.57 98.78 L 144.51 98.81 C 146.46 90.25 149.20 81.90 151.25 73.37 C 153.75 64.51 155.61 55.44 159.02 46.86 Z"
       id="path3688" />
    <path
       fill="#3a231b"
       stroke="#3a231b"
       stroke-width="0.09375"
       opacity="0.85"
       d=" M 213.00 46.99 C 216.25 51.65 217.66 57.36 217.57 63.00 C 217.60 67.89 215.71 72.74 216.91 77.62 C 212.44 88.44 207.01 99.29 206.96 111.28 C 206.41 115.97 206.20 120.69 206.35 125.41 C 206.33 127.16 206.35 128.91 206.46 130.66 C 206.48 137.29 208.10 143.74 209.83 150.10 C 210.10 150.63 210.64 151.69 210.91 152.23 C 214.19 159.33 219.47 165.32 225.53 170.19 C 232.99 176.20 242.59 178.99 252.03 179.65 C 262.21 180.17 272.76 179.81 282.27 175.75 C 284.07 175.65 285.87 175.70 287.68 175.79 C 287.67 176.27 287.64 177.23 287.63 177.71 C 284.68 186.00 282.45 194.58 278.64 202.55 C 278.23 202.73 277.40 203.10 276.99 203.28 C 279.41 195.18 283.41 187.58 284.98 179.22 C 278.34 180.42 271.87 182.66 265.07 182.92 C 251.59 183.92 237.11 182.23 225.91 174.05 C 212.86 165.07 206.65 149.32 204.12 134.23 C 202.91 125.08 203.49 115.74 205.11 106.67 C 206.00 101.53 207.84 96.60 208.58 91.43 C 203.96 94.41 200.38 98.68 195.89 101.83 C 182.68 111.45 166.15 115.73 149.97 116.06 C 147.27 116.22 144.50 116.13 141.89 116.94 C 140.29 119.77 139.65 123.00 138.85 126.11 C 135.63 139.51 131.72 152.73 128.50 166.13 C 128.13 166.07 127.38 165.96 127.01 165.90 C 130.63 153.17 133.94 140.34 137.38 127.55 C 138.13 124.66 138.50 121.70 138.95 118.75 C 139.30 117.04 139.62 115.33 139.90 113.61 C 146.53 112.18 153.41 113.39 160.07 112.14 C 171.13 110.81 181.67 106.80 191.33 101.37 L 192.01 101.03 C 194.48 99.96 197.05 98.97 199.10 97.16 C 208.18 89.37 215.04 78.44 216.26 66.37 C 217.25 59.72 214.81 53.28 213.00 46.99 Z"
       id="path3690" />
    <path
       fill="#3a231b"
       stroke="#3a231b"
       stroke-width="0.09375"
       opacity="0.85"
       d=" M 120.84 58.09 C 119.68 56.59 120.44 54.64 120.53 52.95 L 120.84 53.93 C 121.04 54.54 121.46 55.75 121.66 56.36 C 123.07 56.95 124.49 57.54 125.88 58.18 C 126.86 58.93 127.84 59.69 128.82 60.45 C 128.76 65.68 127.44 70.77 126.00 75.76 C 119.96 99.69 114.02 123.63 107.84 147.52 C 105.64 152.43 103.68 157.83 99.49 161.44 C 94.22 165.21 87.50 165.56 81.44 167.29 C 80.95 170.38 79.95 173.48 80.31 176.64 C 81.46 177.95 83.18 178.86 84.95 178.32 C 93.53 176.82 102.25 175.37 110.99 176.16 C 122.30 177.16 133.59 179.57 144.98 178.58 C 149.57 178.19 153.92 176.49 158.51 176.12 C 158.85 176.09 159.54 176.04 159.89 176.01 C 160.51 172.87 161.18 169.74 162.03 166.65 C 162.58 170.50 161.98 174.62 160.00 178.00 C 156.93 180.15 152.99 180.50 149.40 181.28 C 133.71 184.19 118.14 178.57 102.42 179.39 C 96.49 179.44 90.72 180.92 84.86 181.56 C 82.37 181.98 79.75 180.75 78.55 178.52 C 77.68 174.35 79.19 170.17 80.11 166.14 C 86.19 164.23 93.06 164.12 98.43 160.37 C 104.39 155.07 106.26 146.88 108.25 139.49 C 114.11 116.32 119.84 93.12 125.77 69.96 C 126.38 67.35 126.55 64.66 126.63 61.98 C 124.61 60.86 122.28 60.00 120.84 58.09 Z"
       id="path3692" />
    <path
       fill="#3a231b"
       stroke="#3a231b"
       stroke-width="0.09375"
       opacity="0.85"
       d=" M 351.11 88.96 C 349.89 80.03 351.26 70.50 356.00 62.73 L 357.01 63.25 C 356.45 64.79 355.90 66.33 355.38 67.87 C 354.39 70.80 353.59 73.78 352.85 76.78 C 351.25 81.22 351.53 86.01 352.94 90.46 C 354.23 96.57 357.38 102.94 363.18 105.87 C 367.85 108.11 373.37 106.47 377.13 103.22 C 379.04 100.13 378.52 96.43 377.81 93.07 C 381.19 97.83 379.11 103.72 375.99 107.98 C 373.99 109.34 371.73 110.25 369.46 111.00 C 366.18 109.98 362.51 109.53 359.88 107.13 C 354.50 102.65 352.07 95.69 351.11 88.96 Z"
       id="path3694" />
    <path
       fill="#3a231b"
       stroke="#3a231b"
       stroke-width="0.09375"
       opacity="0.85"
       d=" M 518.33 71.42 C 519.48 71.37 520.63 71.32 521.80 71.27 C 520.79 73.39 519.41 75.49 519.52 77.93 C 519.52 87.04 519.79 96.15 519.58 105.27 C 514.36 108.42 512.19 114.70 512.06 120.52 C 510.52 120.72 508.98 120.93 507.45 121.15 C 507.45 123.78 507.47 126.42 507.89 129.03 C 507.10 129.73 506.31 130.43 505.52 131.12 C 505.35 127.26 505.39 123.39 505.42 119.53 C 507.03 119.08 508.65 118.63 510.27 118.16 C 509.80 112.29 513.32 107.17 517.19 103.12 C 518.43 99.55 518.18 95.71 518.22 91.99 C 518.15 85.13 518.30 78.27 518.33 71.42 Z"
       id="path3696" />
    <path
       fill="#3a231b"
       stroke="#3a231b"
       stroke-width="0.09375"
       opacity="0.85"
       d=" M 507.37 78.94 C 507.69 78.70 508.33 78.21 508.65 77.97 C 508.59 83.47 506.61 88.67 505.49 93.99 C 499.66 115.17 494.89 136.63 488.53 157.67 C 486.56 163.57 484.70 169.51 482.36 175.27 C 485.84 178.76 490.54 176.70 494.67 175.86 C 502.15 175.78 509.56 176.92 516.92 178.11 C 523.89 179.33 530.99 178.51 538.00 179.30 C 538.43 179.34 539.31 179.44 539.74 179.48 C 540.44 176.00 541.17 172.51 542.04 169.07 C 542.92 173.28 541.32 177.42 540.34 181.46 C 523.30 185.10 506.38 176.77 489.38 180.33 C 485.88 181.46 482.21 179.33 481.18 175.88 C 481.48 171.98 483.39 168.46 484.56 164.78 C 491.02 144.91 495.63 124.51 501.03 104.34 C 502.49 98.52 504.40 92.76 504.67 86.72 C 500.70 90.55 498.01 95.41 494.81 99.85 C 477.46 124.78 462.40 151.20 447.62 177.71 C 446.40 179.40 445.33 182.04 442.86 181.88 C 440.55 182.00 436.67 181.93 436.63 178.78 C 435.64 165.60 434.72 152.39 433.65 139.21 C 433.22 134.08 433.13 128.93 433.59 123.81 C 434.66 128.14 434.93 132.61 435.41 137.03 C 436.08 144.23 436.44 151.45 437.26 158.63 C 437.63 164.94 437.50 171.33 438.66 177.57 C 439.95 179.23 442.66 178.98 444.58 179.71 C 445.74 177.46 446.95 175.23 448.10 172.97 C 453.08 164.33 458.26 155.81 462.73 146.89 C 470.94 134.63 477.85 121.54 486.24 109.39 C 492.93 99.00 500.41 89.15 507.37 78.94 Z"
       id="path3698" />
    <path
       fill="#3a231b"
       stroke="#3a231b"
       stroke-width="0.09375"
       opacity="0.85"
       d=" M 427.42 91.84 C 428.09 88.41 428.71 84.82 430.91 81.98 C 431.78 87.95 431.84 94.01 432.48 100.00 C 432.67 107.68 434.23 115.30 433.48 123.00 C 430.61 113.15 432.28 102.67 429.70 92.77 C 427.24 97.58 426.42 102.97 424.96 108.12 C 419.07 128.07 411.93 148.27 398.48 164.51 C 388.43 177.72 372.78 186.98 355.99 187.45 C 352.13 187.44 348.23 186.70 344.74 185.05 C 339.57 182.58 336.35 176.51 337.72 170.85 C 338.21 173.77 339.01 176.71 340.84 179.09 C 347.56 184.69 356.81 184.60 364.92 182.85 C 374.48 180.70 383.43 175.95 390.48 169.13 C 392.73 167.28 394.88 165.31 396.77 163.10 C 407.76 151.50 413.96 136.34 419.18 121.48 C 422.33 111.72 425.46 101.92 427.42 91.84 Z"
       id="path3700" />
    <path
       fill="#3a231b"
       stroke="#3a231b"
       stroke-width="0.09375"
       opacity="0.85"
       d=" M 61.88 97.78 C 61.61 96.06 62.07 94.36 63.03 92.93 C 63.70 94.57 63.86 96.99 61.88 97.78 Z"
       id="path3702" />
    <path
       fill="#3a231b"
       stroke="#3a231b"
       stroke-width="0.09375"
       opacity="0.85"
       d=" M 65.75 132.33 C 60.12 121.77 60.50 109.32 61.88 97.78 C 62.48 106.85 61.09 116.21 64.13 125.00 C 66.35 131.11 69.27 137.62 75.06 141.13 C 76.82 142.32 78.69 143.37 80.70 144.09 C 83.46 145.30 86.54 145.20 89.39 144.37 L 90.22 144.14 C 92.59 143.36 95.13 141.84 95.19 139.03 C 94.97 135.73 93.88 132.56 92.96 129.41 C 96.79 132.84 98.05 138.79 95.13 143.20 C 91.38 149.20 82.58 149.57 77.12 145.76 C 72.36 142.27 68.43 137.60 65.75 132.33 Z"
       id="path3704" />
    <path
       fill="#3a231b"
       stroke="#3a231b"
       stroke-width="0.09375"
       opacity="0.85"
       d=" M 279.87 131.06 C 275.93 128.57 277.15 123.37 278.71 119.82 C 278.47 122.30 278.34 124.79 278.48 127.28 C 278.86 127.45 279.62 127.79 280.00 127.95 C 284.16 129.98 288.89 128.45 293.31 128.65 C 295.11 129.15 296.57 130.49 297.51 132.08 C 298.51 136.57 297.37 141.17 296.72 145.64 C 296.23 147.39 295.70 149.13 295.17 150.87 C 294.54 151.70 293.92 152.53 293.31 153.36 C 293.82 148.44 295.07 143.65 295.96 138.79 C 296.18 136.78 296.84 134.43 295.41 132.71 C 290.51 130.45 284.80 132.88 279.87 131.06 Z"
       id="path3706" />
    <path
       fill="#3a231b"
       stroke="#3a231b"
       stroke-width="0.09375"
       opacity="0.85"
       d=" M 336.24 122.01 C 336.78 125.28 336.34 128.61 335.71 131.83 C 334.98 132.69 334.09 133.51 332.88 133.41 C 330.76 133.67 328.54 133.62 326.52 134.39 C 323.79 137.31 323.03 141.41 321.92 145.12 C 318.13 160.52 314.25 175.95 308.57 190.79 C 306.67 195.90 304.04 200.77 302.77 206.11 C 302.49 205.50 301.94 204.28 301.66 203.68 C 302.09 202.50 302.52 201.33 302.97 200.16 C 305.69 195.39 307.74 190.29 309.05 184.95 C 312.40 176.91 314.57 168.45 316.96 160.08 C 319.72 150.55 320.97 140.42 325.95 131.68 C 328.76 131.53 331.58 131.40 334.40 131.29 C 335.05 128.21 335.66 125.11 336.24 122.01 Z"
       id="path3708" />
  </g>
  <g
     id="#f2af1fff">
    <path
       fill="#f2af1f"
       stroke="#f2af1f"
       stroke-width="0.09375"
       opacity="1.00"
       d=" M 441.67 25.54 C 444.41 25.46 447.38 24.77 449.87 26.31 C 449.28 34.17 449.82 42.07 450.53 49.91 C 451.34 59.24 451.83 68.60 452.71 77.93 C 453.25 86.37 454.45 94.76 454.53 103.22 C 453.34 95.95 452.80 88.60 452.16 81.27 C 451.44 65.15 448.00 49.15 448.98 32.97 C 448.81 31.35 448.70 29.67 448.03 28.15 C 446.92 27.50 445.71 27.05 444.52 26.60 C 443.81 26.33 442.38 25.80 441.67 25.54 Z"
       id="path3711" />
    <path
       fill="#f2af1f"
       stroke="#f2af1f"
       stroke-width="0.09375"
       opacity="1.00"
       d=" M 147.75 26.85 C 160.38 25.58 173.39 25.78 185.65 29.38 C 195.01 32.05 203.69 37.62 209.28 45.68 C 212.71 50.85 214.04 57.11 214.37 63.24 C 212.40 59.19 211.51 54.14 207.86 51.22 C 203.02 49.27 197.54 49.28 192.40 49.65 C 190.21 49.81 190.36 52.37 190.25 53.97 C 190.14 59.43 190.44 65.06 188.33 70.22 C 188.74 64.73 189.46 58.93 187.54 53.64 C 184.92 47.92 180.77 42.62 174.85 40.08 C 176.80 37.86 179.80 34.76 177.28 31.78 C 173.14 27.97 167.09 27.50 161.72 27.79 C 157.03 28.08 152.39 27.33 147.75 26.85 Z"
       id="path3713" />
    <path
       fill="#f2af1f"
       stroke="#f2af1f"
       stroke-width="0.09375"
       opacity="1.00"
       d=" M 267.45 33.55 C 276.69 29.27 286.70 26.23 296.96 26.18 C 305.47 25.94 313.85 27.78 322.11 29.64 C 321.00 30.50 319.89 31.35 318.88 32.31 C 319.19 35.18 322.02 36.82 323.77 38.85 C 323.13 40.24 322.49 41.63 321.85 43.01 C 316.14 38.82 309.11 36.33 301.98 36.82 C 285.55 37.44 270.38 46.39 259.20 58.01 C 257.39 57.28 255.61 56.38 253.67 56.12 C 251.60 56.16 249.65 56.96 247.63 57.28 C 244.61 57.88 241.52 57.04 238.49 57.55 C 234.87 59.50 231.73 62.24 228.13 64.25 C 238.51 51.02 252.28 40.67 267.45 33.55 Z"
       id="path3715" />
    <path
       fill="#f2af1f"
       stroke="#f2af1f"
       stroke-width="0.09375"
       opacity="1.00"
       d=" M 425.42 95.69 C 426.65 90.14 427.47 84.26 430.85 79.50 C 432.38 84.50 432.62 89.75 432.96 94.93 C 433.61 107.23 434.74 119.50 435.53 131.79 C 435.50 133.54 435.42 135.28 435.41 137.03 C 434.93 132.61 434.66 128.14 433.59 123.81 L 433.48 123.00 C 434.23 115.30 432.67 107.68 432.48 100.00 C 431.84 94.01 431.78 87.95 430.91 81.98 C 428.71 84.82 428.09 88.41 427.42 91.84 C 425.46 101.92 422.33 111.72 419.18 121.48 C 413.96 136.34 407.76 151.50 396.77 163.10 C 400.02 156.70 405.08 151.43 407.97 144.84 C 411.16 139.22 413.93 133.34 415.87 127.16 C 418.02 122.28 419.66 117.22 421.00 112.06 C 422.86 106.72 424.28 101.23 425.42 95.69 Z"
       id="path3719" />
    <path
       fill="#f2af1f"
       stroke="#f2af1f"
       stroke-width="0.09375"
       opacity="1.00"
       d=" M 522.62 103.90 C 523.59 97.92 527.03 92.80 530.17 87.76 C 529.51 94.29 527.54 100.58 526.45 107.03 C 526.14 106.96 525.83 106.89 525.53 106.82 C 524.79 110.12 523.97 113.41 523.13 116.69 C 522.55 116.53 521.38 116.19 520.79 116.03 C 521.58 112.01 521.93 107.93 522.62 103.90 Z"
       id="path3721" />
    <path
       fill="#f2af1f"
       stroke="#f2af1f"
       stroke-width="0.09375"
       opacity="1.00"
       d=" M 77.68 117.36 C 74.45 111.74 74.85 104.97 75.47 98.75 C 75.77 102.88 75.89 107.05 76.76 111.11 C 77.19 112.20 77.69 113.25 78.28 114.27 C 81.81 120.52 88.28 124.17 92.96 129.41 C 93.88 132.56 94.97 135.73 95.19 139.03 C 95.13 141.84 92.59 143.36 90.22 144.14 C 91.45 142.75 92.80 141.38 93.52 139.64 C 94.16 136.09 92.48 132.50 90.14 129.89 C 86.18 125.52 80.62 122.64 77.68 117.36 Z"
       id="path3723" />
    <path
       fill="#f2af1f"
       stroke="#f2af1f"
       stroke-width="0.09375"
       opacity="1.00"
       d=" M 232.30 136.79 C 231.45 129.75 231.00 122.53 232.66 115.57 C 232.59 122.32 232.30 129.11 233.34 135.80 C 234.03 140.41 235.70 144.80 236.73 149.34 C 234.31 145.56 232.83 141.24 232.30 136.79 Z"
       id="path3725" />
    <path
       fill="#f2af1f"
       stroke="#f2af1f"
       stroke-width="0.09375"
       opacity="1.00"
       d=" M 280.00 127.95 C 284.43 128.02 288.97 127.40 293.31 128.65 C 288.89 128.45 284.16 129.98 280.00 127.95 Z"
       id="path3727" />
    <path
       fill="#f2af1f"
       stroke="#f2af1f"
       stroke-width="0.09375"
       opacity="1.00"
       d=" M 80.70 144.09 C 83.59 144.24 86.49 144.32 89.39 144.37 C 86.54 145.20 83.46 145.30 80.70 144.09 Z"
       id="path3729" />
  </g>
  <g
     id="#fed452ff">
    <path
       d=" M 421.94 28.21 C 429.49 28.18 437.10 28.34 444.52 26.60 C 445.71 27.05 446.92 27.50 448.03 28.15 C 448.70 29.67 448.81 31.35 448.98 32.97 C 447.90 30.89 446.24 28.78 443.64 28.94 C 436.38 28.81 429.20 30.23 421.98 30.71 C 420.50 32.68 419.41 35.73 416.51 35.73 C 411.32 36.16 406.15 35.06 400.97 35.24 C 394.11 35.19 387.54 37.36 380.97 39.01 C 393.40 31.89 407.79 29.11 421.94 28.21 Z"
       id="path3732"
       stroke-width="0.09375"
       stroke="#fed452"
       fill="#fed452"
       opacity="1.00" />
    <path
       d=" M 88.84 52.90 C 99.84 41.29 114.67 33.94 129.95 29.75 C 131.81 30.15 133.65 30.69 135.49 31.21 C 133.98 35.83 129.18 37.99 126.71 42.00 C 117.77 46.00 109.00 50.49 101.28 56.60 C 101.50 53.58 101.87 50.57 102.35 47.57 C 105.69 47.64 109.05 47.42 112.26 46.44 C 107.68 45.80 102.77 45.47 98.46 47.49 C 95.13 49.07 92.01 51.03 88.84 52.90 Z"
       id="path3734"
       stroke-width="0.09375"
       stroke="#fed452"
       fill="#fed452"
       opacity="1.00" />
    <path
       d=" M 318.88 32.31 C 319.89 31.35 321.00 30.50 322.11 29.64 C 328.67 31.59 335.41 32.81 342.17 33.88 C 344.94 34.15 348.40 36.39 347.41 39.59 C 345.39 47.78 343.06 55.94 342.22 64.37 C 341.56 68.92 342.08 73.61 340.90 78.09 C 340.76 72.03 340.74 65.94 339.90 59.93 C 337.80 60.04 335.65 59.96 333.65 60.64 C 331.98 65.33 332.31 70.47 331.17 75.31 C 330.93 69.13 331.61 62.82 330.06 56.76 C 328.79 51.47 325.71 46.78 321.85 43.01 C 322.49 41.63 323.13 40.24 323.77 38.85 C 322.02 36.82 319.19 35.18 318.88 32.31 Z"
       id="path3736"
       stroke-width="0.09375"
       stroke="#fed452"
       fill="#fed452"
       opacity="1.00" />
    <path
       d=" M 125.30 50.17 C 131.39 49.23 137.61 49.59 143.73 48.87 C 146.45 51.17 149.31 53.28 152.28 55.24 C 148.77 60.40 151.01 66.55 150.33 72.26 C 147.99 81.68 145.60 91.11 142.55 100.34 C 142.28 99.83 141.74 98.82 141.47 98.31 C 142.79 94.22 144.20 89.97 143.34 85.61 C 141.69 85.59 140.04 85.57 138.40 85.54 C 138.37 82.89 138.34 80.24 138.35 77.59 C 134.61 75.35 130.23 73.95 126.00 75.76 C 127.44 70.77 128.76 65.68 128.82 60.45 C 127.84 59.69 126.86 58.93 125.88 58.18 C 124.36 55.90 122.07 52.12 125.30 50.17 Z"
       id="path3738"
       stroke-width="0.09375"
       stroke="#fed452"
       fill="#fed452"
       opacity="1.00" />
    <path
       d=" M 510.97 51.84 C 517.62 47.96 525.62 48.27 533.04 48.72 C 535.51 48.66 537.18 50.61 538.88 52.10 C 537.20 53.20 535.43 54.46 533.32 53.91 C 528.67 53.53 522.45 51.69 519.58 56.70 C 524.80 59.53 530.76 58.28 536.37 57.86 C 536.97 61.70 534.13 64.26 531.46 66.45 C 532.37 67.47 533.29 68.50 534.20 69.53 C 533.42 72.02 533.38 74.63 533.56 77.21 C 532.95 80.49 532.15 83.74 531.49 87.01 C 531.14 86.84 530.80 86.67 530.47 86.50 C 530.39 86.82 530.24 87.44 530.17 87.76 C 527.03 92.80 523.59 97.92 522.62 103.90 C 521.93 107.93 521.58 112.01 520.79 116.03 C 520.35 118.58 520.05 121.16 519.71 123.73 C 516.53 123.74 513.35 123.66 510.18 123.47 C 512.98 122.87 515.84 122.67 518.71 122.67 C 518.77 117.57 519.48 112.52 520.39 107.52 C 520.19 106.95 519.78 105.83 519.58 105.27 C 519.79 96.15 519.52 87.04 519.52 77.93 C 519.41 75.49 520.79 73.39 521.80 71.27 C 520.63 71.32 519.48 71.37 518.33 71.42 C 518.30 78.27 518.15 85.13 518.22 91.99 C 518.18 95.71 518.43 99.55 517.19 103.12 C 516.74 98.11 516.75 93.07 516.75 88.04 C 516.65 82.14 516.59 76.24 517.06 70.35 C 519.11 70.09 521.17 69.82 523.24 69.56 C 518.70 68.93 514.52 66.87 511.98 62.92 C 510.84 63.04 509.71 63.17 508.59 63.31 C 505.13 63.70 501.79 64.92 498.87 66.82 C 502.71 61.67 506.68 56.62 510.97 51.84 Z"
       id="path3740"
       stroke-width="0.09375"
       stroke="#fed452"
       fill="#fed452"
       opacity="1.00" />
    <path
       d=" M 237.51 70.36 C 239.34 69.90 241.05 69.09 242.79 68.35 C 244.19 71.14 245.31 74.07 246.22 77.06 C 242.72 82.91 240.06 89.19 237.47 95.47 C 234.85 101.89 233.82 108.79 232.66 115.57 C 231.00 122.53 231.45 129.75 232.30 136.79 C 232.83 141.24 234.31 145.56 236.73 149.34 C 242.48 159.81 253.88 167.28 265.99 167.14 C 274.56 166.87 283.16 164.81 290.76 160.80 C 294.55 159.07 294.18 154.29 295.17 150.87 C 295.70 149.13 296.23 147.39 296.72 145.64 C 297.54 150.87 297.30 156.18 296.33 161.37 C 300.33 161.67 304.26 162.50 308.24 162.96 C 310.36 163.39 311.47 161.02 312.34 159.51 C 314.44 154.87 316.08 149.99 319.09 145.81 C 316.99 158.16 312.88 170.04 309.25 181.99 C 306.99 184.67 305.05 188.18 301.55 189.36 C 297.25 190.14 292.70 189.68 288.57 188.28 C 287.37 184.91 287.92 181.22 287.63 177.71 C 287.64 177.23 287.67 176.27 287.68 175.79 C 285.87 175.70 284.07 175.65 282.27 175.75 C 279.08 175.77 275.91 176.14 272.73 176.36 C 268.37 176.67 264.12 175.13 259.76 175.51 C 254.33 175.96 248.83 175.94 243.52 174.59 C 237.43 173.45 231.86 170.09 225.53 170.19 C 219.47 165.32 214.19 159.33 210.91 152.23 C 210.64 151.69 210.10 150.63 209.83 150.10 C 208.10 143.74 206.48 137.29 206.46 130.66 C 209.12 136.08 211.11 141.82 214.28 146.98 C 219.80 146.20 225.16 144.70 230.52 143.20 C 231.03 133.40 231.04 123.48 229.22 113.81 C 227.11 112.78 225.01 111.74 222.91 110.70 C 225.93 109.73 229.03 108.71 231.42 106.53 C 228.53 105.75 225.62 105.09 222.74 104.35 C 225.23 102.68 228.10 101.74 231.03 101.16 C 225.46 101.18 219.93 99.53 214.38 100.11 C 208.61 107.32 210.16 117.35 206.35 125.41 C 206.20 120.69 206.41 115.97 206.96 111.28 C 209.34 98.42 213.56 85.80 220.67 74.75 C 222.84 73.19 225.08 71.62 227.66 70.80 C 230.90 70.09 234.26 71.03 237.51 70.36 Z"
       id="path3742"
       stroke-width="0.09375"
       stroke="#fed452"
       fill="#fed452"
       opacity="1.00" />
    <path
       d=" M 190.35 75.49 C 195.45 75.40 200.62 76.83 205.33 78.74 C 207.26 81.18 206.54 84.55 206.72 87.44 C 202.75 92.89 197.22 96.86 192.01 101.03 L 191.33 101.37 C 190.91 100.14 190.48 98.92 190.06 97.69 C 187.19 97.17 184.32 96.60 181.41 96.32 C 175.39 95.67 169.63 98.03 163.76 98.93 C 172.02 95.38 178.64 89.13 183.75 81.84 C 185.78 79.57 187.76 77.16 190.35 75.49 Z"
       id="path3744"
       stroke-width="0.09375"
       stroke="#fed452"
       fill="#fed452"
       opacity="1.00" />
    <path
       d=" M 133.45 132.56 C 135.65 126.27 135.60 119.01 139.90 113.61 C 139.62 115.33 139.30 117.04 138.95 118.75 C 135.36 129.61 132.97 140.82 129.87 151.82 C 128.70 156.91 126.59 161.75 125.73 166.90 C 133.34 170.00 142.26 169.69 149.99 167.01 C 152.44 166.38 154.91 164.98 157.50 165.46 C 161.66 167.52 158.86 172.70 158.51 176.12 C 153.92 176.49 149.57 178.19 144.98 178.58 C 133.59 179.57 122.30 177.16 110.99 176.16 C 102.25 175.37 93.53 176.82 84.95 178.32 C 83.18 178.86 81.46 177.95 80.31 176.64 C 79.95 173.48 80.95 170.38 81.44 167.29 C 87.50 165.56 94.22 165.21 99.49 161.44 C 103.68 157.83 105.64 152.43 107.84 147.52 C 108.01 150.26 108.25 152.99 108.39 155.74 C 114.04 155.30 121.01 157.09 125.27 152.26 C 130.06 146.77 131.16 139.26 133.45 132.56 Z"
       id="path3746"
       stroke-width="0.09375"
       stroke="#fed452"
       fill="#fed452"
       opacity="1.00" />
    <path
       d=" M 437.26 158.63 C 438.16 162.58 438.75 166.58 439.51 170.56 C 439.91 172.22 440.26 174.29 442.04 175.05 C 444.27 174.01 446.29 172.57 448.38 171.29 C 448.31 171.71 448.17 172.55 448.10 172.97 C 446.95 175.23 445.74 177.46 444.58 179.71 C 442.66 178.98 439.95 179.23 438.66 177.57 C 437.50 171.33 437.63 164.94 437.26 158.63 Z"
       id="path3748"
       stroke-width="0.09375"
       stroke="#fed452"
       fill="#fed452"
       opacity="1.00" />
    <path
       d=" M 339.76 171.04 C 340.48 165.75 345.66 161.52 351.01 161.98 C 358.70 162.23 366.21 166.89 373.92 163.92 C 372.25 165.10 370.66 166.38 369.06 167.64 C 371.54 169.48 374.26 171.74 377.57 171.30 C 381.89 170.68 386.11 169.47 390.48 169.13 C 383.43 175.95 374.48 180.70 364.92 182.85 C 356.81 184.60 347.56 184.69 340.84 179.09 C 340.29 176.45 339.44 173.77 339.76 171.04 Z"
       id="path3750"
       stroke-width="0.09375"
       stroke="#fed452"
       fill="#fed452"
       opacity="1.00" />
    <path
       d=" M 510.76 165.97 L 511.66 166.15 C 517.73 167.16 523.85 168.64 530.05 167.87 C 533.19 167.71 537.28 166.41 539.42 169.60 C 540.26 172.88 538.88 176.17 538.00 179.30 C 530.99 178.51 523.89 179.33 516.92 178.11 C 509.56 176.92 502.15 175.78 494.67 175.86 C 499.35 174.24 504.34 174.92 509.14 174.15 C 511.49 172.12 511.30 168.74 510.76 165.97 Z"
       id="path3752"
       stroke-width="0.09375"
       stroke="#fed452"
       fill="#fed452"
       opacity="1.00" />
  </g>
  <g
     id="#ffe474ff">
    <path
       d=" M 421.98 30.71 C 429.20 30.23 436.38 28.81 443.64 28.94 C 446.24 28.78 447.90 30.89 448.98 32.97 C 448.00 49.15 451.44 65.15 452.16 81.27 C 451.00 76.61 449.84 71.76 447.06 67.77 C 445.59 65.46 442.87 67.38 440.93 67.83 C 434.59 70.51 427.22 68.01 421.04 71.14 C 418.38 73.57 420.64 77.89 418.70 80.71 C 417.53 82.29 416.07 83.63 414.74 85.07 C 417.45 70.45 420.91 55.82 420.88 40.88 C 415.87 39.61 410.69 40.61 405.73 41.61 C 398.44 43.11 391.34 45.71 385.08 49.77 C 377.20 54.19 371.09 61.64 368.08 70.13 C 366.61 73.95 366.80 78.14 367.92 82.01 C 363.47 76.11 367.61 68.59 365.71 61.97 C 362.07 63.57 358.68 65.67 355.38 67.87 C 355.90 66.33 356.45 64.79 357.01 63.25 C 363.00 53.48 370.62 44.36 380.97 39.01 C 387.54 37.36 394.11 35.19 400.97 35.24 C 406.15 35.06 411.32 36.16 416.51 35.73 C 419.41 35.73 420.50 32.68 421.98 30.71 Z"
       id="path3755"
       stroke-width="0.09375"
       stroke="#ffe474"
       fill="#ffe474"
       opacity="1.00" />
    <path
       d=" M 98.46 47.49 C 102.77 45.47 107.68 45.80 112.26 46.44 C 109.05 47.42 105.69 47.64 102.35 47.57 C 101.87 50.57 101.50 53.58 101.28 56.60 C 97.80 59.71 94.64 63.16 91.48 66.59 C 89.78 65.36 88.38 63.30 86.27 62.85 C 82.37 63.53 79.14 66.10 75.81 68.07 C 79.39 62.41 83.85 57.36 88.84 52.90 C 92.01 51.03 95.13 49.07 98.46 47.49 Z"
       id="path3757"
       stroke-width="0.09375"
       stroke="#ffe474"
       fill="#ffe474"
       opacity="1.00" />
    <path
       d=" M 333.65 60.64 C 335.65 59.96 337.80 60.04 339.90 59.93 C 340.74 65.94 340.76 72.03 340.90 78.09 C 340.60 78.36 340.00 78.89 339.70 79.16 C 337.40 79.06 335.07 78.98 332.81 79.51 C 332.01 78.22 330.96 76.93 331.17 75.31 C 332.31 70.47 331.98 65.33 333.65 60.64 Z"
       id="path3759"
       stroke-width="0.09375"
       stroke="#ffe474"
       fill="#ffe474"
       opacity="1.00" />
    <path
       d=" M 508.59 63.31 C 509.71 63.17 510.84 63.04 511.98 62.92 C 514.52 66.87 518.70 68.93 523.24 69.56 C 521.17 69.82 519.11 70.09 517.06 70.35 C 516.59 76.24 516.65 82.14 516.75 88.04 C 514.57 87.63 512.40 87.21 510.24 86.78 C 508.84 89.30 507.22 91.69 505.49 93.99 C 506.61 88.67 508.59 83.47 508.65 77.97 C 509.62 77.33 510.64 76.76 511.66 76.19 C 512.17 71.63 510.44 67.36 508.59 63.31 Z"
       id="path3761"
       stroke-width="0.09375"
       stroke="#ffe474"
       fill="#ffe474"
       opacity="1.00" />
    <path
       d=" M 126.00 75.76 C 130.23 73.95 134.61 75.35 138.35 77.59 C 138.34 80.24 138.37 82.89 138.40 85.54 C 140.04 85.57 141.69 85.59 143.34 85.61 C 144.20 89.97 142.79 94.22 141.47 98.31 C 141.74 98.82 142.28 99.83 142.55 100.34 C 149.60 102.03 156.89 100.88 163.76 98.93 C 169.63 98.03 175.39 95.67 181.41 96.32 C 184.32 96.60 187.19 97.17 190.06 97.69 C 190.48 98.92 190.91 100.14 191.33 101.37 C 181.67 106.80 171.13 110.81 160.07 112.14 C 153.41 113.39 146.53 112.18 139.90 113.61 C 135.60 119.01 135.65 126.27 133.45 132.56 C 131.16 139.26 130.06 146.77 125.27 152.26 C 121.01 157.09 114.04 155.30 108.39 155.74 C 108.25 152.99 108.01 150.26 107.84 147.52 C 114.02 123.63 119.96 99.69 126.00 75.76 Z"
       id="path3763"
       stroke-width="0.09375"
       stroke="#ffe474"
       fill="#ffe474"
       opacity="1.00" />
    <path
       d=" M 214.38 100.11 C 219.93 99.53 225.46 101.18 231.03 101.16 C 228.10 101.74 225.23 102.68 222.74 104.35 C 225.62 105.09 228.53 105.75 231.42 106.53 C 229.03 108.71 225.93 109.73 222.91 110.70 C 225.01 111.74 227.11 112.78 229.22 113.81 C 231.04 123.48 231.03 133.40 230.52 143.20 C 225.16 144.70 219.80 146.20 214.28 146.98 C 211.11 141.82 209.12 136.08 206.46 130.66 C 206.35 128.91 206.33 127.16 206.35 125.41 C 210.16 117.35 208.61 107.32 214.38 100.11 Z"
       id="path3765"
       stroke-width="0.09375"
       stroke="#ffe474"
       fill="#ffe474"
       opacity="1.00" />
    <path
       d=" M 512.06 120.52 C 512.19 114.70 514.36 108.42 519.58 105.27 C 519.78 105.83 520.19 106.95 520.39 107.52 C 519.48 112.52 518.77 117.57 518.71 122.67 C 515.84 122.67 512.98 122.87 510.18 123.47 C 510.49 133.31 510.30 143.15 510.30 152.99 C 510.34 157.32 509.92 161.69 510.76 165.97 C 511.30 168.74 511.49 172.12 509.14 174.15 C 504.34 174.92 499.35 174.24 494.67 175.86 C 490.54 176.70 485.84 178.76 482.36 175.27 C 484.70 169.51 486.56 163.57 488.53 157.67 C 488.73 160.08 489.04 162.48 489.32 164.88 C 493.32 165.08 497.34 165.00 501.34 164.59 C 503.76 154.77 504.23 144.68 504.28 134.62 C 505.85 134.48 507.42 134.33 509.00 134.19 C 508.62 132.47 508.22 130.75 507.89 129.03 C 507.47 126.42 507.45 123.78 507.45 121.15 C 508.98 120.93 510.52 120.72 512.06 120.52 Z"
       id="path3767"
       stroke-width="0.09375"
       stroke="#ffe474"
       fill="#ffe474"
       opacity="1.00" />
    <path
       d=" M 415.87 127.16 C 415.53 121.57 418.04 116.60 421.00 112.06 C 419.66 117.22 418.02 122.28 415.87 127.16 Z"
       id="path3769"
       stroke-width="0.09375"
       stroke="#ffe474"
       fill="#ffe474"
       opacity="1.00" />
    <path
       d=" M 329.03 119.88 C 330.45 119.72 331.85 119.43 333.26 119.18 C 333.50 119.38 333.97 119.76 334.21 119.96 C 334.42 123.15 334.24 126.35 333.88 129.53 C 331.02 129.89 327.94 129.76 325.34 131.19 C 322.01 135.41 321.04 140.90 319.09 145.81 C 316.08 149.99 314.44 154.87 312.34 159.51 C 311.47 161.02 310.36 163.39 308.24 162.96 C 304.26 162.50 300.33 161.67 296.33 161.37 C 297.30 156.18 297.54 150.87 296.72 145.64 C 297.37 141.17 298.51 136.57 297.51 132.08 C 296.57 130.49 295.11 129.15 293.31 128.65 C 288.97 127.40 284.43 128.02 280.00 127.95 C 279.62 127.79 278.86 127.45 278.48 127.28 C 279.13 124.95 279.76 122.62 280.34 120.28 C 296.55 118.90 312.82 120.80 329.03 119.88 Z"
       id="path3771"
       stroke-width="0.09375"
       stroke="#ffe474"
       fill="#ffe474"
       opacity="1.00" />
    <path
       d=" M 435.53 131.79 C 439.80 143.02 436.17 156.28 442.91 166.69 C 452.33 162.38 455.74 151.73 463.03 145.01 C 462.95 145.48 462.80 146.42 462.73 146.89 C 458.26 155.81 453.08 164.33 448.10 172.97 C 448.17 172.55 448.31 171.71 448.38 171.29 C 446.29 172.57 444.27 174.01 442.04 175.05 C 440.26 174.29 439.91 172.22 439.51 170.56 C 438.75 166.58 438.16 162.58 437.26 158.63 C 436.44 151.45 436.08 144.23 435.41 137.03 C 435.42 135.28 435.50 133.54 435.53 131.79 Z"
       id="path3773"
       stroke-width="0.09375"
       stroke="#ffe474"
       fill="#ffe474"
       opacity="1.00" />
    <path
       d=" M 385.04 154.75 C 388.38 151.37 391.06 147.42 393.84 143.59 C 392.22 149.12 388.89 154.02 387.94 159.76 C 390.36 158.93 392.79 158.10 395.13 157.05 C 400.94 154.82 403.13 148.37 407.97 144.84 C 405.08 151.43 400.02 156.70 396.77 163.10 C 394.88 165.31 392.73 167.28 390.48 169.13 C 386.11 169.47 381.89 170.68 377.57 171.30 C 374.26 171.74 371.54 169.48 369.06 167.64 C 370.66 166.38 372.25 165.10 373.92 163.92 C 378.06 161.45 382.19 158.74 385.04 154.75 Z"
       id="path3775"
       stroke-width="0.09375"
       stroke="#ffe474"
       fill="#ffe474"
       opacity="1.00" />
  </g>
  <path
     style="opacity:1;fill:#fff197;stroke:#fff197;stroke-width:0.09375"
     inkscape:connector-curvature="0"
     id="path3778"
     d="m 86.27,62.85 c 2.11,0.45 3.51,2.51 5.21,3.74 -2.62,3.47 -4.77,7.26 -7.19,10.87 -6.39,9.81 -9.86,21.99 -7.53,33.65 -0.87,-4.06 -0.99,-8.23 -1.29,-12.36 -0.62,6.22 -1.02,12.99 2.21,18.61 2.94,5.28 8.5,8.16 12.46,12.53 2.34,2.61 4.02,6.2 3.38,9.75 -0.72,1.74 -2.07,3.11 -3.3,4.5 l -0.83,0.23 c -2.9,-0.05 -5.8,-0.13 -8.69,-0.28 -2.01,-0.72 -3.88,-1.77 -5.64,-2.96 -4.82,-5.7 -9.22,-12.08 -10.7,-19.53 -3.83,-18.41 0.55,-38.25 11.45,-53.53 3.33,-1.97 6.56,-4.54 10.46,-5.22 z" />
  <path
     style="opacity:1;fill:#fff197;stroke:#fff197;stroke-width:0.09375"
     inkscape:connector-curvature="0"
     id="path3780"
     d="m 355.38,67.87 c 3.3,-2.2 6.69,-4.3 10.33,-5.9 1.9,6.62 -2.24,14.14 2.21,20.04 2.25,3.7 5.09,6.99 7.31,10.71 2,3.11 1.53,6.98 1.9,10.5 -3.76,3.25 -9.28,4.89 -13.95,2.65 -5.8,-2.93 -8.95,-9.3 -10.24,-15.41 0.28,-4.56 0.21,-9.13 -0.09,-13.68 0.74,-3 1.54,-5.98 2.53,-8.91 z" />
  <path
     style="opacity:1;fill:#fff197;stroke:#fff197;stroke-width:0.09375"
     inkscape:connector-curvature="0"
     id="path3782"
     d="m 498.87,66.82 c 2.92,-1.9 6.26,-3.12 9.72,-3.51 1.85,4.05 3.58,8.32 3.07,12.88 -1.02,0.57 -2.04,1.14 -3.01,1.78 -0.32,0.24 -0.96,0.73 -1.28,0.97 -5.5,4.12 -8.57,10.44 -12.53,15.89 -11.52,16.13 -21.8,33.09 -31.81,50.18 -7.29,6.72 -10.7,17.37 -20.12,21.68 -6.74,-10.41 -3.11,-23.67 -7.38,-34.9 -0.79,-12.29 -1.92,-24.56 -2.57,-36.86 -0.34,-5.18 -0.58,-10.43 -2.11,-15.43 -3.38,4.76 -4.2,10.64 -5.43,16.19 -1.14,5.54 -2.56,11.03 -4.42,16.37 -2.96,4.54 -5.47,9.51 -5.13,15.1 -1.94,6.18 -4.71,12.06 -7.9,17.68 -4.84,3.53 -7.03,9.98 -12.84,12.21 -2.34,1.05 -4.77,1.88 -7.19,2.71 0.95,-5.74 4.28,-10.64 5.9,-16.17 10.53,-18.05 16.1,-38.35 20.9,-58.52 1.33,-1.44 2.79,-2.78 3.96,-4.36 1.94,-2.82 -0.32,-7.14 2.34,-9.57 6.18,-3.13 13.55,-0.63 19.89,-3.31 1.94,-0.45 4.66,-2.37 6.13,-0.06 2.78,3.99 3.94,8.84 5.1,13.5 0.64,7.33 1.18,14.68 2.37,21.95 0.53,7.56 1.07,15.12 1.72,22.67 0.65,0.06 1.95,0.17 2.61,0.22 12.53,-20.28 25.26,-40.52 40.01,-59.29 z" />
  <path
     style="opacity:1;fill:#fff197;stroke:#fff197;stroke-width:0.11971557"
     inkscape:connector-curvature="0"
     id="path3784"
     d="m 527.97133,69.771663 c 5.75967,1.98802 6.57,9.414078 -4.58559,47.231677 -14.37884,48.95045 -0.55671,49.32825 -33.80622,47.83811 -0.36734,-2.98305 -0.77404,-5.96609 -1.03643,-8.96157 8.34387,-26.15136 14.60176,-52.82476 22.25031,-79.150136 5.7647,-8.544868 2.37526,-6.876821 17.17793,-6.958081 z"
     sodipodi:nodetypes="cccccc" />
  <g
     id="#000000ff">
    <path
       fill="#000000"
       stroke="#000000"
       stroke-width="0.09375"
       opacity="1.00"
       d=" M 159.40 181.08 C 163.31 180.18 167.51 179.33 171.45 180.53 C 177.27 182.32 176.77 192.66 170.69 193.71 C 167.34 194.36 163.94 193.35 160.58 193.71 C 158.70 198.00 157.79 202.63 156.78 207.18 C 160.82 204.93 165.50 201.35 170.29 203.72 C 175.41 207.79 176.43 214.72 179.56 220.14 C 179.53 215.84 177.74 211.65 178.30 207.36 C 179.00 202.79 184.89 202.14 188.41 203.61 C 192.10 205.24 191.95 209.75 192.34 213.13 C 196.46 208.73 201.30 204.40 207.51 203.50 C 211.67 202.98 215.64 201.37 219.82 201.10 C 222.45 201.06 223.27 203.71 223.90 205.77 C 223.14 207.76 222.50 209.78 221.80 211.79 C 221.45 212.94 220.29 214.25 221.03 215.46 C 222.80 215.93 223.76 213.14 223.03 211.80 C 224.34 211.78 225.38 211.22 226.14 210.13 C 227.64 208.65 229.27 207.31 230.97 206.07 C 237.06 202.92 244.09 202.45 250.81 202.12 C 253.80 202.07 253.84 205.44 254.54 207.56 C 259.27 204.43 265.67 200.88 271.11 204.52 C 271.46 204.73 272.16 205.14 272.51 205.35 C 274.00 204.66 275.49 203.96 276.99 203.28 C 277.40 203.10 278.23 202.73 278.64 202.55 C 281.65 202.75 284.42 203.95 287.24 204.92 C 289.94 204.80 292.31 203.06 295.04 203.02 C 297.26 202.98 299.46 203.39 301.66 203.68 C 301.94 204.28 302.49 205.50 302.77 206.11 C 303.61 210.09 303.06 214.15 302.19 218.07 C 303.04 216.54 303.87 215.00 304.78 213.50 C 307.84 208.32 312.93 204.04 319.01 203.15 C 322.63 202.73 326.84 202.67 329.72 205.27 C 333.06 208.50 332.83 213.90 330.85 217.79 C 329.16 221.30 325.77 223.42 322.76 225.66 C 324.81 226.27 327.74 225.98 328.72 228.34 C 330.14 230.42 329.97 233.34 328.02 235.03 C 322.50 240.57 315.25 245.91 306.99 244.99 C 304.10 244.90 301.88 242.88 299.85 241.07 C 296.62 243.19 293.11 245.63 289.01 245.01 C 285.78 244.99 283.29 242.05 283.02 238.97 C 282.14 233.05 285.39 227.64 285.98 221.86 C 282.81 228.43 282.33 235.93 279.66 242.65 C 277.22 244.57 273.86 244.02 270.98 243.98 C 268.79 244.00 266.21 242.53 266.59 240.02 C 267.60 233.57 269.86 227.38 270.85 220.92 C 267.07 226.89 266.81 234.18 264.74 240.77 C 264.18 244.90 258.93 243.89 255.94 244.04 C 253.36 244.43 251.58 242.67 250.45 240.59 C 245.42 244.28 238.59 246.79 232.74 243.40 C 228.75 243.93 224.62 246.21 220.54 244.45 C 217.28 243.45 216.16 239.96 215.21 237.07 C 215.98 244.36 215.56 252.66 210.41 258.39 C 204.58 264.53 195.38 266.07 187.33 264.57 C 183.78 263.79 180.17 261.95 178.34 258.66 C 176.93 256.22 177.03 253.31 176.71 250.60 C 171.59 257.00 165.29 263.31 156.89 264.83 C 153.23 265.19 149.00 265.52 145.93 263.09 C 142.24 260.18 142.89 253.14 147.55 251.59 C 151.42 250.09 155.55 251.76 159.54 251.55 C 164.35 248.93 168.43 243.71 168.01 237.99 C 167.61 230.82 166.23 223.55 162.83 217.16 C 160.04 218.34 157.07 219.21 154.00 218.65 C 153.34 221.38 152.66 224.12 151.95 226.85 C 153.58 226.55 155.21 226.09 156.88 226.10 C 160.87 226.51 162.88 232.20 159.92 234.97 C 156.42 238.85 152.26 242.32 147.38 244.30 C 144.26 245.31 140.29 245.63 137.61 243.39 C 135.38 240.83 136.08 237.15 135.83 234.02 C 132.26 238.78 127.63 243.20 121.65 244.56 C 116.15 245.77 109.34 245.14 105.68 240.33 C 101.64 234.36 102.97 226.69 104.79 220.18 C 100.50 222.05 95.87 222.77 91.26 223.25 C 88.88 226.89 88.79 231.74 87.61 235.92 C 90.83 234.92 95.71 232.17 97.91 236.25 C 98.31 239.03 98.22 243.06 94.91 244.00 C 87.79 246.55 80.28 243.61 72.98 244.01 C 70.32 243.80 66.48 244.77 65.05 241.76 C 64.09 239.08 65.52 236.36 66.63 233.97 C 64.00 232.06 61.38 229.83 60.30 226.65 C 56.84 217.20 60.28 206.22 67.34 199.35 C 74.39 191.87 84.95 188.69 95.02 188.95 C 101.39 188.94 108.56 189.95 113.10 194.89 C 115.86 197.72 116.43 201.83 116.35 205.62 C 121.79 202.80 128.76 201.64 134.35 204.67 C 138.14 206.75 139.64 211.02 140.56 214.98 C 143.01 206.71 143.85 197.78 148.15 190.17 C 150.48 186.29 154.22 183.52 158.16 181.43 C 158.47 181.35 159.09 181.17 159.40 181.08 M 148.61 195.75 C 145.56 205.30 143.58 215.14 141.04 224.83 C 139.96 230.31 137.76 236.00 139.49 241.58 C 141.84 241.72 144.29 242.13 146.59 241.42 C 151.32 239.36 155.12 235.74 158.66 232.08 C 158.45 231.37 158.05 229.97 157.84 229.27 C 157.14 229.17 155.73 228.99 155.02 228.89 C 152.57 231.39 149.85 233.60 147.07 235.72 C 149.51 223.92 152.57 212.26 155.35 200.53 C 156.63 196.98 156.66 192.34 160.09 190.04 C 163.79 190.31 167.74 191.64 171.34 190.27 C 173.06 188.43 173.30 184.44 170.71 183.27 C 161.58 181.26 151.43 186.73 148.61 195.75 M 78.73 194.82 C 70.79 198.37 64.08 205.50 62.30 214.16 C 61.62 219.15 61.57 224.86 65.08 228.89 C 66.79 231.61 70.32 230.68 72.98 230.66 C 73.31 229.02 74.04 226.94 72.26 225.85 C 69.36 223.44 66.53 220.19 67.25 216.11 C 68.95 203.42 82.03 195.29 94.04 194.84 C 97.88 195.34 102.82 196.81 103.60 201.23 C 104.95 209.14 97.40 216.54 89.58 216.15 C 90.96 210.00 92.84 203.98 94.33 197.86 C 90.11 198.30 85.96 199.25 81.83 200.17 C 79.99 202.53 84.17 202.77 83.58 204.92 C 81.98 211.77 80.15 218.57 78.50 225.41 C 77.61 228.61 76.96 232.10 74.65 234.64 C 72.91 236.35 70.31 236.43 68.10 237.14 C 67.87 238.34 67.64 239.54 67.40 240.75 C 76.14 240.08 84.81 242.84 93.52 241.41 C 95.52 240.93 94.84 238.24 95.36 236.76 C 91.45 237.24 87.83 239.94 83.85 238.15 C 85.50 232.04 86.86 225.85 88.71 219.80 C 94.69 220.14 100.92 219.43 106.02 216.05 C 111.76 212.71 115.47 204.91 112.30 198.64 C 109.92 194.31 104.77 192.55 100.12 192.13 C 92.92 191.68 85.42 191.80 78.73 194.82 M 97.35 198.67 C 95.91 203.23 94.50 207.83 93.66 212.55 C 97.66 211.17 100.76 207.34 100.96 203.08 C 101.16 200.81 99.03 199.61 97.35 198.67 M 78.28 203.30 C 74.37 206.97 70.36 211.36 70.08 217.01 C 69.77 220.73 73.46 222.73 75.76 224.99 C 77.21 218.38 79.05 211.87 80.54 205.27 C 79.78 204.62 79.03 203.96 78.28 203.30 M 213.92 205.89 C 209.99 206.02 205.84 206.04 202.40 208.23 C 195.13 212.85 189.96 220.51 187.88 228.82 C 187.08 233.12 186.28 238.52 190.36 241.47 C 186.23 243.64 180.94 245.91 180.01 251.05 C 178.55 256.16 183.09 261.02 187.98 261.61 C 194.79 262.30 202.70 262.12 207.71 256.72 C 212.95 251.98 212.50 244.40 212.77 237.97 C 214.17 226.35 217.99 215.22 220.86 203.92 C 218.34 203.74 216.01 204.53 213.92 205.89 M 240.96 206.06 C 234.74 206.04 229.54 210.19 225.73 214.72 C 220.79 220.85 217.08 228.68 218.28 236.73 C 218.54 239.59 220.87 242.44 224.01 241.84 C 228.60 242.48 232.43 239.40 235.50 236.39 C 235.34 238.13 235.31 239.88 235.36 241.63 C 242.46 243.26 248.76 238.83 253.35 233.93 C 253.28 233.24 253.14 231.85 253.07 231.16 C 249.62 230.20 247.21 233.14 244.41 234.55 C 245.48 224.39 249.04 214.74 251.51 204.90 C 247.93 204.84 244.55 206.26 240.96 206.06 M 121.42 206.55 C 111.07 209.95 105.36 221.69 106.06 232.10 C 105.91 236.59 109.23 241.50 113.97 241.74 C 117.93 241.99 122.23 242.09 125.65 239.74 C 132.29 235.40 137.40 228.09 137.66 219.99 C 137.88 215.98 137.57 211.44 134.55 208.45 C 131.18 204.95 125.72 205.78 121.42 206.55 M 154.51 213.03 C 154.75 213.73 155.24 215.14 155.48 215.84 C 158.42 216.13 160.70 214.03 163.36 213.17 C 168.69 219.58 169.92 228.15 170.87 236.15 C 172.02 243.93 166.62 251.73 159.56 254.60 C 155.86 254.77 152.03 253.21 148.33 254.31 C 145.04 255.90 146.22 261.79 149.99 261.70 C 153.75 261.97 157.76 262.10 161.21 260.30 C 169.84 256.18 175.20 247.77 179.76 239.72 C 184.94 230.33 189.43 219.92 189.08 209.01 C 188.90 205.33 184.02 205.39 181.61 206.62 C 179.90 210.28 182.50 214.21 182.38 217.98 C 181.98 222.63 180.22 227.05 178.16 231.19 C 176.93 222.27 174.69 213.10 168.94 205.93 C 163.01 205.00 158.93 210.00 154.51 213.03 M 252.85 212.90 C 251.62 213.73 252.24 215.30 252.55 216.43 C 255.63 218.14 257.66 214.30 259.90 212.85 C 258.01 222.21 255.50 231.44 253.44 240.77 C 256.23 240.80 259.02 240.81 261.81 240.77 C 263.31 235.16 264.25 229.40 266.04 223.87 C 267.48 218.98 271.75 215.77 275.84 213.14 C 273.72 222.37 271.33 231.53 269.19 240.74 C 271.98 240.81 274.78 240.81 277.58 240.77 C 278.84 234.85 280.40 228.99 282.17 223.20 C 283.48 218.48 287.50 215.14 291.76 213.08 C 290.49 221.24 286.24 228.73 285.79 237.04 C 285.75 239.03 286.43 242.17 289.07 241.81 C 294.35 242.80 297.94 238.24 301.45 235.14 C 302.03 236.92 302.22 238.96 303.49 240.45 C 304.77 242.14 307.15 241.70 309.00 241.85 C 315.82 242.16 321.26 237.24 325.97 232.95 C 327.55 231.93 326.20 230.17 325.93 228.83 C 320.89 228.70 318.01 234.03 313.17 234.70 C 309.98 234.48 310.58 230.30 310.72 228.04 C 316.85 225.06 323.87 222.70 327.99 216.92 C 329.88 213.74 330.31 208.51 326.58 206.46 C 321.50 205.22 315.56 205.87 311.68 209.69 C 305.95 215.12 302.60 222.78 301.63 230.55 C 298.10 230.92 296.61 234.52 293.99 236.40 C 295.41 228.08 298.80 220.25 300.49 212.00 C 300.71 209.87 300.85 206.16 297.89 206.07 C 292.77 204.92 288.50 208.40 284.84 211.44 C 284.57 209.69 284.28 207.94 283.85 206.22 C 277.88 204.61 272.78 208.36 268.54 212.04 C 268.96 210.09 269.33 208.11 269.23 206.11 C 262.89 204.90 257.14 208.64 252.85 212.90 M 250.37 219.27 C 249.75 222.23 249.07 225.18 248.44 228.14 C 250.10 228.16 251.76 228.22 253.43 228.30 C 254.09 225.61 254.69 222.91 255.21 220.19 C 253.59 219.89 251.98 219.59 250.37 219.27 M 312.90 231.90 C 316.29 230.52 319.28 228.37 322.08 226.04 C 318.89 227.67 314.57 228.36 312.90 231.90 M 180.89 243.79 C 182.44 242.79 183.99 241.80 185.55 240.84 C 185.26 239.58 184.97 238.31 184.70 237.06 C 183.39 239.28 182.12 241.52 180.89 243.79 Z"
       id="path3787" />
    <path
       fill="#000000"
       stroke="#000000"
       stroke-width="0.09375"
       opacity="1.00"
       d=" M 407.18 189.17 C 409.50 187.28 412.46 185.16 415.60 186.37 C 417.89 186.89 418.16 189.71 417.49 191.57 C 412.61 206.17 408.89 221.13 405.27 236.08 C 406.80 235.70 408.34 235.30 409.88 234.90 C 410.39 223.50 416.50 212.30 426.17 206.13 C 431.46 202.64 438.04 203.13 444.04 202.04 C 446.86 201.36 450.14 203.85 449.04 206.89 C 447.23 213.82 444.90 220.62 443.49 227.66 C 446.58 227.24 450.11 226.23 452.95 228.06 C 455.23 229.63 455.08 232.71 455.65 235.12 C 456.65 234.39 457.65 233.66 458.65 232.93 C 455.93 228.45 451.34 225.10 450.01 219.85 C 448.57 215.00 450.22 209.36 454.22 206.22 C 459.11 202.39 466.04 202.08 471.71 204.21 C 473.66 204.96 475.77 205.01 477.84 205.10 C 478.65 202.55 479.08 199.82 480.49 197.51 C 484.07 195.73 488.30 192.98 492.38 194.56 C 495.78 196.99 492.95 201.50 492.35 204.71 C 494.49 205.09 496.92 204.98 498.73 206.41 C 499.84 208.42 499.10 210.81 499.14 212.99 C 502.86 206.84 509.67 202.32 517.06 202.96 C 520.54 202.73 523.57 204.73 525.52 207.48 C 528.32 205.86 531.14 204.15 534.30 203.31 C 537.11 202.52 539.98 203.53 542.82 203.62 C 545.69 202.25 548.59 200.22 551.97 201.08 C 557.64 201.30 559.10 209.87 554.68 212.75 C 551.15 214.93 546.62 215.53 543.88 218.90 C 537.32 225.21 538.29 235.11 534.96 242.95 C 533.00 244.45 530.26 243.92 527.95 244.07 C 525.63 244.06 522.13 243.91 521.70 240.98 C 521.75 238.66 522.43 236.43 522.89 234.17 C 516.94 240.21 509.14 246.39 500.09 244.87 C 496.45 244.54 494.38 241.32 492.79 238.42 C 487.48 241.58 481.94 246.56 475.27 244.70 C 471.74 244.02 471.09 240.15 470.63 237.20 C 465.23 246.13 452.19 247.38 443.92 241.90 C 440.21 243.61 436.27 245.65 432.05 244.93 C 429.93 244.59 427.93 242.63 425.75 243.71 C 423.00 244.70 420.07 245.42 417.15 244.72 C 413.08 243.65 409.03 245.50 404.92 244.97 C 400.65 244.44 396.38 244.01 392.08 243.81 C 390.17 243.83 388.44 241.90 388.88 239.99 C 389.87 235.23 391.97 230.78 392.98 226.02 C 388.75 231.69 385.94 238.23 382.23 244.22 C 380.80 246.67 377.18 246.19 375.06 244.95 C 373.07 239.54 374.05 233.53 372.93 227.91 C 369.75 234.04 366.48 240.68 360.27 244.28 C 355.72 246.93 349.87 248.06 344.86 246.15 C 340.14 244.28 340.09 236.82 344.55 234.62 C 347.75 233.27 351.31 234.38 354.63 234.74 C 358.07 231.63 360.85 227.81 362.45 223.44 C 365.33 215.79 367.22 207.74 367.95 199.59 C 363.67 200.55 359.01 202.79 357.36 207.13 C 357.86 210.50 361.53 213.21 360.32 216.96 C 359.35 221.21 353.96 221.86 350.55 220.40 C 347.56 218.73 346.20 215.24 345.72 212.02 C 344.75 204.33 349.32 196.64 356.02 193.02 C 363.30 188.94 371.94 188.64 380.08 189.06 C 381.99 189.09 384.63 189.80 384.55 192.20 C 384.92 199.83 385.41 207.46 386.12 215.07 C 392.34 205.85 398.61 196.41 407.18 189.17 M 406.04 194.04 C 397.16 202.86 390.52 213.58 383.86 224.09 C 383.22 213.39 381.85 202.72 381.74 192.01 C 375.32 192.12 368.73 191.39 362.51 193.37 C 356.60 194.99 351.15 199.22 349.24 205.20 C 347.86 209.29 348.21 214.39 351.41 217.55 C 353.28 217.99 355.23 217.73 357.14 217.73 C 359.45 213.13 352.88 210.22 354.72 205.71 C 357.41 199.22 364.87 196.59 371.36 195.92 C 370.39 206.29 368.40 216.69 364.31 226.31 C 362.21 230.59 359.66 235.20 355.21 237.40 C 351.72 238.22 347.14 235.17 344.40 238.46 C 343.94 240.30 344.13 242.55 346.07 243.46 C 351.24 244.52 357.06 243.77 361.06 240.06 C 369.46 232.61 372.02 221.14 374.69 210.73 C 375.75 221.44 376.14 232.21 377.26 242.91 C 377.89 242.87 379.13 242.78 379.75 242.74 C 385.96 231.47 392.17 220.12 399.96 209.84 C 397.55 220.25 394.89 230.62 391.49 240.75 C 398.20 240.57 404.79 242.40 411.53 241.76 C 411.61 240.46 411.69 239.16 411.78 237.86 C 408.51 238.41 405.13 239.40 402.14 237.33 C 405.63 220.96 410.21 204.83 415.11 188.84 C 411.30 188.68 408.64 191.71 406.04 194.04 M 482.41 199.48 C 481.65 202.31 480.82 205.13 480.06 207.96 C 476.97 207.74 473.55 208.98 470.85 207.00 C 468.14 205.47 464.89 206.01 461.93 206.06 C 456.54 206.39 451.69 211.49 452.44 217.02 C 452.72 222.67 457.88 226.01 460.66 230.42 C 463.57 234.65 455.95 240.63 452.83 236.27 C 452.04 234.16 453.16 230.02 449.87 230.02 C 445.61 228.98 442.88 232.95 439.42 234.57 C 440.46 224.41 444.05 214.75 446.51 204.90 C 442.93 204.84 439.55 206.26 435.96 206.06 C 429.74 206.04 424.54 210.18 420.74 214.72 C 415.79 220.85 412.07 228.68 413.28 236.74 C 413.54 239.60 415.88 242.44 419.01 241.84 C 423.60 242.48 427.43 239.40 430.50 236.39 C 430.34 238.13 430.30 239.88 430.36 241.63 C 435.58 242.73 440.63 240.78 444.58 237.44 C 446.17 239.49 448.20 241.56 450.97 241.69 C 455.95 241.98 461.79 242.44 465.62 238.58 C 468.89 235.94 469.99 231.25 468.57 227.34 C 467.08 222.60 462.26 220.08 460.20 215.68 C 459.02 213.72 460.67 211.83 461.55 210.15 C 464.30 210.36 465.67 212.94 467.31 214.79 C 470.13 215.16 473.17 214.95 474.20 211.81 C 475.84 211.80 477.48 211.80 479.12 211.81 C 477.51 218.55 475.45 225.19 474.10 231.99 C 473.63 235.13 472.92 238.79 475.03 241.52 C 477.83 242.00 480.94 242.16 483.49 240.69 C 487.86 238.28 491.86 235.23 495.62 231.95 C 495.67 234.82 495.50 238.11 497.49 240.44 C 498.77 242.13 501.14 241.71 503.00 241.85 C 509.81 242.16 515.26 237.25 519.96 232.95 C 521.55 231.93 520.19 230.17 519.93 228.83 C 514.89 228.70 512.01 234.03 507.17 234.70 C 503.98 234.48 504.57 230.30 504.72 228.04 C 511.07 225.01 518.27 222.48 522.38 216.38 C 523.73 216.46 525.14 217.01 526.48 216.57 C 528.02 215.29 529.43 213.87 530.98 212.60 C 529.31 222.11 526.49 231.37 524.29 240.76 C 527.14 240.80 529.99 240.80 532.84 240.80 C 533.93 236.22 534.92 231.61 536.10 227.05 C 537.60 220.45 542.39 214.33 548.92 212.15 C 550.79 211.31 553.18 210.87 554.15 208.84 C 555.02 206.67 553.65 203.40 550.93 203.97 C 546.07 203.32 543.09 207.94 540.14 210.99 C 540.23 209.32 540.32 207.65 540.35 205.98 C 533.81 205.01 528.05 208.82 523.47 213.03 C 523.42 210.56 523.07 207.68 520.58 206.46 C 515.50 205.22 509.56 205.87 505.68 209.68 C 500.24 214.93 496.66 222.20 495.90 229.73 C 494.67 229.40 493.44 229.10 492.21 228.83 C 489.19 231.13 486.12 233.46 482.50 234.72 C 482.76 227.07 485.85 219.82 487.57 212.41 C 490.02 211.02 493.35 212.14 496.14 211.80 C 496.30 210.54 496.46 209.28 496.61 208.02 C 493.96 208.00 491.30 208.00 488.65 207.97 C 489.49 204.24 490.55 200.57 491.33 196.82 C 488.15 196.91 485.32 198.40 482.41 199.48 M 489.93 215.10 C 488.42 219.93 487.21 224.85 485.98 229.76 C 488.35 228.06 490.84 226.53 493.55 225.44 C 494.70 221.63 496.23 217.95 498.13 214.45 C 495.41 214.86 492.67 215.02 489.93 215.10 M 464.81 217.22 C 467.78 220.35 470.48 223.81 471.89 227.95 C 473.07 224.18 473.98 220.33 475.03 216.52 C 471.91 218.49 468.22 218.07 464.81 217.22 M 516.79 225.66 C 519.89 225.81 522.44 227.32 523.99 230.00 C 524.97 226.60 525.85 223.16 526.39 219.67 C 522.42 220.16 519.93 223.56 516.79 225.66 M 506.89 231.89 C 510.29 230.52 513.28 228.37 516.09 226.04 C 512.89 227.67 508.58 228.36 506.89 231.89 Z"
       id="path3789" />
    <path
       fill="#000000"
       stroke="#000000"
       stroke-width="0.09375"
       opacity="1.00"
       d=" M 122.50 210.55 C 123.78 209.83 125.54 210.55 126.26 211.78 C 128.87 215.59 128.62 220.56 128.06 224.94 C 127.16 229.54 125.45 234.64 121.27 237.24 C 118.06 238.95 116.19 234.56 115.63 232.07 C 114.26 224.51 115.67 215.14 122.50 210.55 M 119.94 234.88 C 125.80 229.46 126.90 220.11 123.89 212.97 C 117.88 218.19 116.24 227.90 119.94 234.88 Z"
       id="path3791" />
    <path
       fill="#000000"
       stroke="#000000"
       stroke-width="0.09375"
       opacity="1.00"
       d=" M 317.67 210.61 C 320.24 209.31 321.63 212.63 320.83 214.65 C 319.44 218.76 315.53 221.25 311.96 223.31 C 312.94 218.79 314.11 213.84 317.67 210.61 Z"
       id="path3793" />
    <path
       fill="#000000"
       stroke="#000000"
       stroke-width="0.09375"
       opacity="1.00"
       d=" M 511.68 210.60 C 514.25 209.31 515.62 212.63 514.83 214.66 C 513.43 218.76 509.54 221.25 505.96 223.31 C 506.94 218.78 508.11 213.83 511.68 210.60 Z"
       id="path3795" />
    <path
       fill="#000000"
       stroke="#000000"
       stroke-width="0.09375"
       opacity="1.00"
       d=" M 201.51 214.51 C 203.60 211.79 207.11 211.08 210.30 210.62 C 209.38 216.16 207.95 221.64 206.12 226.95 C 204.92 230.54 202.36 233.70 198.94 235.37 C 196.13 236.03 195.35 232.05 195.71 229.99 C 196.67 224.58 198.04 218.90 201.51 214.51 M 198.33 232.11 C 204.50 228.72 204.98 220.66 206.38 214.51 C 200.52 218.22 199.43 225.81 198.33 232.11 Z"
       id="path3797" />
    <path
       fill="#000000"
       stroke="#000000"
       stroke-width="0.09375"
       opacity="1.00"
       d=" M 236.45 211.60 C 238.08 211.21 240.20 209.83 241.20 211.97 C 239.11 218.64 238.70 226.36 233.75 231.72 C 232.20 233.00 230.32 235.05 228.13 234.39 C 225.43 231.52 226.71 227.15 227.55 223.76 C 229.20 219.04 231.42 213.54 236.45 211.60 M 229.59 231.38 C 235.18 227.69 236.19 220.61 237.24 214.54 C 231.57 217.87 229.43 225.15 229.59 231.38 Z"
       id="path3799" />
    <path
       fill="#000000"
       stroke="#000000"
       stroke-width="0.09375"
       opacity="1.00"
       d=" M 431.45 211.60 C 433.08 211.21 435.20 209.83 436.20 211.97 C 434.11 218.64 433.70 226.36 428.75 231.72 C 427.20 233.01 425.32 235.03 423.13 234.40 C 420.43 231.53 421.71 227.15 422.55 223.76 C 424.20 219.04 426.42 213.53 431.45 211.60 M 424.59 231.38 C 430.19 227.70 431.19 220.61 432.24 214.54 C 426.57 217.87 424.43 225.15 424.59 231.38 Z"
       id="path3801" />
    <path
       fill="#000000"
       stroke="#000000"
       stroke-width="0.09375"
       opacity="1.00"
       d=" M 189.06 248.06 C 193.96 243.73 199.79 240.62 204.97 236.65 C 204.63 242.45 205.08 249.18 200.68 253.67 C 197.92 256.51 193.14 259.64 189.49 256.53 C 186.26 254.75 186.35 250.27 189.06 248.06 M 189.94 252.11 C 190.05 255.59 194.60 255.28 196.55 253.52 C 200.37 251.09 201.60 246.55 202.00 242.31 C 197.97 245.53 192.80 247.67 189.94 252.11 Z"
       id="path3803" />
  </g>
  <g
     id="#ffffffff">
    <path
       fill="#ffffff"
       stroke="#ffffff"
       stroke-width="0.09375"
       opacity="1.00"
       d=" M 148.61 195.75 C 151.43 186.73 161.58 181.26 170.71 183.27 C 173.30 184.44 173.06 188.43 171.34 190.27 C 167.74 191.64 163.79 190.31 160.09 190.04 C 156.66 192.34 156.63 196.98 155.35 200.53 C 152.57 212.26 149.51 223.92 147.07 235.72 C 149.85 233.60 152.57 231.39 155.02 228.89 C 155.73 228.99 157.14 229.17 157.84 229.27 C 158.05 229.97 158.45 231.37 158.66 232.08 C 155.12 235.74 151.32 239.36 146.59 241.42 C 144.29 242.13 141.84 241.72 139.49 241.58 C 137.76 236.00 139.96 230.31 141.04 224.83 C 143.58 215.14 145.56 205.30 148.61 195.75 Z"
       id="path3806" />
    <path
       fill="#ffffff"
       stroke="#ffffff"
       stroke-width="0.09375"
       opacity="1.00"
       d=" M 406.04 194.04 C 408.64 191.71 411.30 188.68 415.11 188.84 C 410.21 204.83 405.63 220.96 402.14 237.33 C 405.13 239.40 408.51 238.41 411.78 237.86 C 411.69 239.16 411.61 240.46 411.53 241.76 C 404.79 242.40 398.20 240.57 391.49 240.75 C 394.89 230.62 397.55 220.25 399.96 209.84 C 392.17 220.12 385.96 231.47 379.75 242.74 C 379.13 242.78 377.89 242.87 377.26 242.91 C 376.14 232.21 375.75 221.44 374.69 210.73 C 372.02 221.14 369.46 232.61 361.06 240.06 C 357.06 243.77 351.24 244.52 346.07 243.46 C 344.13 242.55 343.94 240.30 344.40 238.46 C 347.14 235.17 351.72 238.22 355.21 237.40 C 359.66 235.20 362.21 230.59 364.31 226.31 C 368.40 216.69 370.39 206.29 371.36 195.92 C 364.87 196.59 357.41 199.22 354.72 205.71 C 352.88 210.22 359.45 213.13 357.14 217.73 C 355.23 217.73 353.28 217.99 351.41 217.55 C 348.21 214.39 347.86 209.29 349.24 205.20 C 351.15 199.22 356.60 194.99 362.51 193.37 C 368.73 191.39 375.32 192.12 381.74 192.01 C 381.85 202.72 383.22 213.39 383.86 224.09 C 390.52 213.58 397.16 202.86 406.04 194.04 Z"
       id="path3808" />
    <path
       fill="#ffffff"
       stroke="#ffffff"
       stroke-width="0.09375"
       opacity="1.00"
       d=" M 78.73 194.82 C 85.42 191.80 92.92 191.68 100.12 192.13 C 104.77 192.55 109.92 194.31 112.30 198.64 C 115.47 204.91 111.76 212.71 106.02 216.05 C 100.92 219.43 94.69 220.14 88.71 219.80 C 86.86 225.85 85.50 232.04 83.85 238.15 C 87.83 239.94 91.45 237.24 95.36 236.76 C 94.84 238.24 95.52 240.93 93.52 241.41 C 84.81 242.84 76.14 240.08 67.40 240.75 C 67.64 239.54 67.87 238.34 68.10 237.14 C 70.31 236.43 72.91 236.35 74.65 234.64 C 76.96 232.10 77.61 228.61 78.50 225.41 C 80.15 218.57 81.98 211.77 83.58 204.92 C 84.17 202.77 79.99 202.53 81.83 200.17 C 85.96 199.25 90.11 198.30 94.33 197.86 C 92.84 203.98 90.96 210.00 89.58 216.15 C 97.40 216.54 104.95 209.14 103.60 201.23 C 102.82 196.81 97.88 195.34 94.04 194.84 C 82.03 195.29 68.95 203.42 67.25 216.11 C 66.53 220.19 69.36 223.44 72.26 225.85 C 74.04 226.94 73.31 229.02 72.98 230.66 C 70.32 230.68 66.79 231.61 65.08 228.89 C 61.57 224.86 61.62 219.15 62.30 214.16 C 64.08 205.50 70.79 198.37 78.73 194.82 Z"
       id="path3810" />
    <path
       fill="#ffffff"
       stroke="#ffffff"
       stroke-width="0.09375"
       opacity="1.00"
       d=" M 482.41 199.48 C 485.32 198.40 488.15 196.91 491.33 196.82 C 490.55 200.57 489.49 204.24 488.65 207.97 C 491.30 208.00 493.96 208.00 496.61 208.02 C 496.46 209.28 496.30 210.54 496.14 211.80 C 493.35 212.14 490.02 211.02 487.57 212.41 C 485.85 219.82 482.76 227.07 482.50 234.72 C 486.12 233.46 489.19 231.13 492.21 228.83 C 493.44 229.10 494.67 229.40 495.90 229.73 C 496.66 222.20 500.24 214.93 505.68 209.68 C 509.56 205.87 515.50 205.22 520.58 206.46 C 523.07 207.68 523.42 210.56 523.47 213.03 C 528.05 208.82 533.81 205.01 540.35 205.98 C 540.32 207.65 540.23 209.32 540.14 210.99 C 543.09 207.94 546.07 203.32 550.93 203.97 C 553.65 203.40 555.02 206.67 554.15 208.84 C 553.18 210.87 550.79 211.31 548.92 212.15 C 542.39 214.33 537.60 220.45 536.10 227.05 C 534.92 231.61 533.93 236.22 532.84 240.80 C 529.99 240.80 527.14 240.80 524.29 240.76 C 526.49 231.37 529.31 222.11 530.98 212.60 C 529.43 213.87 528.02 215.29 526.48 216.57 C 525.14 217.01 523.73 216.46 522.38 216.38 C 518.27 222.48 511.07 225.01 504.72 228.04 C 504.57 230.30 503.98 234.48 507.17 234.70 C 512.01 234.03 514.89 228.70 519.93 228.83 C 520.19 230.17 521.55 231.93 519.96 232.95 C 515.26 237.25 509.81 242.16 503.00 241.85 C 501.14 241.71 498.77 242.13 497.49 240.44 C 495.50 238.11 495.67 234.82 495.62 231.95 C 491.86 235.23 487.86 238.28 483.49 240.69 C 480.94 242.16 477.83 242.00 475.03 241.52 C 472.92 238.79 473.63 235.13 474.10 231.99 C 475.45 225.19 477.51 218.55 479.12 211.81 C 477.48 211.80 475.84 211.80 474.20 211.81 C 473.17 214.95 470.13 215.16 467.31 214.79 C 465.67 212.94 464.30 210.36 461.55 210.15 C 460.67 211.83 459.02 213.72 460.20 215.68 C 462.26 220.08 467.08 222.60 468.57 227.34 C 469.99 231.25 468.89 235.94 465.62 238.58 C 461.79 242.44 455.95 241.98 450.97 241.69 C 448.20 241.56 446.17 239.49 444.58 237.44 C 440.63 240.78 435.58 242.73 430.36 241.63 C 430.30 239.88 430.34 238.13 430.50 236.39 C 427.43 239.40 423.60 242.48 419.01 241.84 C 415.88 242.44 413.54 239.60 413.28 236.74 C 412.07 228.68 415.79 220.85 420.74 214.72 C 424.54 210.18 429.74 206.04 435.96 206.06 C 439.55 206.26 442.93 204.84 446.51 204.90 C 444.05 214.75 440.46 224.41 439.42 234.57 C 442.88 232.95 445.61 228.98 449.87 230.02 C 453.16 230.02 452.04 234.16 452.83 236.27 C 455.95 240.63 463.57 234.65 460.66 230.42 C 457.88 226.01 452.72 222.67 452.44 217.02 C 451.69 211.49 456.54 206.39 461.93 206.06 C 464.89 206.01 468.14 205.47 470.85 207.00 C 473.55 208.98 476.97 207.74 480.06 207.96 C 480.82 205.13 481.65 202.31 482.41 199.48 M 511.68 210.60 C 508.11 213.83 506.94 218.78 505.96 223.31 C 509.54 221.25 513.43 218.76 514.83 214.66 C 515.62 212.63 514.25 209.31 511.68 210.60 M 431.45 211.60 C 426.42 213.53 424.20 219.04 422.55 223.76 C 421.71 227.15 420.43 231.53 423.13 234.40 C 425.32 235.03 427.20 233.01 428.75 231.72 C 433.70 226.36 434.11 218.64 436.20 211.97 C 435.20 209.83 433.08 211.21 431.45 211.60 Z"
       id="path3812" />
    <path
       fill="#ffffff"
       stroke="#ffffff"
       stroke-width="0.09375"
       opacity="1.00"
       d=" M 213.92 205.89 C 216.01 204.53 218.34 203.74 220.86 203.92 C 217.99 215.22 214.17 226.35 212.77 237.97 C 212.50 244.40 212.95 251.98 207.71 256.72 C 202.70 262.12 194.79 262.30 187.98 261.61 C 183.09 261.02 178.55 256.16 180.01 251.05 C 180.94 245.91 186.23 243.64 190.36 241.47 C 186.28 238.52 187.08 233.12 187.88 228.82 C 189.96 220.51 195.13 212.85 202.40 208.23 C 205.84 206.04 209.99 206.02 213.92 205.89 M 201.51 214.51 C 198.04 218.90 196.67 224.58 195.71 229.99 C 195.35 232.05 196.13 236.03 198.94 235.37 C 202.36 233.70 204.92 230.54 206.12 226.95 C 207.95 221.64 209.38 216.16 210.30 210.62 C 207.11 211.08 203.60 211.79 201.51 214.51 M 189.06 248.06 C 186.35 250.27 186.26 254.75 189.49 256.53 C 193.14 259.64 197.92 256.51 200.68 253.67 C 205.08 249.18 204.63 242.45 204.97 236.65 C 199.79 240.62 193.96 243.73 189.06 248.06 Z"
       id="path3814" />
    <path
       fill="#ffffff"
       stroke="#ffffff"
       stroke-width="0.09375"
       opacity="1.00"
       d=" M 240.96 206.06 C 244.55 206.26 247.93 204.84 251.51 204.90 C 249.04 214.74 245.48 224.39 244.41 234.55 C 247.21 233.14 249.62 230.20 253.07 231.16 C 253.14 231.85 253.28 233.24 253.35 233.93 C 248.76 238.83 242.46 243.26 235.36 241.63 C 235.31 239.88 235.34 238.13 235.50 236.39 C 232.43 239.40 228.60 242.48 224.01 241.84 C 220.87 242.44 218.54 239.59 218.28 236.73 C 217.08 228.68 220.79 220.85 225.73 214.72 C 229.54 210.19 234.74 206.04 240.96 206.06 M 236.45 211.60 C 231.42 213.54 229.20 219.04 227.55 223.76 C 226.71 227.15 225.43 231.52 228.13 234.39 C 230.32 235.05 232.20 233.00 233.75 231.72 C 238.70 226.36 239.11 218.64 241.20 211.97 C 240.20 209.83 238.08 211.21 236.45 211.60 Z"
       id="path3816" />
    <path
       fill="#ffffff"
       stroke="#ffffff"
       stroke-width="0.09375"
       opacity="1.00"
       d=" M 121.42 206.55 C 125.72 205.78 131.18 204.95 134.55 208.45 C 137.57 211.44 137.88 215.98 137.66 219.99 C 137.40 228.09 132.29 235.40 125.65 239.74 C 122.23 242.09 117.93 241.99 113.97 241.74 C 109.23 241.50 105.91 236.59 106.06 232.10 C 105.36 221.69 111.07 209.95 121.42 206.55 M 122.50 210.55 C 115.67 215.14 114.26 224.51 115.63 232.07 C 116.19 234.56 118.06 238.95 121.27 237.24 C 125.45 234.64 127.16 229.54 128.06 224.94 C 128.62 220.56 128.87 215.59 126.26 211.78 C 125.54 210.55 123.78 209.83 122.50 210.55 Z"
       id="path3818" />
    <path
       fill="#ffffff"
       stroke="#ffffff"
       stroke-width="0.09375"
       opacity="1.00"
       d=" M 154.51 213.03 C 158.93 210.00 163.01 205.00 168.94 205.93 C 174.69 213.10 176.93 222.27 178.16 231.19 C 180.22 227.05 181.98 222.63 182.38 217.98 C 182.50 214.21 179.90 210.28 181.61 206.62 C 184.02 205.39 188.90 205.33 189.08 209.01 C 189.43 219.92 184.94 230.33 179.76 239.72 C 175.20 247.77 169.84 256.18 161.21 260.30 C 157.76 262.10 153.75 261.97 149.99 261.70 C 146.22 261.79 145.04 255.90 148.33 254.31 C 152.03 253.21 155.86 254.77 159.56 254.60 C 166.62 251.73 172.02 243.93 170.87 236.15 C 169.92 228.15 168.69 219.58 163.36 213.17 C 160.70 214.03 158.42 216.13 155.48 215.84 C 155.24 215.14 154.75 213.73 154.51 213.03 Z"
       id="path3820" />
    <path
       fill="#ffffff"
       stroke="#ffffff"
       stroke-width="0.09375"
       opacity="1.00"
       d=" M 252.85 212.90 C 257.14 208.64 262.89 204.90 269.23 206.11 C 269.33 208.11 268.96 210.09 268.54 212.04 C 272.78 208.36 277.88 204.61 283.85 206.22 C 284.28 207.94 284.57 209.69 284.84 211.44 C 288.50 208.40 292.77 204.92 297.89 206.07 C 300.85 206.16 300.71 209.87 300.49 212.00 C 298.80 220.25 295.41 228.08 293.99 236.40 C 296.61 234.52 298.10 230.92 301.63 230.55 C 302.60 222.78 305.95 215.12 311.68 209.69 C 315.56 205.87 321.50 205.22 326.58 206.46 C 330.31 208.51 329.88 213.74 327.99 216.92 C 323.87 222.70 316.85 225.06 310.72 228.04 C 310.58 230.30 309.98 234.48 313.17 234.70 C 318.01 234.03 320.89 228.70 325.93 228.83 C 326.20 230.17 327.55 231.93 325.97 232.95 C 321.26 237.24 315.82 242.16 309.00 241.85 C 307.15 241.70 304.77 242.14 303.49 240.45 C 302.22 238.96 302.03 236.92 301.45 235.14 C 297.94 238.24 294.35 242.80 289.07 241.81 C 286.43 242.17 285.75 239.03 285.79 237.04 C 286.24 228.73 290.49 221.24 291.76 213.08 C 287.50 215.14 283.48 218.48 282.17 223.20 C 280.40 228.99 278.84 234.85 277.58 240.77 C 274.78 240.81 271.98 240.81 269.19 240.74 C 271.33 231.53 273.72 222.37 275.84 213.14 C 271.75 215.77 267.48 218.98 266.04 223.87 C 264.25 229.40 263.31 235.16 261.81 240.77 C 259.02 240.81 256.23 240.80 253.44 240.77 C 255.50 231.44 258.01 222.21 259.90 212.85 C 257.66 214.30 255.63 218.14 252.55 216.43 C 252.24 215.30 251.62 213.73 252.85 212.90 M 317.67 210.61 C 314.11 213.84 312.94 218.79 311.96 223.31 C 315.53 221.25 319.44 218.76 320.83 214.65 C 321.63 212.63 320.24 209.31 317.67 210.61 Z"
       id="path3822" />
  </g>
</svg>
