<?xml version="1.0" encoding="UTF-8" standalone="no"?>
<svg
   xmlns:dc="http://purl.org/dc/elements/1.1/"
   xmlns:cc="http://creativecommons.org/ns#"
   xmlns:rdf="http://www.w3.org/1999/02/22-rdf-syntax-ns#"
   xmlns:svg="http://www.w3.org/2000/svg"
   xmlns="http://www.w3.org/2000/svg"
   xmlns:sodipodi="http://sodipodi.sourceforge.net/DTD/sodipodi-0.dtd"
   xmlns:inkscape="http://www.inkscape.org/namespaces/inkscape"
   width="1895pt"
   height="350pt"
   viewBox="0 0 1895 350"
   version="1.1"
   id="svg3336"
   inkscape:version="0.91 r13725"
   sodipodi:docname="Konami-Logo-350px-high.svg">
  <metadata
     id="metadata3362">
    <rdf:RDF>
      <cc:Work
         rdf:about="">
        <dc:format>image/svg+xml</dc:format>
        <dc:type
           rdf:resource="http://purl.org/dc/dcmitype/StillImage" />
      </cc:Work>
    </rdf:RDF>
  </metadata>
  <defs
     id="defs3360" />
  <sodipodi:namedview
     pagecolor="#ffffff"
     bordercolor="#666666"
     borderopacity="1"
     objecttolerance="10"
     gridtolerance="10"
     guidetolerance="10"
     inkscape:pageopacity="0"
     inkscape:pageshadow="2"
     inkscape:window-width="1920"
     inkscape:window-height="1027"
     id="namedview3358"
     showgrid="false"
     inkscape:zoom="0.74511873"
     inkscape:cx="1184.375"
     inkscape:cy="218.75"
     inkscape:window-x="-8"
     inkscape:window-y="-8"
     inkscape:window-maximized="1"
     inkscape:current-layer="svg3336" />
  <g
     id="#fcfefcff" />
  <g
     id="g3412">
    <g
       transform="translate(41.6,0)"
       id="#f49e0cff">
      <path
         style="opacity:1;fill:#f49e0c;stroke:#f49e0c;stroke-width:0.09375"
         inkscape:connector-curvature="0"
         id="path3340"
         d="m 249.61,0 22.78,0 c 16.52,1.35 33.11,3.02 49.19,7.24 -4.34,15.61 -10.15,30.77 -15.3,46.12 -9.02,26.32 -29.34,49.61 -55.87,59.07 -12.76,4.59 -26.49,4.74 -39.68,7.34 -8.6,1.79 -17.55,2.6 -25.6,6.37 -13.65,5.96 -25.3,16.11 -33.44,28.56 -7.48,11.17 -13.95,23.22 -17.72,36.17 -1.6,9.77 -1.1,20.18 -5.89,29.19 -4.32,9.25 -14.13,14.4 -23.78,16.24 -16.23,3.13 -32.88,2.06 -49.28,1.23 C 36.65,236.05 18.33,234.01 0,232.11 l 0,-1.68 c 4.78,-14.29 8.66,-28.92 14.63,-42.79 4.11,-9.28 8.25,-18.61 13.85,-27.11 9.08,-14.47 22.68,-26.06 38.52,-32.51 18.65,-7.69 39.21,-7.91 58.4,-13.64 16.06,-3.75 31.06,-12.63 41.42,-25.54 7.98,-10.13 13.53,-21.96 17.94,-34 3.44,-9.27 4,-19.31 7.5,-28.55 3.11,-8.21 9.88,-14.6 17.78,-18.2 C 222.42,2.37 236.22,1.27 249.61,0 Z" />
    </g>
    <path
       d="m 801.28574,36.43972 c 20.41639,-2.345181 41.39509,-0.964945 61.1194,5.728594 14.95543,4.849151 28.53752,15.292536 37.29667,29.913275 10.66237,17.295712 13.00896,39.355071 11.01923,59.887621 -1.70858,23.0976 -10.03518,44.54623 -17.2047,65.98266 -7.42906,20.96005 -14.923,42.12776 -25.98548,61.06021 -9.39716,16.30634 -22.0817,30.2675 -36.98307,40.07573 -16.026,10.38231 -34.07417,16.59948 -52.39269,19.07902 -21.04358,2.66276 -42.61704,1.67339 -63.1632,-4.39721 -15.11764,-4.45829 -29.25123,-14.37645 -38.14014,-29.08269 -6.60721,-11.09075 -11.28957,-23.83046 -12.4899,-37.20532 -1.87078,-22.07158 1.16789,-44.49738 7.3858,-65.44522 6.63965,-21.09442 14.17685,-41.85904 23.27122,-61.76865 13.07384,-29.473558 33.45779,-55.978993 60.36243,-69.854648 14.46882,-7.511909 30.13796,-11.76255 45.90443,-13.973372 m -0.0216,52.546718 c -12.94408,2.455111 -25.30421,10.406742 -32.63594,22.889942 -4.34714,7.57299 -7.73185,15.79333 -11.20306,23.90375 -8.98624,21.14328 -16.19902,43.21485 -21.93032,65.75058 -2.34659,9.77159 -5.23386,19.65311 -4.62829,29.91328 -0.0433,7.30426 2.58449,14.44973 7.08302,19.67753 7.39661,9.09979 18.67537,12.93514 29.39181,12.58092 12.06816,0.20765 24.04981,-5.44766 32.47373,-15.19482 11.0733,-13.17943 17.99411,-29.91327 23.44424,-46.81812 8.62939,-24.35569 15.36636,-49.51753 21.10847,-74.93587 2.75751,-13.10615 -3.40634,-27.64138 -13.97138,-33.736412 -8.8781,-5.264443 -19.3999,-5.679736 -29.13228,-4.03078 z"
       id="path3343"
       inkscape:connector-curvature="0"
       style="opacity:1;fill:#748284;stroke:#748284;stroke-width:0.10774505" />
    <path
       d="m 510.15758,43.145473 c 16.85866,-0.806157 33.76057,-0.03664 50.64086,-0.293148 4.77968,-0.04886 9.57018,-0.158788 14.34986,0.280933 -0.97323,5.154513 -2.71425,10.064736 -4.33631,14.987174 -8.1644,26.175643 -16.51262,52.277998 -24.72027,78.441428 -1.7302,5.58202 -3.75238,11.05411 -4.97433,16.80713 3.43878,-2.68718 6.47744,-5.93624 9.53774,-9.14865 30.0947,-30.75607 60.15697,-61.536577 90.25168,-92.280438 2.91971,-2.882618 5.49339,-6.29046 8.85647,-8.55014 2.70344,-0.891657 5.5799,-0.574081 8.38067,-0.635153 22.7846,0.35422 45.58001,-0.342006 68.3538,0.342006 -8.75915,10.602173 -18.4591,20.17833 -27.66161,30.291924 -28.89438,31.342371 -58.15642,62.257231 -86.87778,93.795041 0.6272,6.90118 2.74669,13.46036 4.09842,20.20276 9.2782,41.77354 18.77269,83.48601 27.813,125.32062 -25.05549,0.0855 -50.1218,0.0733 -75.17729,0.0122 -2.13031,-6.1561 -3.15762,-12.69085 -4.67155,-19.04238 -9.60262,-41.55368 -18.84839,-83.21729 -28.55915,-124.73433 -0.6272,1.18481 -1.28684,2.34518 -1.79508,3.59106 -15.70159,45.75546 -31.5005,91.4865 -47.22371,137.24196 -0.45418,3.16355 -3.36308,3.1147 -5.60153,3.06584 -19.82163,-0.23208 -39.64326,0.0244 -59.46489,-0.12215 0.73533,-3.65213 1.77345,-7.20654 3.02785,-10.67546 28.64566,-86.27091 57.02098,-172.67618 85.75315,-258.898237 z"
       id="path3345"
       inkscape:connector-curvature="0"
       style="opacity:1;fill:#748284;stroke:#748284;stroke-width:0.10774505" />
    <path
       d="m 968.70444,43.279832 c 5.29875,-0.867229 10.66237,-0.403078 15.99356,-0.439722 21.6275,-0.01221 43.2659,-0.01221 64.8934,-0.01221 5.2555,0 10.565,-0.390864 15.7881,0.59851 -0.2704,19.909611 1.2544,39.770365 1.1787,59.67997 0.1297,9.78381 0.7461,19.55539 0.7245,29.35141 -0.1298,13.85123 1.1462,27.66581 1.0705,41.52925 -0.097,17.50336 1.5032,34.95786 1.3734,52.47344 -0.011,3.40784 0.1622,6.80346 0.4974,10.18688 2.8981,-5.83853 4.2715,-12.39771 6.4342,-18.57824 18.232,-56.79736 36.5181,-113.57029 54.6744,-170.392069 0.5083,-1.526811 1.0814,-3.041407 1.6761,-4.556003 12.1872,-0.73287 24.4067,-0.07329 36.6154,-0.293148 7.9265,0.146574 15.8747,-0.378649 23.7903,0.305362 -6.791,22.511297 -14.6851,44.607302 -21.887,66.959808 -17.2155,52.20471 -34.4959,104.37278 -51.7331,156.56528 -5.2338,15.30475 -9.8946,30.866 -15.4528,46.01197 -30.7976,0.20764 -61.5952,0.0122 -92.3928,0.0977 -1.1355,-9.22194 -0.2487,-18.5538 -0.93,-27.8246 -0.9732,-14.57188 -0.4758,-29.20483 -1.3625,-43.77671 -0.9841,-16.28191 -0.7137,-32.61268 -1.4707,-48.90681 0.2055,-17.51557 -1.6113,-34.95785 -1.4923,-52.47343 -0.1622,-9.01429 -0.4974,-18.02858 -0.8759,-27.03065 -3.0387,7.03554 -4.8338,14.62074 -7.2777,21.925 -14.24171,44.99816 -28.38611,90.02076 -42.62784,135.01892 -4.67155,14.29095 -8.80241,28.81398 -13.76592,42.98278 -20.32988,0.19543 -40.65976,0.0122 -60.98963,0.0855 29.33774,-89.76425 58.14561,-179.76059 87.54823,-269.488194 z"
       id="path3347"
       inkscape:connector-curvature="0"
       style="opacity:1;fill:#748284;stroke:#748284;stroke-width:0.10774505" />
    <path
       d="m 1268.6999,53.772075 c 2.3357,-3.505557 3.8064,-8.122633 7.083,-10.626602 9.635,-0.879443 19.3458,-0.02443 29.0133,-0.317577 18.0698,0.207646 36.1504,-0.390864 54.1986,0.280933 0.6704,17.540002 -0.6272,35.116647 -0.7786,52.668863 0.065,32.172958 -1.0273,64.321478 -1.2003,96.494438 -0.3028,16.6972 -0.8002,33.3944 -0.7246,50.10382 0.1298,13.85123 -0.7569,27.67802 -0.8542,41.52925 -0.3677,9.55173 0.097,19.10346 -0.3893,28.64297 -20.9463,0.48858 -41.9142,0.19543 -62.8604,0.14657 0.6704,-17.73543 1.7302,-35.47086 1.4598,-53.23072 -10.6732,-0.96495 -21.4112,-0.0977 -32.1061,-0.39087 -15.3771,0.28094 -30.8084,-0.59851 -46.1531,0.59851 -10.8138,17.57665 -21.3788,35.38537 -32.2358,52.92537 -21.4654,0.35422 -42.9415,0.0977 -64.4068,0.12214 3.1468,-8.03713 8.359,-14.74288 12.3601,-22.24258 45.8179,-78.93 91.7764,-157.76229 137.5944,-236.704515 m 15.4961,82.264565 c -12.0574,22.92659 -24.6121,45.5356 -36.5289,68.55991 16.3612,0.50079 32.7981,0.4275 49.1485,-0.3298 0.5732,-23.15866 1.6762,-46.30511 1.9681,-69.47599 0.1406,-8.69671 1.2977,-17.369 0.7029,-26.07793 -5.9367,8.45243 -10.1325,18.26066 -15.2906,27.32381 z"
       id="path3349"
       inkscape:connector-curvature="0"
       style="opacity:1;fill:#748284;stroke:#748284;stroke-width:0.10774505" />
    <path
       d="m 1455.3671,43.32869 c 10.3271,-1.148162 20.7299,-0.13436 31.1003,-0.476365 19.4648,0.01221 38.9296,0 58.3944,0.01221 5.7421,0.02443 11.5058,-0.317576 17.2479,0.342006 -3.2117,30.585072 -7.3209,61.072429 -10.8246,91.633079 -3.1035,26.87187 -6.8126,53.67045 -9.4836,80.60339 9.7324,-16.75828 18.578,-34.17613 27.9968,-51.1787 21.2599,-39.465 42.6819,-78.844506 63.931,-118.321724 0.984,-2.25968 2.9089,-3.407842 5.1581,-3.090265 29.208,-0.01222 58.4268,0.01221 87.6456,0 5.5042,0 11.0192,-0.219861 16.5234,0.280933 -2.1411,9.405154 -5.861,18.211798 -8.6618,27.372663 -17.7994,53.560523 -35.5881,107.145473 -53.4308,160.693783 -9.2241,27.10394 -17.8103,54.48882 -27.2939,81.47062 -20.7408,0.19543 -41.5033,0.0733 -62.2441,0.0488 2.2493,-9.72273 6.1963,-18.82252 9.0728,-28.31317 16.6856,-49.90839 33.4578,-99.79235 50.1434,-149.70074 1.6437,-4.87358 3.3847,-9.72273 4.5418,-14.79174 -5.2447,7.02332 -8.9214,15.31696 -13.6362,22.78001 -29.1863,50.90998 -58.4808,101.73445 -87.6672,152.64443 -3.5144,5.76524 -6.445,11.99463 -10.446,17.35678 -21.4005,0.14658 -42.8117,0.15879 -64.2014,-0.0122 4.412,-60.4617 8.5105,-120.96005 12.5656,-181.4584 0.4758,-5.32552 0.8868,-10.67546 0.8435,-16.03762 -7.2236,19.8119 -13.3009,40.14901 -20.146,60.14413 -14.75,44.80273 -29.6514,89.55661 -44.3365,134.38377 -0.4001,2.46733 -2.3574,3.35898 -4.3795,3.09026 -19.0863,-0.13435 -38.1726,0.0367 -57.2481,-0.0855 2.1303,-9.09979 5.7313,-17.64993 8.4131,-26.54207 26.7965,-80.95762 53.4849,-161.96409 80.422,-242.848414 z"
       id="path3351"
       inkscape:connector-curvature="0"
       style="opacity:1;fill:#748284;stroke:#748284;stroke-width:0.10774505" />
    <path
       d="m 1785.2517,43.353119 c 7.0506,-1.148162 14.1985,-0.24429 21.3032,-0.48858 13.7659,0.195432 27.5642,-0.427507 41.3302,0.293148 -2.2817,9.295224 -5.9152,18.065224 -8.77,27.128373 -25.2069,75.33895 -50.457,150.66568 -75.718,225.96799 -1.914,5.49652 -3.363,11.21289 -5.8394,16.42848 -20.4056,0.15879 -40.822,0.0733 -61.2275,0.0366 2.0113,-9.13643 5.6664,-17.67436 8.3698,-26.55429 26.8398,-80.9454 53.7336,-161.86636 80.5517,-242.811761 z"
       id="path3353"
       inkscape:connector-curvature="0"
       style="opacity:1;fill:#748284;stroke:#748284;stroke-width:0.10774505" />
    <g
       transform="translate(41.6,0)"
       id="#ec0a14ff">
      <path
         style="opacity:1;fill:#ec0a14;stroke:#ec0a14;stroke-width:0.09375"
         inkscape:connector-curvature="0"
         id="path3356"
         d="m 319.13,113.02 c 27.88,-2.8 56.31,-0.63 83.48,6.18 -4.46,15.86 -10.31,31.29 -15.6,46.89 -5.87,17.23 -16.79,32.57 -30.81,44.14 -8.1,6.91 -17.68,12 -27.84,15.12 -10.44,3.35 -21.5,3.65 -32.22,5.59 -7.86,1.44 -15.81,2.52 -23.51,4.71 -14.55,4.69 -27.49,14.12 -36.61,26.37 -8.58,11.51 -15.41,24.31 -20.22,37.83 -2.22,6.44 -1.59,13.38 -2.89,19.99 -1.31,8.14 -4.68,16.48 -11.47,21.54 -8.03,6.09 -18.34,7.51 -28.07,8.62 l -30.75,0 c -20.49,-1.85 -41.02,-3.43 -61.42,-6.2 3.35,-14.35 8.21,-28.34 13.5,-42.09 8.24,-20.5 19.41,-41.17 38.3,-53.68 17.94,-12.72 40.41,-14.91 61.41,-18.74 11.9,-2.85 24.22,-5.49 34.62,-12.25 9.41,-5.61 17.54,-13.35 23.41,-22.62 6.29,-10.01 11.37,-20.85 14.76,-32.19 3.35,-11.23 3.46,-24.18 11.74,-33.31 10.1,-11.23 25.9,-14.13 40.19,-15.9 z" />
    </g>
  </g>
</svg>
