<?xml version="1.0" encoding="UTF-8" standalone="no"?>
<!-- Created with Inkscape (http://www.inkscape.org/) -->

<svg
   xmlns:dc="http://purl.org/dc/elements/1.1/"
   xmlns:cc="http://creativecommons.org/ns#"
   xmlns:rdf="http://www.w3.org/1999/02/22-rdf-syntax-ns#"
   xmlns:svg="http://www.w3.org/2000/svg"
   xmlns="http://www.w3.org/2000/svg"
   xmlns:sodipodi="http://sodipodi.sourceforge.net/DTD/sodipodi-0.dtd"
   xmlns:inkscape="http://www.inkscape.org/namespaces/inkscape"
   width="500"
   height="168.3125"
   id="svg15880"
   version="1.1"
   inkscape:version="0.48.0 r9654"
   sodipodi:docname="New document 4">
  <defs
     id="defs15882">
    <clipPath
       clipPathUnits="userSpaceOnUse"
       id="clipPath11533">
      <path
         inkscape:connector-curvature="0"
         d="m 250.8,172.44 46.02,0 0,49.62 -46.02,0 0,-49.62 z"
         id="path11535" />
    </clipPath>
  </defs>
  <sodipodi:namedview
     id="base"
     pagecolor="#ffffff"
     bordercolor="#666666"
     borderopacity="1.0"
     inkscape:pageopacity="0.0"
     inkscape:pageshadow="2"
     inkscape:zoom="1.979899"
     inkscape:cx="345.10435"
     inkscape:cy="49.632431"
     inkscape:document-units="px"
     inkscape:current-layer="layer1"
     showgrid="false"
     fit-margin-top="0"
     fit-margin-left="0"
     fit-margin-right="0"
     fit-margin-bottom="0"
     inkscape:window-width="1920"
     inkscape:window-height="1028"
     inkscape:window-x="-8"
     inkscape:window-y="-8"
     inkscape:window-maximized="1" />
  <metadata
     id="metadata15885">
    <rdf:RDF>
      <cc:Work
         rdf:about="">
        <dc:format>image/svg+xml</dc:format>
        <dc:type
           rdf:resource="http://purl.org/dc/dcmitype/StillImage" />
        <dc:title></dc:title>
      </cc:Work>
    </rdf:RDF>
  </metadata>
  <g
     inkscape:label="Layer 1"
     inkscape:groupmode="layer"
     id="layer1"
     transform="translate(-157.65625,-150.5)">
    <path
       inkscape:connector-curvature="0"
       id="path11507"
       style="fill:#ffffff;fill-opacity:1;fill-rule:nonzero;stroke:none"
       d="m 161.69577,203.03586 0,22.18561 39.71496,0 0,84.22311 25.60931,0 0,-84.22311 39.85191,0 0,-22.18561 -105.17618,0" />
    <path
       inkscape:connector-curvature="0"
       id="path11509"
       style="fill:none;stroke:#ffffff;stroke-width:8.08222389;stroke-linecap:butt;stroke-linejoin:miter;stroke-miterlimit:4;stroke-opacity:1;stroke-dasharray:none"
       d="m 161.69577,203.03586 0,22.18561 39.71496,0 0,84.22311 25.60931,0 0,-84.22311 39.85191,0 0,-22.18561 -105.17618,0 z" />
    <path
       inkscape:connector-curvature="0"
       id="path11511"
       style="fill:#ffffff;fill-opacity:1;fill-rule:nonzero;stroke:none"
       d="m 404.91568,203.03586 0,22.18561 39.85192,0 0,84.22311 25.6093,0 0,-84.22311 39.71497,0 0,-22.18561 -105.17619,0" />
    <path
       inkscape:connector-curvature="0"
       id="path11513"
       style="fill:none;stroke:#ffffff;stroke-width:8.08222389;stroke-linecap:butt;stroke-linejoin:miter;stroke-miterlimit:4;stroke-opacity:1;stroke-dasharray:none"
       d="m 404.91568,203.03586 0,22.18561 39.85192,0 0,84.22311 25.6093,0 0,-84.22311 39.71497,0 0,-22.18561 -105.17619,0 z" />
    <path
       inkscape:connector-curvature="0"
       id="path11515"
       style="fill:#ffffff;fill-opacity:1;fill-rule:nonzero;stroke:none"
       d="m 371.91118,309.44458 24.92456,0 0,-106.40872 -24.92456,0 0,106.40872 z" />
    <path
       inkscape:connector-curvature="0"
       id="path11517"
       style="fill:none;stroke:#ffffff;stroke-width:8.08222389;stroke-linecap:butt;stroke-linejoin:miter;stroke-miterlimit:4;stroke-opacity:1;stroke-dasharray:none"
       d="m 396.83574,203.03586 -24.92456,0 0,106.40872 24.92456,0 0,-106.40872 z m -24.92456,0 z" />
    <path
       inkscape:connector-curvature="0"
       id="path11519"
       style="fill:#ffffff;fill-opacity:1;fill-rule:nonzero;stroke:none"
       d="m 574.7314,199.74911 c -35.60652,0 -64.63953,26.1571 -64.63953,57.79212 0,31.77198 29.03301,57.24433 64.63953,57.24433 35.74347,0 64.77648,-25.47235 64.77648,-57.24433 0,-31.63502 -29.03301,-57.79212 -64.77648,-57.79212 z m 0,94.22033 c -20.81612,0 -37.66074,-16.15988 -37.66074,-36.42821 0,-20.81612 16.84462,-36.976 37.66074,-36.976 20.95307,0 37.79769,16.15988 37.79769,36.976 0,20.26833 -16.84462,36.42821 -37.79769,36.42821" />
    <path
       inkscape:connector-curvature="0"
       id="path11521"
       style="fill:none;stroke:#ffffff;stroke-width:8.08222389;stroke-linecap:butt;stroke-linejoin:miter;stroke-miterlimit:4;stroke-opacity:1;stroke-dasharray:none"
       d="m 574.7314,199.74911 c -35.60652,0 -64.63953,26.1571 -64.63953,57.79212 0,31.77198 29.03301,57.24433 64.63953,57.24433 35.74347,0 64.77648,-25.47235 64.77648,-57.24433 0,-31.63502 -29.03301,-57.79212 -64.77648,-57.79212 z m 0,94.22033 c -20.81612,0 -37.66074,-16.15988 -37.66074,-36.42821 0,-20.81612 16.84462,-36.976 37.66074,-36.976 20.95307,0 37.79769,16.15988 37.79769,36.976 0,20.26833 -16.84462,36.42821 -37.79769,36.42821 z" />
    <path
       inkscape:connector-curvature="0"
       id="path11523"
       style="fill:#ffffff;fill-opacity:1;fill-rule:nonzero;stroke:none"
       d="m 639.50788,217.14152 c -7.3952,0 -13.55787,-6.02571 -13.55787,-13.42092 0,-7.3952 6.16267,-13.42092 13.55787,-13.42092 7.3952,0 14.10566,6.02572 14.10566,13.42092 0,7.39521 -6.71046,13.42092 -14.10566,13.42092" />
    <path
       inkscape:connector-curvature="0"
       id="path11525"
       style="fill:none;stroke:#ffffff;stroke-width:8.08222389;stroke-linecap:butt;stroke-linejoin:miter;stroke-miterlimit:4;stroke-opacity:1;stroke-dasharray:none"
       d="m 639.50788,217.14152 c -7.3952,0 -13.55787,-6.02571 -13.55787,-13.42092 0,-7.3952 6.16267,-13.42092 13.55787,-13.42092 7.3952,0 14.10566,6.02572 14.10566,13.42092 0,7.39521 -6.71046,13.42092 -14.10566,13.42092 z" />
    <path
       inkscape:connector-curvature="0"
       id="path11527"
       style="fill:#ffffff;fill-opacity:1;fill-rule:nonzero;stroke:none"
       d="m 323.43155,224.53672 c -15.47515,20.95307 -24.92457,47.93186 -24.23983,83.53838 0,0.68474 0,1.36948 0,1.36948 70.66523,0 70.66523,0 70.66523,0" />
    <g
       transform="matrix(2.2824694,0,0,-2.2824694,-290.64403,714.67414)"
       id="g11529">
      <g
         clip-path="url(#clipPath11533)"
         id="g11531">
        <path
           inkscape:connector-curvature="0"
           id="path11537"
           style="fill:none;stroke:#ffffff;stroke-width:3.54099989;stroke-linecap:butt;stroke-linejoin:miter;stroke-miterlimit:4;stroke-opacity:1;stroke-dasharray:none"
           d="m 269.04,214.74 c -6.78,-9.18 -10.92,-21 -10.62,-36.6 0,-0.3 0,-0.6 0,-0.6 30.96,0 30.96,0 30.96,0 l -20.34,37.2 z" />
      </g>
    </g>
    <path
       inkscape:connector-curvature="0"
       id="path11539"
       style="fill:#ffffff;fill-opacity:1;fill-rule:nonzero;stroke:none"
       d="M 318.63836,216.45678 C 303.84796,188.9302 303.84796,188.9302 303.84796,188.9302 237.1542,309.44458 237.1542,309.44458 237.1542,309.44458 c 35.74347,0 35.74347,0 35.74347,0 2.73897,-33.0045 20.81612,-68.61102 45.74069,-92.9878" />
    <path
       inkscape:connector-curvature="0"
       id="path11541"
       style="fill:none;stroke:#ffffff;stroke-width:8.08222389;stroke-linecap:butt;stroke-linejoin:miter;stroke-miterlimit:4;stroke-opacity:1;stroke-dasharray:none"
       d="M 318.63836,216.45678 C 303.84796,188.9302 303.84796,188.9302 303.84796,188.9302 237.1542,309.44458 237.1542,309.44458 237.1542,309.44458 c 35.74347,0 35.74347,0 35.74347,0 2.73897,-33.0045 20.81612,-68.61102 45.74069,-92.9878 z" />
    <path
       inkscape:connector-curvature="0"
       id="path11543"
       style="fill:#ffffff;fill-opacity:1;fill-rule:nonzero;stroke:none"
       d="m 383.41482,154.55621 c -10.8189,0 -18.89884,8.76469 -18.89884,19.58359 0,10.68196 8.07994,19.44664 18.89884,19.44664 10.81891,0 19.58359,-8.76468 19.58359,-19.44664 0,-10.8189 -8.76468,-19.58359 -19.58359,-19.58359" />
    <path
       inkscape:connector-curvature="0"
       id="path11545"
       style="fill:none;stroke:#ffffff;stroke-width:8.08222389;stroke-linecap:butt;stroke-linejoin:miter;stroke-miterlimit:4;stroke-opacity:1;stroke-dasharray:none"
       d="m 383.41482,154.55621 c -10.8189,0 -18.89884,8.76469 -18.89884,19.58359 0,10.68196 8.07994,19.44664 18.89884,19.44664 10.81891,0 19.58359,-8.76468 19.58359,-19.44664 0,-10.8189 -8.76468,-19.58359 -19.58359,-19.58359 z" />
    <path
       inkscape:connector-curvature="0"
       id="path11547"
       style="fill:#ffffff;fill-opacity:1;fill-rule:nonzero;stroke:#ffffff;stroke-width:8.08222389;stroke-linecap:butt;stroke-linejoin:miter;stroke-miterlimit:4;stroke-opacity:1;stroke-dasharray:none"
       d="m 353.69707,192.9017 c -12.05144,4.79319 -24.23981,13.55787 -35.05871,23.55508 4.79319,8.07994 4.79319,8.07994 4.79319,8.07994 8.76468,-12.05143 19.58356,-21.50086 31.635,-28.89606 l -1.36948,-2.73896 z" />
    <path
       inkscape:connector-curvature="0"
       id="path11549"
       style="fill:#333333;fill-opacity:1;fill-rule:nonzero;stroke:none"
       d="m 161.69577,203.03586 0,22.18561 39.71496,0 0,84.22311 25.60931,0 0,-84.22311 39.85191,0 0,-22.18561 -105.17618,0" />
    <path
       inkscape:connector-curvature="0"
       id="path11551"
       style="fill:#333333;fill-opacity:1;fill-rule:nonzero;stroke:none"
       d="m 404.91568,203.03586 0,22.18561 39.85192,0 0,84.22311 25.6093,0 0,-84.22311 39.71497,0 0,-22.18561 -105.17619,0" />
    <path
       inkscape:connector-curvature="0"
       id="path11553"
       style="fill:#333333;fill-opacity:1;fill-rule:nonzero;stroke:none"
       d="m 371.91118,309.44458 24.92456,0 0,-106.40872 -24.92456,0 0,106.40872 z" />
    <path
       inkscape:connector-curvature="0"
       id="path11555"
       style="fill:#333333;fill-opacity:1;fill-rule:nonzero;stroke:none"
       d="m 574.7314,199.74911 c -35.60652,0 -64.63953,26.1571 -64.63953,57.79212 0,31.77198 29.03301,57.24433 64.63953,57.24433 35.74347,0 64.77648,-25.47235 64.77648,-57.24433 0,-31.63502 -29.03301,-57.79212 -64.77648,-57.79212 z m 0,94.22033 c -20.81612,0 -37.66074,-16.15988 -37.66074,-36.42821 0,-20.81612 16.84462,-36.976 37.66074,-36.976 20.95307,0 37.79769,16.15988 37.79769,36.976 0,20.26833 -16.84462,36.42821 -37.79769,36.42821" />
    <path
       inkscape:connector-curvature="0"
       id="path11557"
       style="fill:#333333;fill-opacity:1;fill-rule:nonzero;stroke:none"
       d="m 639.50788,187.56072 c -8.76468,0 -16.15988,7.3952 -16.15988,16.15988 0,8.76469 7.3952,16.15989 16.15988,16.15989 9.44943,0 16.15989,-7.3952 16.15989,-16.15989 0,-8.76468 -6.71046,-16.15988 -16.15989,-16.15988 z m 0,29.5808 c -7.3952,0 -13.55787,-6.02571 -13.55787,-13.42092 0,-7.3952 6.16267,-13.42092 13.55787,-13.42092 7.3952,0 14.10566,6.02572 14.10566,13.42092 0,7.39521 -6.71046,13.42092 -14.10566,13.42092" />
    <path
       inkscape:connector-curvature="0"
       id="path11559"
       style="fill:#333333;fill-opacity:1;fill-rule:nonzero;stroke:none"
       d="m 632.79742,212.48529 c 3.28676,0 3.28676,0 3.28676,0 0,-6.71046 0,-6.71046 0,-6.71046 0,-2.73897 0,-2.73897 0,-2.73897 0,-4.65623 0,-4.65623 0,-4.65623 0,0 5.34098,0 6.71046,0 1.36948,0 2.05422,1.36948 2.05422,1.91727 0,1.36948 -0.68474,2.73896 -2.05422,2.73896 -1.36948,0 -6.71046,0 -6.71046,0 0,2.73897 0,2.73897 0,2.73897 4.10844,0 4.10844,0 4.10844,0 3.9715,6.02572 3.9715,6.02572 3.9715,6.02572 3.4237,0.68474 3.4237,0.68474 3.4237,0.68474 -4.10844,-6.71046 -4.10844,-6.71046 -4.10844,-6.71046 2.05422,0 4.10844,-2.73897 4.10844,-5.47793 0,-2.60201 -2.05422,-4.65624 -4.10844,-4.65624 -2.05422,0 -10.68196,0 -10.68196,0" />
    <path
       inkscape:connector-curvature="0"
       id="path11561"
       style="fill:#0860a8;fill-opacity:1;fill-rule:nonzero;stroke:none"
       d="m 323.43155,224.53672 c -15.47515,20.95307 -24.92457,47.93186 -24.23983,83.53838 0,0.68474 0,1.36948 0,1.36948 70.66523,0 70.66523,0 70.66523,0" />
    <path
       inkscape:connector-curvature="0"
       id="path11563"
       style="fill:#0860a8;fill-opacity:1;fill-rule:nonzero;stroke:none"
       d="M 318.63836,216.45678 C 303.84796,188.9302 303.84796,188.9302 303.84796,188.9302 237.1542,309.44458 237.1542,309.44458 237.1542,309.44458 c 35.74347,0 35.74347,0 35.74347,0 2.73897,-33.0045 20.81612,-68.61102 45.74069,-92.9878" />
    <path
       inkscape:connector-curvature="0"
       id="path11565"
       style="fill:#0860a8;fill-opacity:1;fill-rule:nonzero;stroke:none"
       d="m 383.41482,154.55621 c -10.8189,0 -18.89884,8.76469 -18.89884,19.58359 0,10.68196 8.07994,19.44664 18.89884,19.44664 10.81891,0 19.58359,-8.76468 19.58359,-19.44664 0,-10.8189 -8.76468,-19.58359 -19.58359,-19.58359" />
    <path
       inkscape:connector-curvature="0"
       id="path11567"
       style="fill:#0860a8;fill-opacity:1;fill-rule:nonzero;stroke:none"
       d="m 353.69707,192.9017 c -12.05144,4.79319 -24.23981,13.55787 -35.05871,23.55508 4.79319,8.07994 4.79319,8.07994 4.79319,8.07994 8.76468,-12.05143 19.58356,-21.50086 31.635,-28.89606" />
  </g>
</svg>
