<?xml version="1.0" encoding="UTF-8" ?>
<!DOCTYPE svg PUBLIC "-//W3C//DTD SVG 1.1//EN" "http://www.w3.org/Graphics/SVG/1.1/DTD/svg11.dtd">
<svg width="445pt" height="98pt" viewBox="0 0 445 98" version="1.1" xmlns="http://www.w3.org/2000/svg">
<g id="#d81a16ff">
<path fill="#d81a16" stroke="#d81a16" stroke-width="0.09375" opacity="1.00" d=" M 0.00 0.00 L 445.00 0.00 L 445.00 98.00 L 0.00 98.00 L 0.00 58.34 C 3.65 55.38 8.47 52.29 8.32 46.94 C 8.89 41.29 3.90 37.81 0.00 34.77 L 0.00 0.00 M 388.42 13.63 C 377.45 15.42 367.86 22.86 362.24 32.29 C 356.84 41.71 356.45 53.56 360.48 63.55 C 363.47 70.93 369.26 76.92 376.03 80.96 C 383.13 85.28 391.90 86.27 400.00 84.89 C 410.04 82.65 419.10 76.18 424.39 67.33 C 433.06 53.66 430.16 34.43 418.99 23.02 C 411.09 15.23 399.32 11.81 388.42 13.63 M 26.43 15.51 C 26.33 38.17 26.43 60.84 26.38 83.50 C 31.78 83.42 37.19 83.44 42.59 83.40 C 42.88 60.74 42.71 38.06 42.67 15.39 C 37.26 15.42 31.85 15.47 26.43 15.51 M 64.76 19.76 C 59.32 25.96 53.43 31.75 47.94 37.90 C 45.62 40.34 46.29 43.97 46.11 47.03 C 46.07 50.03 46.20 53.29 48.35 55.63 C 54.81 63.51 61.23 71.44 67.66 79.34 C 69.30 81.23 71.14 83.54 73.92 83.41 C 80.10 83.69 86.30 83.50 92.47 83.20 C 88.44 77.75 83.73 72.85 79.09 67.92 C 72.76 60.73 66.19 53.76 59.64 46.78 C 64.20 41.64 69.24 36.94 73.77 31.77 C 78.40 26.16 84.03 21.44 88.38 15.59 C 82.62 15.41 76.84 15.08 71.07 15.44 C 68.30 15.51 66.56 18.00 64.76 19.76 M 119.26 15.78 C 120.37 18.92 121.61 22.00 123.06 24.99 C 130.15 39.60 136.58 54.50 143.13 69.35 C 134.56 69.50 125.98 69.55 117.42 69.29 C 120.94 60.00 125.30 51.02 128.20 41.50 C 122.89 41.36 117.58 41.32 112.27 41.37 C 108.92 48.38 105.82 55.51 102.58 62.57 C 99.61 69.25 95.72 75.79 95.44 83.30 C 119.52 83.58 143.61 83.60 167.69 83.29 C 159.81 62.83 149.25 43.53 140.58 23.40 C 139.21 20.85 138.39 17.52 135.82 15.93 C 130.35 15.10 124.77 15.69 119.26 15.78 M 173.25 15.82 C 172.87 20.20 172.69 24.60 172.72 29.00 C 172.75 47.10 172.70 65.21 172.75 83.31 C 178.38 83.45 184.03 83.57 189.67 83.26 C 190.09 65.63 189.16 47.96 190.17 30.35 C 195.64 30.35 201.15 29.86 206.59 30.56 C 212.88 31.57 217.53 37.67 217.41 43.94 C 217.49 57.01 217.45 70.08 217.37 83.14 C 222.67 83.34 227.98 83.36 233.29 83.18 C 233.48 69.79 233.27 56.40 233.41 43.01 C 233.40 38.95 233.55 34.78 232.26 30.88 C 230.41 25.31 226.09 20.77 220.96 18.03 C 216.05 15.53 210.36 15.70 205.00 15.63 C 194.41 15.74 183.83 15.46 173.25 15.82 M 244.86 15.82 C 244.69 19.96 244.68 24.10 244.80 28.24 C 265.06 28.56 285.34 28.61 305.59 28.21 C 305.63 24.08 305.63 19.94 305.61 15.81 C 285.36 15.52 265.10 15.49 244.86 15.82 M 333.73 17.83 C 327.31 24.41 321.45 31.52 315.23 38.29 C 311.85 41.64 312.04 46.67 312.50 51.04 C 312.70 53.20 314.27 54.84 315.57 56.46 C 320.91 62.45 325.90 68.75 331.26 74.73 C 333.84 77.55 336.01 80.86 339.23 83.02 C 345.53 84.10 352.01 83.36 358.37 83.20 C 353.68 76.78 347.95 71.24 342.74 65.27 C 337.38 59.07 331.63 53.23 326.30 47.00 C 331.53 40.70 337.87 35.46 343.21 29.27 C 347.01 24.89 351.12 20.78 354.89 16.38 C 350.29 15.61 345.61 15.43 340.94 15.53 C 338.36 15.52 335.52 15.71 333.73 17.83 M 244.80 39.74 C 244.50 54.24 244.69 68.75 244.74 83.25 C 264.84 83.52 284.95 83.30 305.05 83.28 C 305.19 78.41 305.23 73.54 305.16 68.66 C 289.86 68.48 274.56 68.57 259.27 68.62 C 259.27 63.56 259.32 58.51 259.40 53.46 C 274.68 53.38 289.97 53.63 305.25 53.33 C 305.38 48.76 305.39 44.20 305.30 39.64 C 285.13 39.54 264.96 39.35 244.80 39.74 Z" />
<path fill="#d81a16" stroke="#d81a16" stroke-width="0.09375" opacity="1.00" d=" M 389.44 28.67 C 394.29 27.47 399.62 28.30 403.69 31.26 C 413.26 37.50 414.48 51.68 409.05 61.04 C 404.51 69.04 393.29 71.87 385.26 67.67 C 374.98 62.34 372.68 48.26 377.33 38.42 C 379.49 33.42 384.28 30.01 389.44 28.67 Z" />
</g>
<g id="#ffffffff">
<path fill="#ffffff" stroke="#ffffff" stroke-width="0.09375" opacity="1.00" d=" M 388.42 13.63 C 399.32 11.81 411.09 15.23 418.99 23.02 C 430.16 34.43 433.06 53.66 424.39 67.33 C 419.10 76.18 410.04 82.65 400.00 84.89 C 391.90 86.27 383.13 85.28 376.03 80.96 C 369.26 76.92 363.47 70.93 360.48 63.55 C 356.45 53.56 356.84 41.71 362.24 32.29 C 367.86 22.86 377.45 15.42 388.42 13.63 M 389.44 28.67 C 384.28 30.01 379.49 33.42 377.33 38.42 C 372.68 48.26 374.98 62.34 385.26 67.67 C 393.29 71.87 404.51 69.04 409.05 61.04 C 414.48 51.68 413.26 37.50 403.69 31.26 C 399.62 28.30 394.29 27.47 389.44 28.67 Z" />
<path fill="#ffffff" stroke="#ffffff" stroke-width="0.09375" opacity="1.00" d=" M 26.43 15.51 C 31.85 15.47 37.26 15.42 42.67 15.39 C 42.71 38.06 42.88 60.74 42.59 83.40 C 37.19 83.44 31.78 83.42 26.38 83.50 C 26.43 60.84 26.33 38.17 26.43 15.51 Z" />
<path fill="#ffffff" stroke="#ffffff" stroke-width="0.09375" opacity="1.00" d=" M 64.76 19.76 C 66.56 18.00 68.30 15.51 71.07 15.44 C 76.84 15.08 82.62 15.41 88.38 15.59 C 84.03 21.44 78.40 26.16 73.77 31.77 C 69.24 36.94 64.20 41.64 59.64 46.78 C 66.19 53.76 72.76 60.73 79.09 67.92 C 83.73 72.85 88.44 77.75 92.47 83.20 C 86.30 83.50 80.10 83.69 73.92 83.41 C 71.14 83.54 69.30 81.23 67.66 79.34 C 61.23 71.44 54.81 63.51 48.35 55.63 C 46.20 53.29 46.07 50.03 46.11 47.03 C 46.29 43.97 45.62 40.34 47.94 37.90 C 53.43 31.75 59.32 25.96 64.76 19.76 Z" />
<path fill="#ffffff" stroke="#ffffff" stroke-width="0.09375" opacity="1.00" d=" M 119.26 15.78 C 124.77 15.69 130.35 15.10 135.82 15.93 C 138.39 17.52 139.21 20.85 140.58 23.40 C 149.25 43.53 159.81 62.83 167.69 83.29 C 143.61 83.60 119.52 83.58 95.44 83.30 C 95.72 75.79 99.61 69.25 102.58 62.57 C 105.82 55.51 108.92 48.38 112.27 41.37 C 117.58 41.32 122.89 41.36 128.20 41.50 C 125.30 51.02 120.94 60.00 117.42 69.29 C 125.98 69.55 134.56 69.50 143.13 69.35 C 136.58 54.50 130.15 39.60 123.06 24.99 C 121.61 22.00 120.37 18.92 119.26 15.78 Z" />
<path fill="#ffffff" stroke="#ffffff" stroke-width="0.09375" opacity="1.00" d=" M 173.25 15.82 C 183.83 15.46 194.41 15.74 205.00 15.63 C 210.36 15.70 216.05 15.53 220.96 18.03 C 226.09 20.77 230.41 25.31 232.26 30.88 C 233.55 34.78 233.40 38.95 233.41 43.01 C 233.27 56.40 233.48 69.79 233.29 83.18 C 227.98 83.36 222.67 83.34 217.37 83.14 C 217.45 70.08 217.49 57.01 217.41 43.94 C 217.53 37.67 212.88 31.57 206.59 30.56 C 201.15 29.86 195.64 30.35 190.17 30.35 C 189.16 47.96 190.09 65.63 189.67 83.26 C 184.03 83.57 178.38 83.45 172.75 83.31 C 172.70 65.21 172.75 47.10 172.72 29.00 C 172.69 24.60 172.87 20.20 173.25 15.82 Z" />
<path fill="#ffffff" stroke="#ffffff" stroke-width="0.09375" opacity="1.00" d=" M 244.86 15.82 C 265.10 15.49 285.36 15.52 305.61 15.81 C 305.63 19.94 305.63 24.08 305.59 28.21 C 285.34 28.61 265.06 28.56 244.80 28.24 C 244.68 24.10 244.69 19.96 244.86 15.82 Z" />
<path fill="#ffffff" stroke="#ffffff" stroke-width="0.09375" opacity="1.00" d=" M 333.73 17.83 C 335.52 15.71 338.36 15.52 340.94 15.53 C 345.61 15.43 350.29 15.61 354.89 16.38 C 351.12 20.78 347.01 24.89 343.21 29.27 C 337.87 35.46 331.53 40.70 326.30 47.00 C 331.63 53.23 337.38 59.07 342.74 65.27 C 347.95 71.24 353.68 76.78 358.37 83.20 C 352.01 83.36 345.53 84.10 339.23 83.02 C 336.01 80.86 333.84 77.55 331.26 74.73 C 325.90 68.75 320.91 62.45 315.57 56.46 C 314.27 54.84 312.70 53.20 312.50 51.04 C 312.04 46.67 311.85 41.64 315.23 38.29 C 321.45 31.52 327.31 24.41 333.73 17.83 Z" />
<path fill="#ffffff" stroke="#ffffff" stroke-width="0.09375" opacity="1.00" d=" M 244.80 39.74 C 264.96 39.35 285.13 39.54 305.30 39.64 C 305.39 44.20 305.38 48.76 305.25 53.33 C 289.97 53.63 274.68 53.38 259.40 53.46 C 259.32 58.51 259.27 63.56 259.27 68.62 C 274.56 68.57 289.86 68.48 305.16 68.66 C 305.23 73.54 305.19 78.41 305.05 83.28 C 284.95 83.30 264.84 83.52 244.74 83.25 C 244.69 68.75 244.50 54.24 244.80 39.74 Z" />
</g>
</svg>
