<?xml version="1.0" encoding="UTF-8" standalone="no"?>
<svg
   xmlns:dc="http://purl.org/dc/elements/1.1/"
   xmlns:cc="http://creativecommons.org/ns#"
   xmlns:rdf="http://www.w3.org/1999/02/22-rdf-syntax-ns#"
   xmlns:svg="http://www.w3.org/2000/svg"
   xmlns="http://www.w3.org/2000/svg"
   xmlns:sodipodi="http://sodipodi.sourceforge.net/DTD/sodipodi-0.dtd"
   xmlns:inkscape="http://www.inkscape.org/namespaces/inkscape"
   width="484pt"
   height="125pt"
   viewBox="0 0 484 125"
   version="1.1"
   id="svg3422"
   inkscape:version="0.91 r13725"
   sodipodi:docname="logo.svg">
  <metadata
     id="metadata3461">
    <rdf:RDF>
      <cc:Work
         rdf:about="">
        <dc:format>image/svg+xml</dc:format>
        <dc:type
           rdf:resource="http://purl.org/dc/dcmitype/StillImage" />
      </cc:Work>
    </rdf:RDF>
  </metadata>
  <defs
     id="defs3459" />
  <sodipodi:namedview
     pagecolor="#ffffff"
     bordercolor="#666666"
     borderopacity="1"
     objecttolerance="10"
     gridtolerance="10"
     guidetolerance="10"
     inkscape:pageopacity="0"
     inkscape:pageshadow="2"
     inkscape:window-width="1920"
     inkscape:window-height="1027"
     id="namedview3457"
     showgrid="false"
     inkscape:zoom="1.5104"
     inkscape:cx="302.5"
     inkscape:cy="78.125"
     inkscape:window-x="-8"
     inkscape:window-y="-8"
     inkscape:window-maximized="1"
     inkscape:current-layer="svg3422" />
  <g
     id="#66aeffff">
    <path
       fill="#66aeff"
       stroke="#66aeff"
       stroke-width="0.09375"
       opacity="1.00"
       d=" M 56.17 31.70 C 61.17 22.95 65.65 13.92 70.62 5.15 C 72.93 9.56 75.29 13.95 77.70 18.30 C 69.92 21.71 62.58 26.11 56.17 31.70 Z"
       id="path3428" />
    <path
       fill="#66aeff"
       stroke="#66aeff"
       stroke-width="0.09375"
       opacity="1.00"
       d=" M 58.13 38.14 C 63.83 31.09 72.02 26.61 80.21 23.05 C 82.32 26.92 84.40 30.82 86.44 34.72 C 89.28 34.77 92.13 34.79 94.98 34.82 C 95.88 37.07 96.80 39.31 97.73 41.54 C 90.27 39.90 82.57 39.33 74.96 40.19 C 72.81 40.52 70.29 40.38 68.64 42.04 C 67.47 44.08 69.56 46.21 71.66 45.74 C 79.86 45.01 88.33 44.36 96.35 46.74 C 104.96 49.34 112.29 54.89 118.81 60.92 C 115.16 64.02 111.59 67.19 107.90 70.24 C 108.68 72.63 109.52 75.00 110.42 77.35 C 108.48 78.76 106.54 80.16 104.61 81.59 C 103.86 73.10 101.37 64.55 96.48 57.52 C 94.76 55.61 92.67 57.74 91.13 58.72 C 95.16 66.17 98.99 74.25 98.60 82.94 C 98.16 91.02 94.73 98.64 90.45 105.39 C 86.17 103.19 81.83 101.11 77.46 99.10 C 75.23 100.60 73.00 102.11 70.79 103.64 C 68.50 102.34 66.22 101.02 63.94 99.70 C 72.49 96.76 80.51 92.06 86.96 85.69 C 88.87 83.80 86.27 80.97 83.99 81.60 C 81.29 83.28 79.07 85.60 76.47 87.42 C 70.45 91.75 63.51 95.06 56.07 95.87 C 49.08 96.79 42.01 96.13 35.08 95.06 C 35.80 90.92 36.65 86.81 37.57 82.71 C 35.14 81.11 32.71 79.51 30.27 77.92 C 31.07 75.42 31.85 72.92 32.61 70.41 C 38.52 77.07 46.08 82.26 54.30 85.63 C 56.23 86.57 58.39 84.98 58.48 82.95 C 57.67 81.29 55.77 80.71 54.27 79.85 C 45.90 75.81 37.77 69.99 33.62 61.41 C 30.98 56.26 29.64 50.58 28.58 44.93 C 33.09 44.42 37.60 43.87 42.11 43.23 C 43.07 40.46 43.85 37.60 45.26 35.01 C 48.08 34.53 50.96 34.63 53.81 34.52 C 48.70 41.38 45.25 49.55 44.27 58.05 C 43.89 60.93 49.13 61.79 49.68 58.85 C 51.30 51.55 53.36 44.08 58.13 38.14 Z"
       id="path3430" />
    <path
       fill="#66aeff"
       stroke="#66aeff"
       stroke-width="0.09375"
       opacity="1.00"
       d=" M 104.04 43.93 C 114.11 45.19 124.19 46.33 134.25 47.66 C 130.43 50.82 126.69 54.10 122.95 57.37 C 117.32 52.01 110.99 47.42 104.04 43.93 Z"
       id="path3432" />
    <path
       fill="#66aeff"
       stroke="#66aeff"
       stroke-width="0.09375"
       opacity="1.00"
       d=" M 6.67 47.64 C 12.09 46.93 17.52 46.29 22.95 45.65 C 24.18 54.10 27.05 62.33 31.77 69.48 C 23.62 61.95 15.07 54.88 6.67 47.64 Z"
       id="path3434" />
    <path
       fill="#66aeff"
       stroke="#66aeff"
       stroke-width="0.09375"
       opacity="1.00"
       d=" M 104.22 85.52 C 106.63 95.25 108.24 105.15 110.42 114.93 C 105.51 112.56 100.60 110.18 95.67 107.86 C 99.78 100.98 103.12 93.51 104.22 85.52 Z"
       id="path3436" />
    <path
       fill="#66aeff"
       stroke="#66aeff"
       stroke-width="0.09375"
       opacity="1.00"
       d=" M 33.92 100.24 C 43.23 101.57 52.76 102.11 62.03 100.17 C 51.59 104.82 41.40 109.99 31.07 114.89 C 31.94 109.99 33.00 105.13 33.92 100.24 Z"
       id="path3438" />
  </g>
  <g
     id="#141423ff">
    <path
       fill="#141423"
       stroke="#141423"
       stroke-width="0.09375"
       opacity="1.00"
       d=" M 392.66 35.23 C 403.65 35.29 414.63 35.24 425.62 35.26 C 425.62 36.63 425.62 37.99 425.63 39.35 C 414.63 39.37 403.63 39.35 392.63 39.36 C 392.64 37.99 392.64 36.61 392.66 35.23 Z"
       id="path3441" />
    <path
       fill="#141423"
       stroke="#141423"
       stroke-width="0.09375"
       opacity="1.00"
       d=" M 141.50 43.48 C 155.21 43.45 168.92 43.51 182.63 43.46 C 182.63 57.18 182.63 70.90 182.63 84.62 C 179.90 84.60 177.18 84.59 174.45 84.60 C 174.51 73.63 174.46 62.65 174.48 51.68 C 163.49 51.70 152.50 51.70 141.50 51.69 C 141.52 48.95 141.52 46.22 141.50 43.48 Z"
       id="path3443" />
    <path
       fill="#141423"
       stroke="#141423"
       stroke-width="0.09375"
       opacity="1.00"
       d=" M 190.77 43.55 C 204.61 43.41 218.45 43.46 232.28 43.52 C 232.26 46.23 232.26 48.93 232.28 51.64 C 221.28 51.76 210.28 51.66 199.29 51.69 C 199.29 54.43 199.29 57.17 199.31 59.91 C 210.30 59.98 221.32 59.58 232.30 60.14 C 232.26 62.82 232.26 65.49 232.26 68.17 C 221.26 68.19 210.26 68.21 199.27 68.16 C 199.28 70.58 199.33 73.01 199.49 75.43 C 200.97 75.84 202.45 76.41 204.02 76.38 C 213.44 76.43 222.86 76.30 232.28 76.43 C 232.26 79.14 232.26 81.84 232.28 84.55 C 220.90 84.62 209.51 84.63 198.13 84.56 C 195.12 84.65 191.47 83.10 191.28 79.68 C 190.22 72.18 191.03 64.55 190.81 57.00 C 190.78 52.52 190.79 48.03 190.77 43.55 Z"
       id="path3445" />
    <path
       fill="#141423"
       stroke="#141423"
       stroke-width="0.09375"
       opacity="1.00"
       d=" M 245.20 46.28 C 247.96 44.13 251.56 43.46 254.99 43.47 C 263.84 43.47 272.69 43.49 281.54 43.47 C 281.52 46.22 281.53 48.96 281.53 51.71 C 274.00 51.71 266.48 51.65 258.95 51.72 C 255.72 51.85 251.77 52.18 249.93 55.27 C 247.87 59.63 248.73 64.58 248.65 69.23 C 249.33 72.43 251.39 75.60 254.94 75.90 C 263.75 76.92 272.68 76.14 281.54 76.37 C 281.52 79.12 281.52 81.86 281.54 84.61 C 272.68 84.58 263.83 84.61 254.97 84.60 C 251.29 84.59 247.32 84.02 244.46 81.51 C 242.47 79.93 241.67 77.44 240.63 75.23 C 240.25 69.15 240.40 63.06 240.41 56.98 C 240.35 52.96 241.92 48.75 245.20 46.28 Z"
       id="path3447" />
    <path
       fill="#141423"
       stroke="#141423"
       stroke-width="0.09375"
       opacity="1.00"
       d=" M 339.26 43.47 C 349.79 43.53 360.33 43.38 370.86 43.53 C 376.22 43.69 380.59 48.72 380.39 54.01 C 380.42 64.19 380.35 74.38 380.41 84.57 C 377.67 84.60 374.93 84.60 372.20 84.60 C 372.15 76.05 372.34 67.48 372.12 58.93 C 372.14 55.77 370.53 52.19 366.97 51.95 C 360.49 51.35 353.95 51.87 347.45 51.68 C 347.46 62.65 347.42 73.61 347.47 84.58 C 344.73 84.60 342.00 84.60 339.27 84.61 C 339.28 70.90 339.29 57.18 339.26 43.47 Z"
       id="path3449" />
    <path
       fill="#141423"
       stroke="#141423"
       stroke-width="0.09375"
       opacity="1.00"
       d=" M 445.40 43.68 C 455.86 43.19 466.35 43.63 476.83 43.46 C 476.83 46.21 476.83 48.96 476.82 51.72 C 467.78 51.94 458.66 51.13 449.66 52.18 C 455.27 57.35 461.94 61.21 468.01 65.81 C 471.15 68.21 475.38 69.98 476.66 74.05 C 476.90 76.63 477.26 79.54 476.00 81.91 C 474.53 84.24 471.51 84.55 469.01 84.59 C 459.29 84.59 449.56 84.64 439.84 84.55 C 439.85 81.84 439.85 79.14 439.84 76.43 C 447.55 76.31 455.27 76.41 462.98 76.39 C 464.49 76.40 465.95 76.11 467.36 75.51 C 459.60 69.59 451.49 64.12 443.57 58.41 C 441.14 56.72 440.25 53.80 439.66 51.05 C 440.16 47.81 441.45 43.80 445.40 43.68 Z"
       id="path3451" />
    <path
       fill="#141423"
       stroke="#141423"
       stroke-width="0.09375"
       opacity="1.00"
       d=" M 290.29 84.62 C 290.29 70.90 290.30 57.18 290.29 43.46 C 293.01 43.47 295.74 43.48 298.46 43.48 C 298.43 48.96 298.42 54.45 298.47 59.93 C 306.73 59.77 315.00 60.00 323.26 59.79 C 323.22 54.34 323.21 48.89 323.26 43.44 C 325.98 43.47 328.71 43.48 331.43 43.50 C 331.39 57.19 331.39 70.88 331.43 84.57 C 328.69 84.59 325.96 84.60 323.23 84.61 C 323.24 79.17 323.21 73.72 323.26 68.28 C 314.99 68.05 306.72 68.29 298.46 68.14 C 298.43 73.62 298.43 79.10 298.46 84.59 C 295.74 84.59 293.01 84.60 290.29 84.62 Z"
       id="path3453" />
    <path
       fill="#141423"
       stroke="#141423"
       stroke-width="0.09375"
       opacity="1.00"
       d=" M 399.35 44.62 C 407.56 42.74 416.69 42.87 424.32 46.76 C 430.28 49.76 433.90 56.37 433.77 62.97 C 434.21 69.01 432.23 75.52 427.35 79.37 C 421.67 83.88 414.07 84.82 407.05 84.55 C 400.62 84.26 393.71 82.61 389.19 77.72 C 384.32 72.50 383.63 64.65 385.15 57.96 C 386.72 51.15 392.70 46.15 399.35 44.62 M 401.44 52.75 C 395.35 54.28 391.14 60.99 393.03 67.10 C 394.31 72.47 399.75 75.56 404.92 76.09 C 410.82 76.75 417.65 76.51 422.28 72.29 C 427.44 67.53 426.57 58.03 420.50 54.40 C 414.83 51.04 407.65 51.11 401.44 52.75 Z"
       id="path3455" />
  </g>
</svg>
